<mxfile host="app.diagrams.net" modified="2023-09-21T09:50:51.962Z" agent="Mozilla/5.0 (Windows NT 10.0; Win64; x64) AppleWebKit/537.36 (KHTML, like Gecko) Chrome/116.0.0.0 Safari/537.36" etag="Qs1HUpX-OVHogMm7fQhJ" version="21.7.5" type="device">
  <diagram name="Page-1" id="xYkzluKwxWif-bSOW8pj">
    <mxGraphModel dx="837" dy="892" grid="1" gridSize="10" guides="1" tooltips="1" connect="1" arrows="1" fold="1" page="1" pageScale="1" pageWidth="850" pageHeight="1100" math="0" shadow="0">
      <root>
        <mxCell id="0" />
        <mxCell id="1" parent="0" />
        <mxCell id="iPHKZAZRWa_BI_mhg364-1" value="Application Server" style="shape=image;verticalLabelPosition=bottom;labelBackgroundColor=default;verticalAlign=top;aspect=fixed;imageAspect=0;image=data:image/png,iVBORw0KGgoAAAANSUhEUgAAAgAAAAIACAYAAAD0eNT6AAAABHNCSVQICAgIfAhkiAAAAAlwSFlzAAAN1wAADdcBQiibeAAAABl0RVh0U29mdHdhcmUAd3d3Lmlua3NjYXBlLm9yZ5vuPBoAACAASURBVHic7N13vF1Vnf7xzxMIvQQFaQlFEIEfvQmKolQVKeo4okhXsY44Kig64thldMQyKCrSREERBUGkIypVqQKhCwm9hU4Sku/vj7UP9+YmgVvO2mvvc57367Vf594bWPuBe7LX9+y9iiICs14kScBSwARgmSHHhOrPFqqO8YO+HsnP5vXPLADMBGYMOoZ+P9yfDf7+OeBx4LEhxzTgsYh4tkv/68ysD8gFgDWdpKWA5Zi7A59Xpz74+6VJnXG/mM48CoNh/OyBiJhRIrCZleMCwIqStCgwEZgErFK9Dj2WKhawPwTwADBlHsfd1ev9ETGrWEIz6zoXAJaNpAWBlRnoyOfVwS9bLKCNxPPAvcy7OJgCTImIh8rFM7ORcgFgYyJpAeCVwLrAOtXrq0id/QrAuHLprGbPAVOBu4CbBh03RsQDJYOZ2dxcANiwSFoYWIuBTn6d6lgLWLhgNGuHx4AbqQqCQa9TwhchsyJcANgcJC0BrM2cHf26pE/5/TSgzurxNDCZuYuD2z3mwCwvFwB9TNJqwGuAzYH1SJ39JEDlUpkBadrjLaSC4DrgcuDKiHi8aCqzHuICoE9ImkDq6F9THVsArygaymxkAriZVAx0jusi4vmiqcxaygVAD5I0HtiAOTv7V+NP9tZ7ngWuZlBREBH/KprIrCVcAPQASaszZ2e/CbBI0VBm5TwIXMFAUXBlREwrG8mseVwAtEy1vO3GwI7A60id/nJFQ5k12+BHBxcB50bEPUUTmTWAC4AWkLQKsEN1bIcXzzEbq5uAc6vjooh4qnAes9q5AGggSUsCb2Kg03912URmPW0mcCkDBcHfPQXR+oELgAaoVtPbgoEOf0tgwaKhzPrXNOACqoIgIm4vnMcsCxcAhUhak4EOf1vSznVm1jx3MHB34IKIeKxwHrOucAFQk2rw3muAdwFvB1Yvm8jMRmE2aTDhKcApEXF34Txmo+YCIKMhnf6/kTbIMbPeEKRi4DfAbyJiSuE8ZiPiAqDL3Omb9aVOMfBr0p0BFwPWeC4AusCdvpkNEsBlDNwZmFo4j9k8uQAYJXf6ZjYMnWKgc2fAxYA1hguAEZK0EbAX7vTbbCZpqtdj1ev06mczSbvQDX59qZ/N689nAeOrY6GX+Hq4P1sMWKY6lsL7OrRRkNYb+DVwYkQ8XDiP9TkXAMMgaRHg3cCHSZ/6rbznGOjE53XM988i4ukSgbtF0jjStNFlhhwT5vGzoX82AVig/tQ2xHTSTIIfRcTfSoex/uQC4EVIWgv4ELAP8LLCcfrFTOBeYAowdcgxBbgHeCQiniuWsMWqR1dLkraCnjjomDTk++XwXYa6XA/8GDghIp4sHcb6hwuAISQtCOxO6vi3xRfBbprOvDv3wd8/EH5TFidpYWBlXrxIWB7//eimp4Bfku4KXFM6jPU+FwAVSZOADwIHACsWjtNmM4DbgMmkDVcmV8fdwEPu3HuHpPGkImF1YB1g7UGvEwtG6wWXke4KnOy7XZZLXxcA1bPUnUif9nfGz0ZH4nHm7OQ7r3dExPMlg1l5kpYgFQKDi4J1gDVJgxpteB4FjgWOiohbCmexHtOXBYCklwPvBw7ES/K+lKnM+Un+JmByRNxXNJW1UvWIbQ3mLg7WxvthvJggbVD0I+D33q3QuqGvCgBJywGfBj4KLF44ThPdBVw56PhHRDxRNpL1C0mrApsDmw16XapoqGa6Bfgq8EsXAjYWfVEASFqe1PF/hDSf2uAB4O8M6vAj4qGykcwGVDMW1iIVA51jI2DRkrka5Dbga8Av/NjNRqOnCwBJKwAHk27193PH/zhzd/Zeq9xap3qEsB5z3ilYH1iwZK7C7iAVAse7ELCR6MkCQNKKwCGkUf39+GnhRtLzwstIHf6tHn1vvapaqGsjUjGwNfAm0joG/eZO4OvAcRExs3QYa76eKgAkrUzq+D8ALFI4Tp3uAs6vjgsi4v7CecyKqR4drA9sVx1vIC1+1C/uAr4BHBMRM0qHsebqiQKgmsP/WdIc/oULx6nDQ6RP+J0O//bCecwaq3pssAVpYa/tgK3oj+vEFFIh8POImF46jDVPqwuAanDfl4D9SZum9KongT8z0Olf71v6ZqMjaVHSo4LtSEXBpsC4oqHymkoaI/BTzxqwwVpZAFQL+HyYNBVmQuE4Ocwm7Rr2J1KHf6UH95jlIWkC8EZSQfA2YLWSeTK6GvhIRFxWOog1Q+sKAElbkBbD2KR0li6bCVwInEpa6OOBwnnM+pKkjYF3VMe6heN0WwA/Bw6JiEdKh7GyWlMASHoZ6XnWB+idDUieAc4mdfpnRMS0wnnMbJBqR9BOMbAZvXPteRT4HOmxQDs6Aeu6xhcA1Yje/YFvAssWjtMN04AzSJ3+2RHxTOE8ZjYMkiYCbycVA6+nN/YOuYL0WOAfpYNY/RpdAEjakHS7f6vSWcbofuA0Uqd/oefomrWbpGWBXUnFwPa0e1bBbNLOg5/3Xcj+0sgCQNJSwFdIa/a3tcp+AjgJOAG4JCJmF85jZhlIWhLYBdiPNJCwrY8JHiStnHq8Hwv0h8YVAJLeC3wHWKF0llEI4GLSIJtTfHvfrL9UGxrtB+wLrFo2zaj9lfRY4PrSQSyvxhQA1VSco0m31NrmHuA40spbt5UOY2ZlVWOXtiMtTrY77VuZdCbw2Yj439JBLJ9GFADV1L6Tadf82xnAH0if9s/2AhtmNi+SlgHeSyoGNi4cZ6ROB/aNiMdKB7HuK14ASPok8C1gfNEgw/dP0p2KX0TEw6XDmFl7SNqINKtpT+BlheMM193Au72AUO8pVgBUVfGxpJG0TTcTOBE4MiKuLB3GzNpN0sKkKYUHAa8pHGc4ZpLWDfhfDxDsHUUKAElbkUbIr1L7yUfmCeAnwBERcU/pMGbWeyS9njT6fmeaP4PgDGCfiHi0dBAbu1oLgGpgzKdJe1YvWNuJR+5e4HvAURHxeOkwZtb7JK0LfIY0XqDJm5vdDewREZeWDmJjU1sBIOnlpJHyO9dywtG5Cfgf4ETvo21mJUhaifRo4EBgqcJx5ud54FDg234k0F61FACSXke65T8x+8lG56/A4aT1+P1mNrPiqgXRDiQVAysVjjM/ZwJ7+5FAO2UvACTtTur8m7ZU5mzS8ryHe3SrmTWVpIVIswY+TTN3J7wJ2D4i7i0dxEYmawEgaU/SSP+mPe8/F/hMRFxbOoiZ2XBUY6jeB3wNmFQ4zlB3kIqAO0sHseHLVgBIOhA4EhiX5QSjcz1wcET8qXQQM7PRkLQI6bHA52jWGIF7SEXA5NJBbHiyFACSPk0aTNcU9wJfJC3V6015zKz1JC1Huq59iObcZX0I2Ckiri4dxF5a1wsASf9NelM2wVOkQuTb3pjHzHqRpLVIq6nuXjpLZRqwc0RcUjqIvbiuFQDV86n/Jd2aKm0WabnewyLi/tJhzMxyk7Q1aSfVLUpnAZ4GdouI80sHsfnrSgEgaRxwFPD+MTc2dn8kDfC7sXQQM7M6VR/E/h34JuU3V5sO/HtEnF44h83HmAsASQsCJwB7dCXR6D0KfCwiflU4h5lZUZIWJz0W+Ahllxd+nrROgK/LDdSNAuBkUsVZ0unAgb7db2Y2QNK2pC3LVy0YYzZpN8FTCmaweRjTFD1Jn6Vs5z+NtDHFbu78zczmFBEXAOuTNjUrZRxwrKT1CmaweRj1HQBJOwJnUW6e/1nAB7xLn5nZS6uu2UdTbkn224DNI2JaofPbEKPqvCWtDvxqtP/+GD0BvD8i3urO38xseCLiHGA90uqsJawJnFgNGrcGGPEvQtJiwO+Al3U/zks6D1g/Io4ucG4zs1aLiMcjYj/gbcB9BSK8FfjvAue1eRhNJfYzYMNuBxmG/wZ2jIi7C5zbzKxnRMSZpOv4Xwuc/vPVJnFW2IjGAEj6T9JCE3V6FtgvIk6u+bxmZj2t2mnwJ8A+NZ/6SWAL7xtQ1rALgGo6yTnAAlkTzek+0mpSV9Z4TjOzviLpYOAb1Duu62ZSEfBEjee0QYZVAEhaBfgHsGz2RAOuBnaNiKk1ntPMrC9J2hU4EViixtOeBrw9cu5Lb/M13GrveOrt/E8Ftnbnb2ZWj2rJ3q2BOsdZ7QYcWOP5bJCXvANQDdb4XT1xAPg68AVXhGZm9ZO0PPB7YMuaTvkQsKYfBdTvRe8ASBoPHF5TlgD2j4jPu/M3MysjIh4A3kgqAuqwHHBoTeeyQV7qEcBHgVfVEQT4j4g4pqZzmZnZfETEdNIGbxfUdMqDJJXcr6AvzfcRgKRlSEs31rHgz39HxJdqOI+ZmQ2TpCVJRcBmNZzupIh4Tw3nscqL3QH4IvV0/j90529m1jwR8STwFqCO+fp7SKpr3IExnzsAktYEbgTGZz7/L4H3+Zm/mVlzSZoE/A2YlPlUl0bEazOfwyrzuwNwOPk7/z8C+7rzNzNrtoiYAuwAPJz5VFtJKrnFfF+Z6w6ApDcAf8583r8BO0TEs5nPY2ZmXSJpU+BCYMmMp7kTWKcaiGgZzesOwDcyn/MR4B3u/M3M2iUi/gF8OPNpVgc+mPkcxpACQNJ6QO7nLx+PiAczn8PMzDKIiBOB0zOfxgVADYbeAdg/8/lOi4hfZT6HmZnl9SHgsYztrydpi4ztG4MKgGpbyL0ynusx0pvGzMxaLCLuAw7KfJoDMrff9wbfAdiVvBv+fCIi7s/YvpmZ1SQijifN5splD0mLZWy/7w0uAHKuwHRGRJyQsX0zM6vfB4HHM7W9FLBzpraNqgCQtACwbaZzPIW3ezQz6zkRcQ9wcMZT7JSx7b7XuQOwGTAh0zl+GRH3ZmrbzMzKOpa0pW8OO2Zq1xgoAHbIeI6jMrZtZmYFRcQMUhGQwyRJ62Rqu+/lLgD+HhFXZWrbzMya4SdArmXd/Rggk3GSxgG55lv607+ZWY+LiNtI2wbn4M2BMhkHvBJYJEPbTwBe9MfMrD/k+sC3bqZ2+9448v3PPTEins7UtpmZNcvvgRzLvK8lacEM7fa9nAXASZnaNTOzhomImcBvMzQ9HlgzQ7t9L2cBcHOmds3MrJkmZ2rXjwEyGAdMytDu0xHxQIZ2zcysuW7L1O7ETO32tXGk5Ra77fYMbZqZWbPlKgCWzNRuXxsHLJ2h3TsytGlmZs12JzArQ7suADLwHQAzM+uKaiDg3RmaXiJDm33PBYCZmXVTjscAvgOQwThg4dIhzMzMXoT7qQzGvfQ/MiprZGrXzMyazXP2W8IFgJmZdYWk8cAqpXPY8OQqAF6ZqV0zM2uu1YEFSoew4fEdADMz6xbf/m+RXAXA4pKWz9S2mZk1kwuAFslVAAC8OmPbZmbWPGtnajcytdvXchYAe2Rs28zMGqQaAPjOXM1narev5SwA9pS0eMb2zcysOXYHXlE6hA1fzgJgKeA9Gds3M7PmOLB0ABuZnAUA+A1hZtbzJK0JbFs6h41M7gJgM0mbZD6HmZmV9UH8nL51chcA4LsAZmY9S9JCwL6lc9jI1VEAvFfSSjWcx8zM6rcvsFzpEDZydRQASwBH1XAeMzOrkaSVgcNL57DRqaMAAHibpL1qOpeZmdXjJ8DSpUPY6NRVAAB8T9IKNZ7PzMwykbQ38NbSOWz06iwAlgF+XOP5zMwsA0krAkeUzmFjU2cBALCbJC8OZGbWbj8mfaizFqu7AAD4gSQvF2lm1kKS9gR2LZ3Dxq5EAfBy4FRJixY4t5mZjZKkTYEflc5h3VGiAAB4HXBKtXuUmZk1nKRXA38CliydxbqjVAEAafTosZK8fKSZWYNJmgScCyxbOot1T8kCAOC9wPcLZzAzs/mQtCxwDjCpdBbrrtIFAMDHJH2pdAgzM5uTpCWBs4C1S2ex7mtCAQBwmKSPlQ5hZmaJpIWB3wOblc5ieTSlAAD4vqT9SocwM+t3Ved/ErBt6SyWT5MKAAE/l/Q1Dww0MytD0vLARcDuhaNYZk0qADoOJU0RXKx0EDOzfiJpQ+AKYMvSWSy/JhYAAO8A/ippYukgZmb9QNKuwF+BVUpnsXo0tQAA2Bi4QtLmpYOYmfUySQcDvwOWKJ3F6tPkAgBgReDPkt5dOoiZWa+RtJCkY4Fv0fz+wLqsDb/wRYGTJH3JgwPNzLpD0nLA+cA+pbNYGW0oADoOA86R5OdTZmZjIGln4Fpg69JZrJw2FQAA2wPXSzqgdBAzs7aRtLSkY4AzSI9YrY+1rQAAWAr4maQ/Slq5dBgzszaQtCPwT2DfwlGsIdpYAHS8BfinpL1LBzEzaypJS0o6Cjgb8NRqe0GbCwCACcBxkk6TtELpMGZmTSJpW+B64IOls1jztL0A6NgVuEHSe0oHMTMrTdLikn4InAesWjqPNVOvFAAALwN+KelMSeuWDmNmVjcl7yY96/8oaY8Vs3nqpQKg463AdZKO8mMBM+sXkrYGLiPt4rda2TTWBr1YAAAsQHrmdaukL3pjITPrVZLWkvQ74C/AFqXzWHvkKgDOAmZlansklgD+m1QIHCCpVwseM+szkpaT9APgBpqzde89wFWlQ9jw5OoQjwd2AZ7M1P5IrQT8DLhG0ptLhzEzGy1Ji0j6LHAb8DFgwcKROq4BXgPcWjqIDU+2T8QRcRbwemBqrnOMwvrAWZLOqfa9NjNrhWqA317ALcA3SIuiNcUZwOsj4p7SQWz4st4Sj4hrSRVh024J7QBcJelUSVuWDmNmNj/Vjn37kUb2Hw9MKhxpqO8Bu0XEU6WD2MhkfyYeEfcCbwD+kPtcIzQOeDtwqaS/SNrFuw2aWVNIWkrSZ4A7gZ8DTZvePAv4WEQcFBGzS4exkatlUFxEPE0apPK9Os43ClsDp5MWE9pP0kKlA5lZf5K0kqTDgSnA4aQxTE3zJLBLRPxf6SA2erWNio+I2RFxELA/8Exd5x2hdUiV9p2SDpa0dOlAZtYfJK1b7dR3J/AZmvWMf7AbgC2rcV7WYrVPi4uIY4BNgevqPvcIrAR8C7hb0v9410Ezy0XS6yX9gYGd+pp8B/IoYPOIuLF0EBu7IvPiI2IyaXBg028fLQV8mnRH4BhJm5cOZGbtJ2lhSXtIugy4GHgbzV62dxrwroj4UEQ8WzqMdUexhXEi4rmI+BhpIN6jpXIM03hSZX6FpOslHSRp2cKZzKxlJG0k6fvAvcCvSB+Emu5SYKOIOKV0EOuu4ivjRcTvgY1Iy1i2wXrAd4F7JJ0i6a2SFigdysyaSdIykj4q6SrgauDjpM3Lmm42ab2BN0TEXaXDWPcVLwAAImIK8Cbgy8DzheMM10LAO4EzgbskfU3SmoUzmVkDVIv2bC/pV6RP+z8ENi4cayTuBXaMiEMjoi3XZBuhRhQAABExKyIOAzYHriidZ4RWBg4FbpF0kaS9vQGRWf+RtKqkL5FG8p8L7AEsUjTUyMwGjgTWiYjzS4exvBpTAHRExDXAVqTbZE3ZS2C4BGwDHAfcV21JvLU3ITLrXZKWlPReSeeSOv7DgFULxxqN64DXRsRHI+KJ0mEsv0Z2TNWaAT8kzcs/tXSeUVqKtCXxX0jjBX4saUdJ4wvnMrMxkrSspP0lnQE8BJwIbE+zR/LPzzPAIcCmEXF56TBWn6bsIjVP1cYS75S0C2nKYNPWwB6uFYADq2NaddE4FTg7Ipq6KJKZDSJpImnW0jtIG531wuDfPwEfiYg7Swex+jXyDsBQEfEH0jrY3yWtP91mE4D3kQqAh6oNid4naULhXGY2hKS1JH1W0hXA3cD3gTfS/s7/fmCPiHiLO//+1YoCACAinoqI/wQ2Ac4unadLFiN9ojgBeFDS2ZIOlLR84VxmfUvSxpK+IukG4GbSVLjNaeft/aGeI61yunZEnFw6jJXV6EcA8xIR1wFvlrQdaaOMTQpH6pbxwI7VcaSkS0m3584HrvRUHLM8qrtvbwS2I63It1rJPJnMJg1O/mJETC0dxpqhdQVAR0ScL2kz0jSbrwGrF47UTeOA11XHV4AnJf0ZuIBUEFwfEVEwn1lrSVqUtAPodsC2pL1JWnM3dBT+CBwSEf8sHcSapbUFAEDVCf5K0m+BjwBfAF5eNlUWS5I+mbyt+v4hSZ1i4IKIuL1YMrOGk7QgsAWps9+ONM144aKh6nElcHBEXFQ6iDVTqwuAjoiYARxRbaV5CHAQsGjZVFktB7y7OpB0F6kY6BQE9xfMZlaUJAHrkzr77YA3kIrofnE7aWGy3/hOob2YnigAOiLiceBQST8k7eL3QWDxsqlqsSqwf3Ug6UbS44LLSJ8CbvWFwHqVpEVI+4lsTrq1/yZSkdxvbiMN8DsuImaWDmPN11MFQEdE3Av8p6SvAv9Bezbf6JZ1q+Nj1fePS/o7qRi4kjSocEqpcGajVd3OX4/U2W9Wva5Pj17Lhuka4JukT/yzS4ex9ujpvzQR8SjwJUn/Q7ob8CnSuv39ZmkGbocCIOkBYGhR8FCZeGZzq27lr0Xq5DvHRvT2472R+Cvw9Yg4q3QQa6eeLgA6IuJp4LuS/g/YCziYdGHpZ8sDO1cH8MJYgisHHf/wmuBWF0mrMucn+81IS2rbnP4IfCMi/lo6iLVbXxQAHdVgwaOrwYLvBD5L76wj0A2rVse/dX4gaSpwEzC5Om4CJkfEfUUSWqtVt/DXANaujnUGfb10wWhNNws4hdTxX1s6jPWGvioAOqrnZL8BfiPpdaQphP8GLFQ0WDNNrI4dBv9Q0uMMKggGvd7hRYtM0hLM3cmvA6xJWvTKhud+4GjgKI/bsW7rywJgsIj4G/A3SQcBBwAfop1bedZtaeA11THYDEm3MWdRMJm0jvpDno3QO6qdLVcmLcI1uJNfm1Q02uj9GTgS+J1H9FsufV8AdFQD4L4p6XDgraS7AjvR2yuE5bAQA7MQhpou6V5gCjB10DH4+wdcJJQnaWFS5z5x0DFpyPfL0xvr4zfF46R9QX4UETeWDmO9zwXAENXjgTOAMyStTrojsD+wbNFgvWFh0qfFF1u2eeZ8ioROoXAP8EhEPJc5a0+qRtYvCbyCF+/cl8Ode12uIX3a/2U1YNmsFi4AXkS1TeYhkr5IGiOwF7A97d8KtMnGMzAYcb4kPQdMAx6bzzHfP2v7RVbSONIjmGWGHBPm8bOhfzYBv3+b4FHSOKRjI+Ky0mGsP7kAGIaImA6cCJwo6RWkJXj3ZO7n31afRYAVqmNEJM1koECYBkwHZlbHjCGvL/Wzef35LFIhM570SOTFvh7uzxZjoDNfCn86b6PngD+QriVnVbOSzIpxATBCEfEg8APgB5LWBN5LKgb6fV2BNhlPusXdj8vFWr1mAxcCvwBO9boa1iQe4DYGEXFbRHw5Il5NWrjkCNK0HTPrb1eRVh6dGBHbR8Sx7vytaXwHoEsi4u/A3yV9mrTt6L8BuzKKW9Rm1krXAKcBJ0XE5NJhzF6KC4Aui4hZwLnAuZI+RNqHfLfqmNfUODNrp5nAxaRO//SIuKtwHrMRcQGQUTWf/fLqOLQaM9ApBl6LR2Obtc0TwFmkTv+P1RbkZq3kAqBGEXEb8B3gO5KWBd5GKgZ2JI3yNrPmmQKcTur0L/LKfNYrXAAUEhEPA8cCx0paBNiGtMbAdqQtTz3Ny6yMp4G/AOcB53nzHetVLgAaoFrV7uzqQNLLSQMJtyMVBWuUS2fW854HriB1+OcDl3mOvvUDFwANFBGPUO1WCC/sk965O7AdaRlXMxu9fzLQ4f85Ip4snMesdi4AWqAaXXw0cHS1lvt6pEJga2ArYKWC8cyabjapw7+UNGr//Ih4oGwks/JcALRMNbPg+uo4AkDSJFIh0Dk2Ji0ha9aPHgUuI3X4lwJX+BO+2dxcAPSAiJhCGqn8a3hhK9dNGCgItsT7s1tvGvzpvtPp3+Itpc1emguAHlRtXtT59AOApImkYmAzYEPSTIPliwQ0G53ZwG3AtaRV9y7Hn+7NRs0FQJ+IiKkMGlgIIGkFBoqBzutaeIEiK+9p0mOuTmd/DXB927dyNmsSFwB9LCLuJ21edHbnZ5IWJQ0yHFwUbAAsWSKj9YV7SR384M7+toiYXTSVWY9zAWBziIhngSurA4Bq5sHKpLsDawGvHvT16viOgb20p4FbgVuAm6vXW0jP66eVDGbWr1wA2EuqBlRNrY4LBv+ZpPHAK5mzKOgcK9ab1Ap7HriDQZ07A538PSWDmdncXADYmFTrot9cHXOQtCTpDsEk0iyESYOOidWxaG1hbaweI802GXxMrV7vBu6KiOfLxTOzkXABYNlUo7Ovq455qjZFml+BsDywHLAMMC533j42A3gYeAi4jzk79hc6eg/AM+stLgCsqGpTpIeBq+f3z0gaB7wcWJZUEHRel3uRny2SNXizPUHqzDud+uCv5/pZRDxRKKeZFeQCwBqvGg3e6bRuGs6/Uy2GtARp9sISw/y687o4MJ7092M0xzhgFumZ+HCOmUO+nwE8BTxZvY7o64iYNZz/R2bW31wAWE+qFkOaDjxSOouZWRP5uaqZmVkfcgFgZmbWh1wAmJmZ9SEXAGZmZn3IBYCZmVkfcgFgZmbWh1wAmJmZ9SEXAGZmZn3IBYCZmVkfylUAuLAwM+tPvv63RK5f1MqZ2jUzs2abWDqADU+uAmCNTO2amVmzrVk6gA2PCwAzM+sKSUuRtuS2FshVALwyU7tmZtZc/vTfIrkKgFUleathM7P+4gKgRXIVAAsAq2Zq28zMmskFQIvknK6xaca2zcyseTbL1G5karev5SwA3p+xbTMzaxBJywNvy9V8pnb7Ws4CYHtJHgxoZtYf9gfGlw5hw5ezABDwgYztm5lZA0jy9b6Fci/ZuL8kV4RmZr1tB2D10iFsZHIXAK8Ads98DjMzK+vA0gFs5OrYtMFvDDOzHiVpRWDX0jls5OooALaTtEMN5zEzs/p9BfDCby1U17aNP5W0ZE3nMjOzGkjaETigdA4bnboKgFWBw2s6l5mZZVZ9kJp97gAAIABJREFUqPtp6Rw2enUVAAAHStq2xvOZmVk+3wZWKR3CRq/OAkDAzyQtXuM5zcysyyRtB3ywdA4bmzoLAEjzRL9V8znNzKxLJC0B/Kx0Dhu7ugsAgI9U1aOZmbXPd4DVSoewsStRAAj4raQNC5zbzMxGSdIh+NZ/zyhRAAAsDZwtaY1C5zczsxGQ9H7gm6VzWPeUKgAAlgfOrVaRMjOzhpL0TuDHpXNYd5UsACANCjxH0jKFc5iZ2TxUY7Z+CSxQOot1V+kCAGA94ExJi5UOYmZmAyRtDvweWKh0Fuu+JhQAAFsBp3rrYDOzZpC0DnAWsETpLJZHUwoAgJ1IRYDfbGZmBUnaBDgPeHnpLJZPkwoAgLcBf5Pk5SXNzAqQ9A7gL8BKpbNYXk0rAAA2AK6QtFXpIGZm/UTSocApgMdk9YEmFgCQpgheKGnP0kHMzHqdpIUl/QL4GmmxNusDTS0AABYGfiHpq5L8hjQzy0DS8sCFgD9w9ZkmFwAdnwdO8TRBM7PukrQBcAVpJpb1mTYUAADvAP4iafXSQczMekG1ut/fAA+67lNtKQAANgGuk/Sh0kHMzNpK0jKSTiAN9vO06z7WpgIA0pv1R5LOkTSpdBgzszaRtDPwT+B9pbNYeW0rADp2AP4paf/SQczMmk7S0pJ+DpyB5/dbpa0FAMBSwNGS/ijJb2gzs3mQtCNwPbBf6SzWLG0uADreAtwgaa/SQczMmkLSEpJ+DJwN+JGpzaUXCgCACcDxkk6TtGLpMGZmJVVb+F4PHFg6izVXrxQAHbsCt0o6TNLipcOYmdVJ0lqSfkfayGe1wnGs4XqtAABYHPgSqRA4QNIChfOYmWUlaTlJPwRuAHYvncfaoRcLgI4VgZ8B10h6c+kwZmbdJmlRSZ8DbgM+CixYOJK1SK4C4IukN2QTrAecJelcSRuWDmNmNlZK9gZuBr5OmhXVBCcDp5UOYcOTqwC4FdiStMxkU2wPXCXpWEkTS4cxMxuNaoDfP4DjaNbo/q8D7wGeKx3EhifbI4CIeATYjlQRNsU4YB/gFklfk7RM6UBmZsMhaUNJZ5IG+G1cOs8gM4H9I+LzERGlw9jwZR0DEBHTSRXhN3KeZxQWBQ4Fpkj6riRvhmFmjSTpTZL+BFwDvLV0niGmAW+OiGNKB7GRyz4IMJJDgfcDz+c+3wgtDhwE3C7peEnrlw5kZiZpnKR3SboSuADYqXSmebgTeG1EXFA6iI1ObbMAIuJo0qp9j9d1zhFYENiLtNvgHyVtUzqQmfUfSYtUO57eAvwa2KxwpPm5DNgyIm4qHcRGr9ZpgBHReXZ1eZ3nHaG3ABdJulzSOyX18lRJM2uAaovezwN3AT8C1igcaX4C+F9gm4h4sHQYG5vaO7eIuBN4PXA46c3UVFuQ9sueLOmDkhYuHcjMeoukSZK+C9wNfBV4ReFIL+YhYOeI+FREzCgdxsauyKfbiJgZEYcAbwYeKJFhBF4FHAXcVc0cWLN0IDNrr+r5/g6STgJuJ41DWqJwrJdyAbBhRJxVOoh1T9Hb2xFxDrAhcE7JHMO0PGnmwK2SLpK0t6TFSocys3aQtKqkLwF3kK557wbGFw310p4HPg/sEBH3lQ5j3VX8+XZEPEC6E3AIaT5pG2xDWoTjPkk/kfSa0oHMrHmqQX3vkXQuadT8YcCqhWMN112kZ/1fj4jZpcNY9xUvAOCFqYKHA1sDbRpVuhTwAeAySTdI+pSkJj/DM7MaSNqk2pznXuCXpJVIVTbViJwIbBQRl5QOYvk0ogDoiIgrgI2A/6J9y0muC3wbmCrpVElv806EZv1D0sskfVzSNaSlej8KtG210duBHSPifRExrXQYy6tRBQBARMyIiK8CGwDnl84zCuOBtwN/IK00+G1JW0lqU/VvZsMgaYlqwZ5fkz7tf580rqltZpJWbF0/Is4tHcbq0bgCoCMibo2I7YG9SdNP2mhF4FPAJcA9ko6UtL0kb9lp1lKSXi5pX0mnk65NvwbeBbR1qvAlwMYRcWhEPFs6jNWnsQVAR0ScAKwDtH2t6RWBDwPnAg9KOk7SbpIWLZzLzF6CpJUlfVTS+cD9pOvRLsAiZZONyTTgQ8DWEXFD6TBWv8YXAJB2FoyI/YE30q5BgvOzDOnOxu+BhySdIum9kpYunMvMKpJeJelgSZcBU4AfAtuSlg5vu5OAdSLiKO/g179a9UaOiD9L2oC0sdBhwAqFI3XD4sA7q2OGpAuAU4HTvNSmWb0kbUQaw/MOYL3CcXK4GDgkIi4rHcTKa1UBABARzwM/lnQC6fn6Z2j+KlrDtRBpTYQ3k/4bryatwHU+8NeIeLpkOLNeI2ki6VP9dtXrxLKJsvkn8LmIOKN0EGuO1hUAHVVn+GVJPwa+CHyQ5q+qNRLjgE2r4zPATEmXM1AQXOb1uM1GRtKywJsY6PRfVTZRdlNI18fjvZiPDdXaAqCjuk3+MUnfA74O/FvhSLmMJy2UtDXpL/Qzkv7GQEFwVUTMKpjPrHEkLQW8gYEOf33atSDPaD1Gmtb3g4ho25oqVpPWFwAdEXEr8K5qWd5vkZbr7WWLATtUB8Djkv5MKgYuiIh/FktmVoikRYDXkTr8bYHNgX5akOtZ0mDFb0TEY6XDWLP1TAHQERGXA2+U9Abgs8BbCkeqy9LArtWBpIeAy4ErO0dEPFwunll3VYtrvYrUyXeOTWnvfPyxeBw4EjjCg4dtuHquAOiIiIuBiyVtSCoE3kV/fRJYDnhbdQAg6V8MFAR/B/4REU8USWc2QpJWYe7Ovt+nzj4AHAEc6b/LNlI9WwB0RMS1wHskfYE0mG5f+vMTAsBq1fGu6vuQdDOD7hIA1/iZoZVWbaq1GXN2+N5oa8C/SHuPHO2/rzZaPV8AdETE7cCHqv24P0laAWupoqHKE7B2dexV/ex5SdczcJfgRuCmiHi0TETrZdVt/FVJq31uQOroN6M9W+bW7Ubgm8CvqinRZqPWNwVAR0TcDxwi6evAR6qjV+f+jsaCwMbV8cHOD6sxBZNJKzEOfr3LK4nZS6kG561FKjbXYaDwfDXg5bBf2l+A/yUtEOa/b9YVfVcAdETE48A3JB1OWtP7w6QR9f0wRWg0lquO1w/5+bPVY4ROQdApDm6JiOn1RrTSJL2cgc59nUGvq9GSpccb5EngBOBHntVjOfRtAdBRzZ3/PfB7SWuSHg3sB7ysaLD2WBTYqDoGmy3pTgaKgruBqdUxBXjAC5O0T/VJfmXSXbOJwCRgdQY6++XKpesZ1wE/An4REU+VDmO9q+8LgMEi4jbg09WAwXeT7gq8pmyq1hoHrFEdO8/jz5+XdC8DBcHUIccU4H4vblSfamfKwR37xCHHJGDZYgF723TgFNKn/b+VDmP9wQXAPFSjao8DjpO0CakQeC9p8R3rjgWBVapjfmZJuo85i4J7gEdIK51Nq14fAx7zp6U5SRoHTCDtPtl57RyvYO7O3Xe96ncncBRpNL/X6bBauQB4CRFxFfABSZ8i7RC2J2kt8X5aU6CUBRjooF6SpOcZKAjmKA6GHNOGfD0dmFEdM4EZJe88SBpP2hiq87oQqfjsdN5DO/P5/XwpPKaliaYBvwV+AVzsR2FWiguAYaoW2TgWOFbSCsAepGJgs5K5bA4LMjBYcUwkzWZQQTDkGPqzod/PYs7Oe/DX8/vZ4O+t90wHzgROBM70AFlrAhcAo1BNJTwCOELSWqRCYE/S827rDeOARarDbDRmAxeTOv1TImJa4Txmc/C0nDGKiFsi4rCIWBPYEvgB4LW4zfrXtcDBwKoR8aaI+Jk7f2si3wHoomojosslfZK0Belu1bFayVxmltVs0sZbp5EW6plcOI/ZsLgAyKAaQHZhdRwkaQMGioFNS2Yzs654FjgPOB34Q0Q8UDiP2Yi5AKhBRFxHWtzjK5Imkrbs3Q14Ix70ZdYWDwFnkDr9cyLimcJ5zMbEBUDNImIqad/uIyUtBbyFVAzshOdhmzXNZFKnfxpwiafsWS9xAVBQNbXwZODkatGWjYHtgO2BrfEmKWZ1uxc4v3NUBbtZT3IB0BDVJ4t/VMfhkhYGtiIVA9uRtkn14kNm3fU4cBGpwz8vIm4qG8esPi4AGqpaKOSi6viCpKWBbRgoCNYtFs6svaYDl1B1+MDfvd+E9SsXAC1RbV98enUgaUXgdcBrSXcKNsEDCs2GegS4jNTpXwpcFhHPlo1k1gwuAFoqIu4j7R52CkD1yGBTUjGwFakwWLFYQLP6zQZuJHX0lwCXRsTNZSP1pXtb0mbfcwHQI6pHBpdUBwCSVmXgDsFWwEb4d26943HSAjydDv/y6k6ZlXVVS9rse+4MelhE3AXcBfwKXtjvfcPq2Kh6XR9YolRGs2G6j7TEbue4BrjZ0/IayQVAS7gA6CPVs8/LqgMASSJtYrThkGPVEhmt780EbmLOzv7aiHioaCobiZuBZ0hbWHfDM1Wb1mUuAPpcRARwW3X8tvPzatZBpxjYAFgHWIsubLVrRnpefxdwC3ADA539TRExo2QwG5uImCXpROADXWryRM/UyENAZGj3PRFxUoZ2rTBJy5AKgaHHq4DFC0azZnqQ1MkPPm4Gbq/GrVgPkrQkafnz1cbY1L+ADSLiybFmsrn5DoCNSEQ8Rhp4dfngn1ePElZm7sLglcAkPM6glz0ITAFuZUhn70F5/SkinpS0D2lDtNFuOz8b2Medfz4uAKwrqkcJU6vjgqF/Xt05mFQdqwz6uvP9yngdgyZ6Erib1MFPGfR153VqRDxXLp41VURcLOkLwFcZeREwG/hCRFzc/WTW4UcA1gjVHYTlmbM4WB5Ydh7Hyxj9pwpLq+E9AjxM2uHu4UHHfQzq4P0J3sZK0huA4xj+44B/kT75u/PPzAWAtU61cdIyzLs46BwTSI8dlqxeB3/dC3cangGeIn1Cf2rI148yZ6c+x+Fbqla3akzAd4A9mf/sgGeAE4FP+T1aDxcA1nckjWfehUHndXFgPOkR2WiOccAs4PlhHjOHfD+D+XfuTwFPef67tZGkBYBXk5Yu36T68VXVcbNH+9fLBYCZmVkf8nNUMzOzPuQCwMzMrA+5ADAzM+tDLgDMzMz6kAsAMzOzPuQCwMzMrA+5ADAzM+tDLgDMzMz6kAsAMzOzPpSrAPAug2ZmZg2WqwBYNlO7ZmZm1gW5CoDlMrVrZmZmXeACwMzMrA/lKgBWztSumZmZdUGu7YAfBZaNiBxtm5mZ2RjlugPwMmCDTG2bmZnZGOVcB2CbjG2bmZnZGOQsALbN2LaZmZmNQa4xAAAzgEkR8WCm9s3MzGyUct4BWAjYL2P7ZmZmNko57wAA3AGs6dkA/UvS4qTHQWsAK83jWLJcOjOzop4E7p3HcTtwQUQ8nfPkuQsAgLdExJ8yn8MaRNJywK7A7sD2wCJlE5mZtc5zwHnA74HTI+Khbp+gjgLgSuA1vgvQ2yQtBBwAvBd4Ld5p0sysW2YDfwN+BRwdETO60WgdBQDA3hFxQg3nsZpJEvAe4KvA6oXjmJn1ujuBLwC/GusH67oKgHuAtSLimRrOZTWRtCPwTWDj0lnMzPrM1cBnI+Kc0TZQ123alYGDazqXZSZpoqRzgbNx529mVsLGwNmSzpU0cTQN1HUHAGA6sGVEXFPT+SwDSVsBpwIrlM5iZmYA3A+8IyIuHcm/VOdArYWBk6ppYdZCkvYBLsSdv5lZk6wAXFhdo4et7pHarwZ+WPM5bYwkLSDp28CxpELOzMyaZWHgWEnflrTAcP6FOh8BDLZnRPyywHlthKo30m+B3UpnMTOzYTkNeGdEzHqxf6jUXO2fSNqs0LltZL6FO38zszbZjXTtflGl7gAAPAhsFRF3FDq/vYTqedKxpXOYmdmo7BsRx83vD0sWAAC3AK+NiEcKZrB5qEb7X4if+ZuZtdV04E3zmx1QugAAuBTYLiKeLZzDKtWc0ivxaH8zs7a7H9g8IqYO/YMmrNe+FfBHSRNKB7EXHIM7fzOzXrAC6Zo+lybcAei4gbRz4JTSQfpZtbzv2aVzmJlZV+00dNngJhUAkPZBfmtEXFs6SD+qNvb5B17e18ys11wNbDp4A6EmPAIYbCXgL5J2KB2kT70Hd/5mZr1oY9I1/gVNuwPQMRP4wItNX7DukrQQMBlv6Wtm1qvuBNaOiBnQvDsAHeNJSxr+V+kgfeQA3PmbmfWy1UnXeqC5BUDHlyX9VNKCpYP0gfeWDmBmZtm9cK1v6iOAoc4C/j0iniodpBdJWo40V7SOgnAWcDNwVXXcV8M5zcyaaEVgk+p4NTCsTXzGaDawQkQ81JZP1m8BrpG0f0RcXDpMD9qV/J3/k8CngBMj4pnM5zIzaxVJiwF7At8Blsx4qnGka/7RTX8EMNgawEWSvl/9j7Lu2T1z+xcDG0TET935m5nNLSKeiYifAhuQrpk57Q7teQQw1O2A7wZ0gaTFgYeBRTKd4hvAFyJidqb2zcx6iqRxwFeBz2U6xXPAsm0tACDl/gHwOX+qHD1JuwCnZ2r+YtJGFO78zcxGoCoCLgTekOkUu7bpEcBQAv4DuFbS60uHabE1MrX7JLCPO38zs5Grrp37kK6lOazR5gKgY03gz5KO8NiAUVkpU7ufioh/ZWrbzKznVdfQT2VqfqVeKAAg3Q34BOluwNalw7RMjgJgFnBihnbNzPrNiaRrarf1TAHQ0bkbcKSk5UuHaYkcBcDNHpdhZjZ21bX05gxN91wBAGmO44eB2yV9TdKE0oEaLkcBcFWGNs3M+lWOa2q2AqAJMwsWBw4F7pB0iMcHzJcLADOzZmtVAfB50s5yTbAM8E3gNkkfljS+dKCGybHilJf3NTPrnhzX1CVzFQB3Aq8FLsrU/misCBwJTJa0ZzXH0szMrC9l6wQj4jFgJ+AXuc4xSq8kZbpG0q6lw5iZmZWQ9VNwRMyIiL2AL+c8zyitD5wm6RJJbywdxszMrE613AaPiMOA/YCZdZxvhLYCLpR0jqSdJKl0IDMzs9xqew4eEccCOwIP1HXOEdoB+BNws6RPSFq6dCAzM7Ncah0IFxEXARsC59V53hF6FXAEMLVaUGjd0oHMzMy6rfaR8BHxAGlw4OfJs7xhtyxBWlDoBknnS3q7pAVKhzIzM+uGIlPhImJ2RHwdeCMwpUSGEdoWOJW0qNBnJS1bOpCZmdlYFJ0LHxF/BTYC/lAyxwisAnwDmCLpGEmblg5kZmY2GguWDhARjwK7SvoEqXNdtHCk4VgE2BfYV9JlwA+AUyPiuaKp+lz1iGYdYBJwXUTcUziSWW0Gvf/XpgHX9h7zPGl125siosmPrkekMW+SiPiepDOAn5BuubfFltXxpKTTgV8DZ0fE9LKx+oOklYBPA1sAGwOLDfqz+4ErgXOBI3vpL64ZvPj737J4RtLVwBXAtyPi3tKBxqJRy+FGxO0RsR2wP/BY6TwjtCSwJ3Aa8ICk4yTtLGmhwrl6lqS9gRuATwKvY+6L3wrALsD3gcsk/b96E5rlM4z3v3XfYqT/158kDRDfu3CeMWlUAdAREceQbmWdXDrLKC0N7A2cQSoGjpH0Fm9E1B2Slq3uthwHDHe7582Af0g6OF8ys/xG+f637psAHCfp9LYODG9kAQBpumBE7EH6BNeGmQLzM4E0XuCPwP2Sjq5WHGzM45cW+jnpfTFSCwPfkrRnl/OY1Wm073/LYxfS76R1GlsAdETEGcD/Iw20e75wnLF6Genxxp9IxcBPJG3v9QWGr7rlNtaL3/clrdCNPGZ16tL737pvlzY+Dmh8AQAQEU9GxH8AGwBnls7TJS8HPkAaoHafpB9L2qBwpkarBjx9rwtNvQw4qgvtmNWmi+9/y+N71e+oNVpRAHRExE0R8TbSuv3Xls7TRcsBBwJXSzpB0uqlAzXUp+neM89dJW3RpbbM6tDN97913wTS76g1WlUAdETEecAmwAHAfYXjdNM44H3AZEnf9aOBuXS7w3YBYG3i92vztep31MoCAF5YTvjnpM17vgw8UzhSNy0EHAT8T+kgTVEVQxt3udnNutyeWRaZ3v/WfRu36YNbawuAjoh4OiIOA9YCfgrMLBypmz4pab/SIRpiHbo/z9kFgLVFjve/dd9ipN9VK7S+AOiIiHsi4oPAmsCRQK+sxPdjP6sG0vK+bWjTLAe/V9ujNb+rnikAOiLi7oj4KPBK4Aja/2hgIeDjpUM0wHUtadMsB79X26M1v6ueKwA6IuLeiPgksDpwOPBU4UhjsXO/LxxUbexzf5eb/XuX2zPLItP737rv/jZtQtazBUBHRDwYEYcAqwJfBR4vHGk0lgG2KR2iAbrdYV/Z5fbMcnLB2nyt+h31fAHQERGPRsR/AasAnwBuKRxppN5aOkADnN/FtqYDf+lie2a5dfP9b3m06nfUNwVAR0Q8ERHfJ+2Z/WbSyoJRNtWwzC4doAF+CFzVpbYOi4g27zFh/aeb73/rvqtIv6PW6LsCoCOSs6uVBV8FfJdmPx7opQWPRiUingf2AWaMsanLgW+PPZFZfbr4/rfumwHsU/2OWqNvC4DBIuL2iPhPYGXgw6Q9tpum7wsAgIj4J/DFMTTxLLBvRMzqUiSz2nTh/W95fLH63bSKC4BBqkWFfhwR6wHbAr+gOdMIXQBUIuJbpCWTHx3hv3o5sElETO5+KrN6jOH9b933KPC+6nfSOi4A5iMiLoyIvYDlSVv4/plyYwWmApcUOncjRcSJpG2iTx/GPz4d+CzwOnf+1gtG+P63PE4H/l/1u2ilvp5bPhwR8RRwDHCMpNWAvatjjRpj/E9E+LnfEBFxP7BbtVLiFqSlfTcjrcR1HWlKzpXAXzzgz3rNi7z/1wZasx59S8wCJpOuKX8HroiIK8pGGjuR51PteyLipAztNoak15EG5Pw7sHTGUz0ArB4Rz+ZoXJJ//2ZmDSZpD+BX3W7XjwBGKSL+Vu09sCLwbuA3wNNdPs0zwHtzdf5mZta/XACMUUQ8GxG/joh/B5YFdgeOB6aNselngF0i4oKxZjQzMxvKBUAXRcRzEXFaROwDvIK00NBPgAdH2NR1wE7u/M3MLBcXAJlExMxqoaEDSY8JtgG+D7zYYLQbgT2AjSLirzXENDOzPuVZADWIiNnAxdXxCUkTSasPrkla4vcmYHJEeF6vmZnVwgVAARExlTS3/8LSWczMrD/5EYCZmVkfcgFgZmbWh1wAmJmZ9SEXAJZjJUC/r8zMuifHNTV8obaHM7S5doY2zcz6VY5r6sMuACzHNsObZGjTzKxf5bim3ucCwO7N0KYLADOz7slxTb3XBYDluAOwoqSVMrRrZtZXqmvpihma9h0Ay1IAAHwtU7tmZv0k17XUBYAxNVO7+0raJVPbZmY9r7qG7pup+akuACzncsQ/kfTyjO2bmfWk6tr5k4ynuNAFQJ+LiMnA7ZmaXwE4XdLqmdo3M+s51TXzdNI1NIfbI2KyCwADODNj268FrpP0oYznMDPrCdW18jrStTOXM8ErtlmSswAAWAL4kaTzJO0laR1Jfu+ZWd+TNK66Ju4l6TzgR6RrZk5nAog8S8G+JyJOytCuZSBpYdKKgLnfdIM9BVxFvlkIZmZNtyJpjn/d195lI2L6gjWe1BoqIqZLOhXYu8bTLgG8ocbzmZkZnBoR08GPAGzAV4FZpUOYmVk2s0jXesAFgFUi4lbg+NI5zMwsm+Oraz3gAsDm9BVgZukQZmbWdTNJ1/gXuACwF0TEncCxpXOYmVnXHVtd41/gAsCG+grweOkQZmbWNY8z5NM/uACwISJiCnBA6RxmZtY1B1TX9jm4ALC5RMRvgR+UzmFmZmP2g+qaPhcXADY/nwauLB3CzMxG7UrStXyeXADYPEXEDODdwLTSWczMbMSmAe+uruXzNA54LsOJF8vQppmZmXXJOOCxDO0ul6FNq5GkhYCTgQmls5iZ2YhNAE6uruXz5ALA5ufbwOalQ5iZ2ahtTrqWz5MLAJuLpHcCHy+dw8zMxuzj1TV9LrkKgDUytGk1kDQJOLp0DjMz65qjq2v7HMaRZ5T35pIWzdCu5fdfwNKlQ5iZWdcsTbq2z2EcMNfqQF2wELBlhnYtI0mrA/uWzmFmZl23b3WNf8E44KpMJ9smU7uWz38B40uHMDOzrhvPkLsAAl4J3J7hZJdFxFYZ2rUMJL0KuAlYoHQWMzPLYhawTkTcCjAuIu4gzziALSWtn6Fdy+MLuPM3M+tlC5Cu9QAoIpB0AfCmDCf7v4j4WIZ2rYskLQw8DCxR42mfIj1+uq/Gc5qZNcmKwCbUf+1dNiKmL1j94CryFAB7STokIp7O0LZ1zzbU8wY8HzgO+Dtwc0TMruGcZmaNJWkc8GpgM2AfYLvMp1yCdM0/p7MZ0F8ynWgpYO9MbVv37Jy5/aeAD0fE9hFxQkTc5M7fzAwiYnZ1TTwhIrYHPky6Zua0Mww8AlgEeIg8nwIfAF4VEU9maNu6QNJt5Fu86RLgfRFxZ6b2zcx6SjVd7xfAazOd4vaIWHMc/P/27jzWrqqK4/h3AVKpGpWAFCwoiFBDopYyqExiBByLQFRKTVAIoIiI8zwREkCpaBAQ41CMWDQKheLclAoiBpAiSACRQYFaBaXSMBRpf/6xz9PH63uPd+/d+5x77v19kvdPgbUXPTv7rLfPOWuDpMeAnxYaaCvgk4ViW48iYhblbv6rgLm++ZuZTV21Zs4lraElvCgiZm006g9+VGgggA+MbUBgfaPEux8jjpX0z4LxzcwGUrV2HltwiP1HFwA/BR4tNNA0YEGh2NabmYXiLpS0pFBsM7OBV62hCwuFn/m/AqB6U//nhQYCOCQi/EJg/9m6UNxPFYprZjZMSq2lW2805g8WFhpoxNlVxznrHyUKgL9JWlkgrpnZUKnW0hL9UjYoAJYANxcYaMQzgUUR4X7z/WObAjFLnS9hZjaMSqyp2zypAJAk4PQCA43mVEAaAAALS0lEQVQ2Bzi18Bg2dSV2AFwAmJnlU2JN3WAHAGAR8JcCg432oYg4pvAYNjVbFIh5a4GYZmbDqsSausUGBYCkJ6jnjf1zI+LgGsaxyUWBmO7yZ2aWT4k1NcbbAQD4JqkzYEkbk94H2KvwOGZmZjbGuAWApEeBz9Yw/mbApRGxSw1jmZmZWWWiHQCAbwDX1JDD5sAVEbF3DWOZmZkZkxQA1Wlt76Ge57mbA7+KiLfWMJaZmdnQm2wHAEnXA+fUlMvTgR9ExIdrGs/MzGxoTVoAVD5NOtK3DgF8KSLOipjwBUUzMzPr0VPeZCX9GziphlxGOwG4OCKm1zyumZnZUJjSb9mSLgS+UziXseYCl0fE82oe18zMbOB1ss3+XuCmUolMYA/g6ojYqeZxzczMBtomU/0XJT1avaV/HelQn7rsQCoCDpO0vMZxrSUiYg9Ssbhb9bMtcCNprl4LXCnpnuYyNCtnnPk/i9RozfJZR2rHe131c42kOj6TLyrS+T8d/AcR84Dvl0lnUuuBs4BPSnqkgfEHUkR0NgGmZl712KioiJgBnEd6XDSZtcDngDMkrSudl1kdOpj/VsalwHGSVpUeKCIOJ53Tk1XHb9pLWgR8PXciU7AR8H7gD24aZBExn3R09VQWv2nAacBVETGraGJmNehw/lsZc4Gbq2vRSt1+ancSsDxjHp3YEfh1RHzFXwkMp4j4KPA9UgOpTuwJXO8iwNqsh/lv+W0OfK+6Jq3TVQEgaS1wMM2d++7dgCFVnRtxcg8hNgMWRoSfkVrrZJj/VsbJbTzTputmO5IeAl4P3J4vnY55N2CIVDfthaQt/V7sCbjjpLVKxvlv+U2jhb9Y9NRtT9I/gAOBlXnS6Yp3A4bH8aS3nHP4QkRsmymWWR1yzn/LbzfSNWqNntvtSrobOAh4sOdseuPdgMF3QMZY04B9MsYzKy3n/LcyWnWNsvTbl/RH4I3AQzni9WBkN+CmiJgXEdFwPpbX7n0ez6wkz9f+16prlO3AHUlXA68G/pErZg92IPUqWBERb2w6GetdRDwfmJE5rLdTrRUKzX/Lb0Z1rVoh64l7klYAewN354zbg5cBl0XElRHh7d52e2lLYpqV4LnaHq25VtmP3JV0O6kIuDl37B7sDVwRET+JiJc3nYx1pUQrX7cHtrbwXG2P1lyr7AUAgKT7gH2B35WI34M3kBrBLIqIHZtOxjpyC5C7BfR1meOZlVJi/lt+j5CuVSsUKQAAJP0LeC3w81JjdCmAw4FbIuK8Nj2vGWZVD/8VmcO6ALBWKDT/Lb8VbTpvpFgBACDpYeBNwOklx+nSJsCxwO0R8cWIcFvN/pf79K3Wn+ZlQ8Xztf+16hoVLQAgVa6SPg4cBqwpPV4XNgM+AtxZFQLbN52QTegMYHWmWJcOwnGeNlRyzn/LbzXpGrVG8QJghKSLSGdW31rXmB16NqkQ+HNEXBYRr3Mfgf4iaSWpz0Ov/gUclyGOWW0yzn8r4/3VNWqN2goAAEm3koqAi+sct0MbkZoa/Qz4U0R8MCKe23BOVpH0XWBJj2FOrOMMb7PcMs1/y29JdW1apdYCAEDSGkmHAp8Anqh7/A7tCCwA7o2Ib0bE7KYTMgCOortFcC3wMUkXZM7HrE7dzn8rYwnpmrRO7QXACEmnAXsBtzWVQwemA0eTPiG8KiKOiIhNm05qWEl6QNJc4Eim/kz0OmCOpC+Wy8ysvC7nv+W3GjhS0lxJDzSdTDcaKwAAqpewZgNnA2oylw68CrgA+GtEnBIRM5tOaFhVW267AGcCV7Hhd9KrSNX5icArJPVTcyqznkxh/lt+j5D+rs8Edmnjtv9oIfXHfTciDgS+DbTtu/x1wCXAecAySf3+WONJIqLEBJgn6cICcSdVncX9EmBb4MaqIZXZUBg1/2eRPnO2fJ4gvcB+SxPf+UfE4cCi7HH7pQAAqF62O4fUqKeNHgAuAn4ILG9DQ4hBKgDMzAZRqQKg0UcAY0l6UNI8YB79capgp7YgNRdaCqyMiHMjYv+I6Ku/ZzMzs768MVW/Pe4MfI20xd5GzwPeDSwjFQNnR8R+LgbMzKwf9O3NSNJqSe8DdgeubjqfHm0FHA8sB+6LiLMiYh8XA2Zm1pS+vwFJWkH6XPAo4P6G08lhBnACcAVwT0R8NSL2ctdBMzOrU98XAABKvkN6LHAOsL7hlHLZhvSJ2m9IxcAZETGj4ZzMzGwItKIAGFG9JPheYA79d8xwr54PfAi4IyJOdfthMzMrqVUFwAhJN0h6PbAf8Num88lsOvBx0umERzSdjJmZDaZWFgAjJF0haS/gzcCNTeeT2XOAhRGxT9OJmJnZ4Gl1ATBC0mWklsLvAO5sOJ2cngb8OCJe0HQiZmY2WAaiAACQtL465W0W6ZO7uxpOKZctgcUFvxJYUyDm1gVimpkNqxJr6pqBKQBGSPqPpHNJR/keSvrcru1eDuxZKPbKAjF3LRDTzGxYlVhTVw5cATCi2hG4WNJ+pL+884HHG06rF28pFNcFgJlZf3MB0C1JKyS9E9gO+ALtPGegTQXAzhExvUBcM7OhUq2lOxcIPRwFwAhJf5f0eVIh8C7ghmYz6sjOEVHiqOQSBcDGwPwCcc3Mhs180pqa23AVACMkrZW0UNJsYH9gMe3oLvhIgZglCgCABRHxwkKxzcwGXrWGLigUfjgLgNEkLZd0CPBi4CvAQw2nNJHHJT1YIO4dBWICPAs43wcemZl1rlo7zyetpSXc4cW5IulOSR8AZgInUe7G2K1S7y0sAx4rFHtf4BQXAWZmU1etmaeQ1tASHgOWeWEeQ9IaSV8FdiK9eLcUWNdsVgDcVyKopIdJ/4+lfAK43I8DzMyeWrVWXk5aO0tZKulhFwATqD4jvETSAaSDek4gndqnhlL6dsHYiwvGhlTF3hgRx/jrADOzDUXE9Ig4htTWvtRv/iMWA4TU1P2snSJiJvBW4O2Ua84z1n3ADpKK9DGIiC2BVdTTGXIdcBtwffXztxrGNDPrR1uTvvHflfSpX4m3/cdaD8yQdL8LgB5UWzVvr35mFxzqRElnFYxPRFwJ7F1yDDMza9xvJO0DA3QWQBMk3S3pdEm7kt4Z+Axwc+ZhvgucnTnmeL5fwxhmZtas/6313gEoICJ24f87Azv1EOpC4B2Sir+EGBGbArcC25cey8zMGnEXMGvkcbILgMIiYjapEHgbU7+5riY1fzhN0hOlchsrIo4ALqhrPDMzq9V8Sd4BaEJE7AEcDhwCvHDMPxbwV9KW/5clra43O6iOHP49Zd9nMDOz+q0A5mjUTd8FQEMi4pmkI4u3A+4BbpNUotVvRyLiQOAXTedhZmZZHSTpl6P/wAWAbSAifgW8tuk8zMwsi6VVT5sncQFgG6h6HVwLzGg6FzMz68kqYHdJ9479B/4M0DZQTZRDgbVN52JmZl1bCxw63s0fXADYBCRdDRzXdB5mZta146q1fFwuAGxCks6n3FnUZmZWzoJqDZ+Q3wGwSUXExsCPgYObzsXMzKbkEuCwp2oi5x0Am1Q1gQ7DOwFmZm2wgCnc/ME7ANaBiDgSOA+Y1nQuZmb2JGtJz/wn3fYfzQWAdSQiXglchD8RNDPrF6tIb/tP+MLfePwIwDpSTbDdgaVN52JmZiwlfeff0c0fXABYFyTdW3WVOojUX9rMzOq1gtTe94CJvvN/Ki4ArGtVX+k5wHzSMZNmZlbWXaQ1d87Y3v6d8jsAlkVEbAocDRwBvAoXl2ZmuawHrgIWAd+S9HiOoC4ALLuI2BKYC7yFdKjQ05vNyMysdR4jPd9fDFwq6f7cA7gAsKIi4hnAa4AXAduM8/Os5rIzM2vUGmDlOD93AMskPVxy8P8CGtd5/6p3d+wAAAAASUVORK5CYII=;fontSize=20;" vertex="1" parent="1">
          <mxGeometry x="960" y="277.51" width="80" height="80" as="geometry" />
        </mxCell>
        <mxCell id="iPHKZAZRWa_BI_mhg364-32" style="edgeStyle=orthogonalEdgeStyle;rounded=0;orthogonalLoop=1;jettySize=auto;html=1;exitX=1;exitY=0.5;exitDx=0;exitDy=0;" edge="1" parent="1" source="iPHKZAZRWa_BI_mhg364-13" target="iPHKZAZRWa_BI_mhg364-7">
          <mxGeometry relative="1" as="geometry" />
        </mxCell>
        <mxCell id="iPHKZAZRWa_BI_mhg364-34" style="edgeStyle=orthogonalEdgeStyle;rounded=0;orthogonalLoop=1;jettySize=auto;html=1;exitX=0.5;exitY=0;exitDx=0;exitDy=0;" edge="1" parent="1" source="iPHKZAZRWa_BI_mhg364-2" target="iPHKZAZRWa_BI_mhg364-9">
          <mxGeometry relative="1" as="geometry" />
        </mxCell>
        <mxCell id="iPHKZAZRWa_BI_mhg364-35" value="&lt;font style=&quot;font-size: 20px;&quot;&gt;&lt;b&gt;5.&lt;/b&gt; Get Encryption Key to decrypt&lt;/font&gt;" style="edgeLabel;html=1;align=center;verticalAlign=middle;resizable=0;points=[];labelBorderColor=#66FF66;" vertex="1" connectable="0" parent="iPHKZAZRWa_BI_mhg364-34">
          <mxGeometry x="-0.1933" y="-2" relative="1" as="geometry">
            <mxPoint as="offset" />
          </mxGeometry>
        </mxCell>
        <mxCell id="iPHKZAZRWa_BI_mhg364-2" value="HashiCorp Vault" style="shape=image;verticalLabelPosition=bottom;labelBackgroundColor=default;verticalAlign=top;aspect=fixed;imageAspect=0;image=data:image/png,iVBORw0KGgoAAAANSUhEUgAACWAAAAjcCAQAAABtOxxfAAAABGdBTUEAALGPC/xhBQAAACBjSFJNAAB6JgAAgIQAAPoAAACA6AAAdTAAAOpgAAA6mAAAF3CculE8AAAAAmJLR0QA/4ePzL8AAAAJcEhZcwAADiwAAA4sAfmb7hAAAAAHdElNRQfiAgcWNSNoshf2AACAAElEQVR42uz9eaBed13vfX+SdKZlpswy7KRNaUvLVMDTAvdRVEAcEEXwqNz3o8+ZPPdz9Dm3FiioiKIgFlEmQVAZZZZ5OAodgM5T0jbT7kAn6Eybtmmmff8RQ5I2wx6u6/r+1lqvF/8otNnvdX2z917rd313sijvyn8NAAAAALTpXYvy6KzLIdUdAAAAALAb92TZ4tyQd1R3AAAAAMBuvT3XLUry4EznodUtAAAAAHAft2cqty5OcnveWt0CAAAAAPfz57k1WZQkOThr8rjqHgAAAADYyQ1ZmruTJUmSzdmQl1QXAQAAAMBOfj/fTbZvYCX757IsrW4CAAAAgH93ZZZnY7J9AyvZmlvyS9VVAAAAAPDv/lsu3vZ/LPrRf7Uo5+dp1V0AAAAAkOSSPC1bt/2fi3/0X87klOouAAAAAEiSnLz9+GrnDawk+WZeUN0GAAAAwOCdkeft+H92PcB6dr57n/8GAAAAACbtP+Q7O/6fxbv8T2fni9V1AAAAAAzc53c+vsr99q2OycX3OdQCAAAAgMnZmqdv//sHt7nvYdXKfLS6EQAAAIAB+/Cux1fZzZ949cSsyoHVnQAAAAAM0sYclSt2/a/u/+OCV+X91Z0AAAAADNR773t8ld3+nYOHZ10Oq24FAAAAYHDuytJ8/77/5e7+wPYb847qVgAAAAAG6K/uf3y1+w2s5EGZzsOqewEAAAAYlNsyldvu/18v2e0/fG+SF1YXAwAAADAob8i/7e6/XrSHf/ygrMnjq5sBAAAAGIzrsyx37+5/WLKHf2Fz7spLq6sBAAAAGIzfy9m7/x8W7fFfWZKVWV7dDQAAAMAgrMnR2bz7/2nJHv+lmdycl1eXAwAAADAI/zUr9/Q/LdrLv7Yo5+Xp1e0AAAAA9N75eVZm9vQ/Lt7LvziT11W3AwAAADAAr9nz8dXeN7CS5F/zH6v7AQAAAOi10/P8vf3P+zrAOiFn7fOfAQAAAID5+/F8d2//8+J9/Ovn5PPVVwAAAABAj31m78dX+97ASpZnRfarvg4AAAAAemlLnprL9v6P7GsDK1mVj1RfBwAAAAA99U/7Or6azQZW8oSszoHV1wIAAABA72zM8ly5r39o3xtYydV5b/W1AAAAANBD79z38dXsNrCSR2Q6h1VfDwAAAAC9sj5TuXHf/9hsNrCSm/L26usBAAAAoGfeNpvjq9luYCWHZV0Or74mAAAAAHrj5kzljtn8g0tm+QtuzEx+qvqqAAAAAOiN1+W02f2Ds93ASg7Kmjy++roAAAAA6IXv5YjcO7t/dLYbWMnm3Jmfq74yAAAAAHrhd3PebP/R2W9gJUuyIkdVXxsAAAAAnbc6x2TzbP/h2f0thNtsyRuqrw0AAACAHnjN7I+v5raBlSzKd/Ps6usDAAAAoNPOzbMzM/t/fC4bWMlMXl99fQAAAAB03Gvmcnw11wOs5Bv51+orBAAAAKDDvj7X86W5/QhhkjwrZ8/j3wIAAACAZCbPzdlz+1fmuoGVnJvPVl8nAAAAAB31qbkeX81nAys5MiuzX/W1AgAAANA5W3JsLp/rvzT3DaxkdT5Ufa0AAAAAdNAH5n58Nb8NrOSxWZuDq68XAAAAgE7ZkCNyzdz/tflsYCXX5T3V1wsAAABAx/ztfI6v5ruBlTw803lg9TUDAAAA0Bk/zFRumc+/OL8NrOTmnFp9zQAAAAB0yF/O7/hq/htYyaFZl0dWXzcAAAAAnXBTpnLn/P7VJfP+oBuzOT9TfeUAAAAAdMJrcsZ8/9X5b2AlB2RVnlR97QAAAAA076osz73z/Zfnv4GVbMkd+fnqqwcAAACgef93Lpj/v7yQDaxkSS7JU6qvHwAAAICmrcxx2Tr/f32+fwvhNlvy+urrBwAAAKBxr1vI8dVCN7CS5Dt5bvVrAAAAAECzzslzMrOQX2BhG1hJcnL1awAAAABAw05e2PHVKA6wTs83ql8FAAAAABr1lXxzob/Ewn+EMHlGzh3JrwMAAABAv8zkmQv5+we3WfgGVnJ+Pl39WgAAAADQoI8v/PhqNBtYyRG5NPsVvxwAAAAAtGVzjsnqhf8yo9jAStbkH2pfDQAAAACa8/5RHF+NagMreUzW5eDClwMAAACAttyTI3LtKH6h0WxgJdfnXYUvBwAAAACt+evRHF+NbgMreVim86CilwMAAACAttyeqdw6ml9qVBtYyS15W9HLAQAAAEBr/mJUx1ej3MBKDs26PLLg5QAAAACgLTdkWe4a1S+2ZIRhG7MxLyp4QQAAAABoyx/kO6P7xUa5gZUckMvz5Am/HAAAAAC05cosz8bR/XKj3MBKtuT2/OKEXxAAAAAA2vI7uWiUv9xoN7CSxbkgx03u1QAAAACgMStyfLaO8hcc7QZWMpMb8qsTfEEAAAAAaMv/lTWj/QVHvYGVJN/Oj0/kxQAAAACgNWfmpFH/kovHkHnyBF4KAAAAAFp0yuh/yXEcYJ2Rr479pQAAAACgPV/IaaP/RcfxI4TJU3PhWI7GAAAAAGjX1jxjtH//4DbjOWa6JJ8c76sBAAAAQHM+Oo7jq3FtYCXLcmn2H9+rAQAAAEBjNuWoTI/jFx7XD/qtzQfH+HIAAAAA0Jr3juf4anwbWMljsjaHjO1XBwAAAKAld2Vpvj+eX3p8f9T69fnbsf3aAAAAALTl7eM6vhrnBlby4FyRh4zx1wcAAACgDbdlKreN6xcf3wZWcnveNsZfHQAAAIBWvHl8x1fj3cBKHpB1edRYPwIAAAAA1a7Pstw9vl9+yVjjN2VDXjzWjwAAAABAtf+Vs8b5y493AyvZP5dnaswfAwAAAIA6a3N0No3zA4x3AyvZmlvzsjF/DAAAAADq/LesGO8HGPcGVrI45+f4sX8UAAAAACpcnKdn63g/xLg3sJKZXJ9Xjv2jAAAAAFDh1Vk37g8x/g2sJPlWnj+RjwMAAADAJJ0+iVOfyRxgnZgzJvJxAAAAAJikH893x/9BFk/kUs7MlyfycQAAAACYnM9N4vhqUhtYybG5aEKHZQAAAABMwpYcl0sn8YEmdai0Ih+f0EcCAAAAYBI+NJnjq8ltYCVPyqocMLGPBgAAAMA4bcxRuWIyH2pyP9Z3Zf5+Yh8LAAAAgPF696SOrya5gZU8OmvzgAl+PAAAAADGY32W5geT+mCT/IPVb8jfTPCjAQAAADAub5vc8dVkN7CSB2c6D53oRwQAAABg1G7OVO6Y3IdbMtGL25DF+cmJfkQAAAAARu2UnDbJDzfZDazk4KzJ4yb8MQEAAAAYneuyLPdM8gNOdgMr2ZwNecmEPyYAAAAAo/O7OXeyH3DSG1jJ/rksSyf+UQEAAAAYhTU5Opsn+yEnvYGVbM3N+aWJf1QAAAAARuE/59JJf8jJb2Ali3J+nlbwcQEAAABYmPNyQmYm/UEXF1zoTE4p+KgAAAAALNTJkz++qtnASpJv5gVFHxkAAACA+fnfeWHFh606wHp2vlv2sQEAAACYu5n8eM6q+MAVP0KYJGfni0UfGQAAAID5+HTN8VXdBlZyTC4uOz4DAAAAYG625NhcXvOh646QVuajZR8bAAAAgLn5h6rjq8oNrOSJWZUDCz8+AAAAALOzIUfme1UfvPKH+K7K+wo/OgAAAACz9c6646vaDazkEZnOYaUFAAAAAOzLnVmaG+s+fO0fo35T3lH68QEAAADYt7dWHl9Vb2AlD8p0HlbcAAAAAMCe3ZSp3FkZsKT4Bbg3M3lhcQMAAAAAe/banFEbUL2BlRyUNXl8dQQAAAAAu3V1jsy9tQnVG1jJ5tyVl1ZHAAAAALBb/zPnVyfUb2AlS7Iyy6sjAAAAALifVTk2m6sj6jewkpncnJdXRwAAAABwP7+Vy6sT2tjAShbl3DyjOgIAAACAXZyT52SmOiJZXB2QJJnJ66oTAAAAALiP17RwfNXKAVbytfxbdQIAAAAAO/lqK+c1bfwIYZKckLMaqgEAAAAYtpk8MxdUR2zTygZWck4+X50AAAAAwL/7RCvHVy1tYCXLsyL7VUcAAAAAkC05JquqI7ZrZwMrWZWPVCcAAAAAkOT97RxftbWBlTwhq3NgdQQAAADAwG3IslxbHbFDSxtYydV5b3UCAAAAwOC9o6Xjq9Y2sJJHZDqHVUcAAAAADNgPM5VbqiN21tYGVnJTTq1OAAAAABi0t7R1fNXeBlZyaKZzeHUEAAAAwEDdmKW5szpiV0uqA+5nY2byU9URAAAAAAP1+/l2dcJ9tbeBlRyU1fmx6ggAAACAAboqR2ZjdcR9tbeBlWzOnfm56ggAAACAAfqdXFSdcH8tbmAlS7IiR1VHAAAAAAzMihyfrdUR99fiBlYykx/kV6ojAAAAAAbmt7K6OmF32tzAShblu3l2dQQAAADAgHw7J1Yn7N7i6oA9mMnrqxMAAAAABuWU6oA9afUAK/lG/rU6AQAAAGAwvpRvVSfsSas/Qpgkz8w5TfcBAAAA9MXWPDMXVkfsSbsbWMl5+Wx1AgAAAMAgfKzd46u2N7CSI7My+1VHAAAAAPTcphyV6eqIPWt5AytZnQ9VJwAAAAD03vtaPr5qfQMreWzW5uDqCAAAAIAeuyfLcl11xN60vYGVXJf3VCcAAAAA9NqpbR9ftb+BlTw803lgdQQAAABAT92eqdxaHbF3rW9gJTfn1OoEAAAAgN56c+vHV13YwEoOzbo8sjoCAAAAoIduyNLcXR2xL0uqA2ZhYzbnZ6ojAAAAAHro/8lZ1Qn71oUNrOSArMqTqiMAAAAAemZtjs6m6oh968IGVrIld+TnqyMAAAAAeua/55LqhNnoxgZWsiQX5+jqCAAAAIAeuSRPy9bqiNnoxgZWMpMb8orqCAAAAIAeeXXWVifMTlc2sJLkO3ludQIAAABAT5yR51UnzNbi6oA5OLk6AAAAAKA3OnTS0qUDrNPzjeoEAAAAgF74l3ynOmH2uvQjhMkzcm7HigEAAADaszVPz8XVEbPXpQ2s5Px8qjoBAAAAoPM+3KXjq65tYCVH5NLsVx0BAAAA0GEbc1SuqI6Yi25tYCVr8g/VCQAAAACd9p5uHV91bwMreUzW5pDqCAAAAICOWp+l+UF1xNx0bQMruT7vrk4AAAAA6KxTu3Z81cUNrOQhmc5DqiMAAAAAOuiWTOWH1RFz1b0NrOS2nFqdAAAAANBJb+7e8VU3N7CSB2Q6j6yOAAAAAOiY67Is91RHzN2S6oB52ZSNeVF1BAAAAEDH/F7OqU6Yj25uYCUH5PI8uToCAAAAoEPW5Ohsro6Yj25uYCVbcnt+sToCAAAAoEP+S1ZWJ8xPVzewksW5IMdVRwAAAAB0xPl5VmaqI+anqxtYyUxuyK9WRwAAAAB0xKszXZ0wX93dwEqSb+fHqxMAAAAAOuC0vKA6Yf66fYB1Uk6vTgAAAADogOfmrOqE+VtcHbAgZ+Sr1QkAAAAAzftMl4+vur6BlTw1F3b8EA4AAABgvLbkqbmsOmIhun74c0k+WZ0AAAAA0LR/7PbxVfc3sJJluTT7V0cAAAAANGpjlufK6oiF6foGVrI2H6hOAAAAAGjWO7t+fNWHDazk0VmXQ6ojAAAAABq0PlO5sTpiobq/gZXckL+tTgAAAABo0l92//iqHxtYyYMznYdWRwAAAAA05uZM5Y7qiIVbUh0wEhuyX36iOgIAAACgMa/N6dUJo9CPDazk4KzNY6sjAAAAABpydY7MvdURo9CPDaxkc+7Ni6sjAAAAABryuzm/OmE0+rKBleyfyzNVHQEAAADQiNU5JpurI0ajLxtYydbcmpdVRwAAAAA04rdzWXXCqPRnAytZnPNzfHUEAAAAQAPOzbMzUx0xKv3ZwEpmcl1eVR0BAAAA0IDfyJXVCaPTpw2sJPlWnl+dAAAAAFDs6/np6oRR6tsB1ok5ozoBAAAAoNRMnpuzqyNGaXF1wIidmS9XJwAAAACU+mS/jq/6t4GVHJuLencsBwAAADBbW3JsLq+OGK3+HfWsyMerEwAAAADKfKBvx1d93MBKnpRVOaA6AgAAAKDAhhyRa6ojRq1/G1jJlfn76gQAAACAEn/Tv+Orfm5gJY/O2jygOgIAAABgwn6YqdxSHTF6fdzASm7IO6oTAAAAACburX08vurrBlby4EznodURAAAAABN0U6ZyZ3XEOCypDhiTDVmcn6yOAAAAAJigk3NmdcJ49HUDKzk4a/K46ggAAACACbkqy3NvdcR49HUDK9mce/Kz1REAAAAAE/I/cmF1wrj0dwMr2S8rc2R1BAAAAMAErMxx2VodMS793cBKtuaW/FJ1BAAAAMAE/FZWVyeMT583sJJFOT9Pq44AAAAAGLOz89zMVEeMT583sJLkmvxadQIAAADAmP16rqpOGKfF1QFj9uV8szoBAAAAYKy+nG9VJ4xXv3+EMElOyFkDuEoAAABgqGbyjP7+/YPb9H0DKzknX6xOAAAAABibj/f9+GoIG1jJMbl4AAd1AAAAwBBtylOyrjpi3IZwsLMyH61OAAAAABiL9/f/+GoYG1jJE7MqB1ZHAAAAAIzYPTki11ZHjN8QNrCSq/K+6gQAAACAkfvrIRxfDWUDK3lEpnNYdQQAAADACN2eqdxaHTEJw9jASm7KO6oTAAAAAEbqL4ZxfDWcDazkQZnOw6ojAAAAAEbkhizN3dURk7GkOmBi7s1MXlgdAQAAADAiv5/vVidMynA2sJKDsiaPr44AAAAAGIErszwbqyMmZTgbWMnm3JWXVkcAAAAAjMB/z8XVCZMzpA2sZElW5KjqCAAAAIAFuiRPy9bqiMkZ0gZWMpOb8svVEQAAAAAL9H9mbXXCJA1rAytZlHPzjOoIAAAAgAU4MydVJ0zWsDawkuTq/KfqBAAAAIAFeFWuqU6YrMXVARP3tfxbdQIAAADAvH0h365OmLSh/QhhkpyQswZ53QAAAED3bc0zclF1xKQNbwMrOSf/Up0AAAAAMC8fGd7x1TA3sJIjszL7VUcAAAAAzNGmHJXp6ojJG+IGVrI6H6lOAAAAAJiz9w7x+GqoG1jJE7I6B1ZHAAAAAMzBXVma71dHVBjmBlZydd5bnQAAAAAwJ6cO8/hquBtYySMyncOqIwAAAABm6bZM5bbqiBpD3cBKbsqp1QkAAAAAs/ZnQz2+GvIGVnJopnN4dQQAAADALFyfZbm7OqLKkuqAQhszk5+qjgAAAACYhf9/zq5OqDPkDazkoKzOj1VHAAAAAOzDmhydzdURdYa8gZVszp35ueoIAAAAgH34r1lZnVBp2BtYyZKsyFHVEQAAAAB7cXGenq3VEZWGvYGVzOQH+ZXqCAAAAIC9+M2sq06oNfQNrGRRvpPnVEcAAAAA7MHpeX51QrWhb2AlydX5jeoEAAAAgD14Za6tTqi2uDqgAf87/1qdAAAAALBbn813qxPq+RHCJHlmzvFKAAAAAM3ZkuNyaXVEPRtYSXJePludAAAAAHA/H3J8ldjA2u7IrMx+1REAAAAAO9mYo3JFdUQLbGBtszr/VJ0AAAAAsIt3Ob7axgbWdo/N2hxcHQEAAADw79ZnaX5QHdEGG1jbXZf3VCcAAAAA/MjbHF9tZwNrh4dnOg+sjgAAAABIcnOmckd1RCuWVAc05O4cmBdURwAAAAAkOSWnVSe0wwbWzg7NujyyOgIAAAAYvOuyLPdUR7TDBtbONmZzfqY6AgAAABi8/5lzqxNaYgNrVwdkVZ5UHQEAAAAM2uock83VES2xgbWrLbkjP18dAQAAAAzaf86l1QltsYF1X0tycY6ujgAAAAAG69w8OzPVEW2xgXVfM7khr6iOAAAAAAbrN3NFdUJrbGDtznfy3OoEAAAAYJC+kZ+qTmiPA6zdeV5Oq04AAAAABmgmz83Z1RHtWVwd0KTT8/XqBAAAAGCAPu34andsYO3eM3Ku1wYAAACYqC05NpdXR7TIBtbunZ9PVScAAAAAA/NBx1e7Z8toT47IpdmvOgIAAAAYjA05ItdUR7TJBtaerMk/VCcAAAAAA/JOx1d7YgNrzx6TtTmkOgIAAAAYhDuzNDdWR7TKBtaeXZ93VScAAAAAA/FWx1d7ZgNrbx6S6TykOgIAAADovZsylTurI9q1pDqgaRtyQP6P6ggAAACg916TM6oTWmYDa+8ekHV5VHUEAAAA0GtX58jcWx3RMhtYe7cpG/Oi6ggAAACg1/5/uaA6oW02sPblgFyeJ1dHAAAAAL21MsdnS3VE22xg7cuW3J5frI4AAAAAeuu3s6o6oXU2sPZtcS7IcdURAAAAQC+dk+dkpjqidTaw9m0mN+RXqyMAAACAXvr1XFmd0D4bWLPz7fx4dQIAAADQO1/Ji6sTusAB1uyclNOrEwAAAICemckz/f2Ds7G4OqAjzshXqxMAAACAnvlnx1ezYwNrtp6aCx33AQAAACOzOcf6+wdnx5HMbF2ST1QnAAAAAD3y946vZssG1uwty6XZvzoCAAAA6IUNWZZrqyO6wgbW7K3NB6oTAAAAgJ74a8dXs2cDay4enXU5pDoCAAAA6LzbM5VbqyO6wwbWXNyQv61OAAAAAHrgLY6v5sIG1tw8ONN5aHUEAAAA0Gk3ZFnuqo7okiXVAR2zIfvlJ6ojAAAAgE47Od+pTugWG1hzdXDW5rHVEQAAAEBnXZnl2Vgd0S02sOZqc+7Ni6sjAAAAgM76nVxUndA1NrDmbv9cnqnqCAAAAKCTVuT4bK2O6BobWHO3NbfkZdURAAAAQCf9f7KmOqF7bGDNx+Kcn+OrIwAAAIDOOTMnVSd0kQ2s+ZjJdXlVdQQAAADQOb+Rq6sTumhxdUBHfTGnVScAAAAAHeM8YZ78COF8nZgzqhMAAACADtmaZ/j7B+fHBtZ8nZkvVScAAAAAHfJRx1fzZQNr/o7NRQ4AAQAAgFnZlKMyXR3RVQ5g5m9FPl6dAAAAAHTE3zm+mj8bWAvxpKzKAdURAAAAQPPuybJcVx3RXTawFuLK/H11AgAAANABpzq+WggbWAvz6KzNA6ojAAAAgKbdnqncWh3RZTawFuaGvKM6AQAAAGjcmx1fLYwNrIV6cKbz0OoIAAAAoFnXZ1nuro7otiXVAZ23IYvyk9URAAAAQLP+V86qTug6G1gLd3DW5HHVEQAAAECT1ubobKqO6DobWAu3OffkZ6sjAAAAgCb991xSndB9NrBGYb+szJHVEQAAAEBzLs7Ts7U6ovtsYI3C1tySX6qOAAAAAJrz6qyrTugDG1ijsSjn5enVEQAAAEBTzsjzqhP6wQbWqFyTX6tOAAAAAJryqlxTndAPi6sDeuMr+WZ1AgAAANCQz+U71Ql94UcIR+eEnOX1BAAAAJIkW/P0XFwd0Rc2sEbnnHyxOgEAAABoxIccX42OjaFROiYXOxIEAAAAsjFH5YrqiP5w3DJKK/OR6gQAAACgAe9xfDVKNrBG64lZlQOrIwAAAIBS67M0P6iO6BMbWKN1Vd5XnQAAAAAU+yvHV6NlA2vUHpHpHFYdAQAAAJS5OVO5ozqiX2xgjdpNeUd1AgAAAFDozY6vRs0G1ug9KNN5WHUEAAAAUOK6LMs91RF9s6Q6oIfuzUxeWB0BAAAAlPi9nFOd0D82sMbhoKzJ46sjAAAAgIlbk6OzuTqif2xgjcPmrM9LqyMAAACAifvPubQ6oY9sYI3HkqzIUdURAAAAwESdlxMyUx3RRzawxmMmN+WXqyMAAACAifrNXFGd0E82sMZlUc7KCdURAAAAwMSclhdUJ/SVDazxuSb/qToBAAAAmJhX5trqhL5aXB3QY1/Lv1UnAAAAABPy6ZxVndBffoRwnJ6Vs73CAAAAMABb8tRcVh3RXzawxunc/Et1AgAAADAB/+D4apzsB43XkVmZ/aojAAAAgLHakCPzveqIPrOBNV6r85HqBAAAAGDM3uX4arxsYI3bE7I6B1ZHAAAAAGOzPlO5sTqi32xgjdvVeU91AgAAADBGb3V8NW42sMbv4bkih1VHAAAAAGNxc6ZyR3VE3y2pDhiAu3NQnl8dAQAAAIzFa3N6dUL/2cCahEMzncOrIwAAAICRuzpH5t7qiP6zgTUJG7M1P10dAQAAAIzc/8z51QlDYANrMg7K6vxYdQQAAAAwUqtzTDZXRwyBDazJ2Jw783PVEQAAAMBI/XYuq04YBhtYk7IkK3JUdQQAAAAwMufkOZmpjhgGG1iTMpMf5FeqIwAAAICR+Y1cWZ0wFDawJmdRvpPnVEcAAAAAI/G1/Ex1wnA4wJqk5+db1QkAAADACMzkWf7+wclZXB0wKKflX6sTAAAAgBH4hOOrSbKBNVnPzDlecwAAAOi4LTkmq6ojhsQG1mSdl89UJwAAAAAL9PeOrybLNtCkHZFLs191BAAAADBvG3JErqmOGBYbWJO2Jv9UnQAAAAAswDscX02aDazJe2zW5uDqCAAAAGBefpip3FIdMTQ2sCbvurynOgEAAACYp7c6vpo8G1gVHp7pPLA6AgAAAJizG7M0d1ZHDM+S6oBBujsH5gXVEQAAAMCc/UHOrE4YIhtYNQ7NujyyOgIAAACYk6uyPPdWRwyRDawaG7M5P1MdAQAAAMzJ/8iF1QnDZAOrygG5PE+ujgAAAABmbUWOz9bqiGGygVVlS+7IL1RHAAAAALP2W1ldnTBUNrDqLMnFObo6AgAAAJiVs/PczFRHDJUNrDozuSGvqI4AAAAAZuXXc1V1wnDZwKr1nTy3OgEAAADYpy/lZ6sThswBVq3n5bTqBAAAAGAfZvIMf/9gpcXVAQN3er5enQAAAADsw8ccX9WygVXtGTnXFAAAAKBhm/KUrKuOGDYbWNXOz6eqEwAAAIC9eJ/jq2p2f+odkUuzX3UEAAAAsFv3ZFmuq44YOhtY9dbkg9UJAAAAwB683fFVPRtYLXhM1uaQ6ggAAADgfm7PVG6tjsAGVguuz7uqEwAAAIDd+HPHVy2wgdWGh2Q6D6mOAAAAAHZxQ5bm7uoIkiXVASRJNmT//MfqCAAAAGAXv5/vVieQ2MBqxwOyLo+qjgAAAAB+5Mosz8bqCBIbWO3YlI15UXUEAAAA8CP/LRdXJ7CNDax27J9VeXJ1BAAAAJAkuSRPy9bqCLaxgdWOrbk9v1gdAQAAACRJ/s+srU5gOxtYLVmcC3JcdQQAAACQM/K86gR2sIHVkplcn1dWRwAAAAB5Va6pTmCHxdUB7OLz+U51AgAAAAye5/PG+BHC1pyU06sTAAAAYNC25un+/sG22MBqzRn5anUCAAAADNqHHV+1xgZWe56aCx0sAgAAQJFNWZ4rqiPYlYOS9lyST1QnAAAAwGC9x/FVe2xgtWhZLs3+1REAAAAwQHdlab5fHcF92cBq0dp8oDoBAAAABumvHF+1yAZWmx6ddTmkOgIAAAAG5rZM5bbqCO7PBlabbsjfVCcAAADA4PyZ46s22cBq1YMznYdWRwAAAMCAXJ9lubs6gt1ZUh3AHmzIfvmJ6ggAAAAYkN/L2dUJ7J4NrHYdnLV5bHUEAAAADMSaHJ3N1RHsng2sdm3OhrykOgIAAAAG4r9mZXUCe2IDq2X75/JMVUcAAADAAJyfZ2WmOoI9sYHVsq25JS+rjgAAAIABeHWmqxPYMxtYbVuc83N8dQQAAAD03Ol5fnUCe2MDq20zuS6vqo4AAACAnntlrq1OYG8WVwewD1/Mt6oTAAAAoNc+k+9WJ7B3foSwfSfmjOoEAAAA6K0teWouq45g72xgte/MfKk6AQAAAHrrnxxftc8GVhccm4scNQIAAMAYbMzyXFkdwb44FumCFfl4dQIAAAD00jsdX3WBDaxueFJW5YDqCAAAAOiZ9ZnKjdUR7JsNrG64Mu+vTgAAAIDeeZvjq26wgdUVj87aPKA6AgAAAHrk5kzljuoIZmNJdQCztD6H5qTqCAAAAOiR1+W06gRmxwZWdzw403lodQQAAAD0xPdyRO6tjmB2bGB1x4Ysyk9WRwAAAEBP/G7Oq05gtmxgdclBWZvHVUcAAABAD6zOMdlcHcFs2cDqks25Jz9bHQEAAAA98P/NZdUJzJ4NrG7ZLyuyvDoCAAAAOu7cPDsz1RHMng2sbtmaW/Ly6ggAAADouN/MFdUJzIUNrK5ZlPPy9OoIAAAA6LCv56erE5gbG1jdc01+rToBAAAAOmsm/ynXVUcwN4urA5izr+Sb1QkAAADQWZ/K2dUJzJUfIeyiE3KWyQEAAMA8bMmxubw6grmygdVF5+QL1QkAAADQSR9wfNVF9ni66Zhc7PARAAAA5mhDjsg11RHMnUOQblqZj1QnAAAAQOf8reOrbrKB1VVPzKocWB0BAAAAHXJnlubG6gjmwwZWV12V91UnAAAAQKe8xfFVV9nA6q5HZDqHVUcAAABAR9yUqdxZHcH8LKkOYN7uziF5XnUEAAAAdMRrckZ1AvNlA6vLHpTpPKw6AgAAADrgqizPvdURzJcNrC67NzN5YXUEAAAAdMD/nQuqE5g/G1jddlDW5PHVEQAAANC4lTk+W6ojmD8bWN22Oevz0uoIAAAAaNxvZ1V1AgthA6vrlmRFjqqOAAAAgIadk+dkpjqChbCB1XUzuSm/XB0BAAAADfv1XFmdwMLYwOq+Rflunl0dAQAAAI36Sl5cncBC2cDqg+/l16sTAAAAoEkz+dXcUB3BQi2uDmAEvp5/q04AAACAJn08F1QnsHB+hLAfnpWzzRIAAADuY3OOyerqCBbOBlY/nJt/qU4AAACA5rzf8VU/2NrpiyOzMvtVRwAAAEBD7skRubY6glGwgdUXq/Ph6gQAAABoyl87vuoLG1j98YSszoHVEQAAANCI2zOVW6sjGA0bWP1xdd5TnQAAAADNeIvjq/6wgdUnD890HlgdAQAAAA24IctyV3UEo7KkOoARujsH5/nVEQAAANCAP8h3qhMYHRtY/XJopnN4dQQAAAAUuzLLs7E6gtGxgdUvG7M1P10dAQAAAMV+JxdVJzBKNrD65qCszo9VRwAAAEChFTk+W6sjGCUbWH2zOXfm56ojAAAAoND/lTXVCYyWDaz+WZJL8pTqCAAAAChyZk6qTmDUbGD1z0x+kF+pjgAAAIAiv5GrqxMYNRtYfbQo38lzqiMAAACgwBf8wTp95ACrn56fb1UnAAAAwMRtzTP8/YN9tLg6gLE4Lf9anQAAAAAT91HHV/1kA6uvnplzTBcAAIBB2ZSjMl0dwTjYwOqr8/KZ6gQAAACYqPc6vuorOzr9dUQuzX7VEQAAADAhd2Vpvl8dwXjYwOqvNfmn6gQAAACYmLc7vuovG1h99tiszcHVEQAAADABt2Uqt1VHMC42sPrsury7OgEAAAAm4s2Or/rMBla/PTzTeWB1BAAAAIzZ9VmWu6sjGJ8l1QGM1d05MC+ojgAAAIAx+185qzqBcbKB1XeHZl0eWR0BAAAAY7Q2R2dTdQTjZAOr7zZmU36mOgIAAADG6L9lRXUC42UDq/8OyOV5cnUEAAAAjMnFeXq2VkcwXjaw+m9L7sgvVEcAAADAmLw666oTGDcbWEOwJBfn6OoIAAAAGIPT8/zqBMbPBtYQzOSGvKI6AgAAAMbglbm2OoHxW1wdwER8Nt+tTgAAAICR+5zn3WHwI4RD8bycVp0AAAAAI7Ulx+XS6ggmwQbWUJyer1cnAAAAwEh9yPHVUNjAGo7jcoEDSwAAAHpjY47KFdURTIYDjeG4OJ+uTgAAAICRebfjq+GwgTUkR+TS7FcdAQAAACOwPkvzg+oIJsUG1pCsyQerEwAAAGAk3ub4akhsYA3LY7I2h1RHAAAAwALdnKncUR3B5NjAGpbr867qBAAAAFiwNzu+GhYbWEPzkEznIdURAAAAsADXZVnuqY5gkpZUBzBhG7J//mN1BAAAACzA7+bc6gQmywbW8Dwg6/Ko6ggAAACYpzU5OpurI5gsG1jDsykb86LqCAAAAJin/5xLqxOYNBtYQ7R/Ls9UdQQAAADMw3k5ITPVEUyaDawh2prb8ovVEQAAADAPv5ErqhOYPBtYw7Q4F+S46ggAAACYo9PyguoEKtjAGqaZXJ9XVkcAAADAnMzklbm2OoIKi6sDKPL5fKc6AQAAAObk0zmrOoEafoRwuE7K6dUJAAAAMGtbcmwur46ghg2s4TojX6lOAAAAgFn7B8dXw2UDa8iemgsdYQIAANAJG3JkvlcdQRXHF0N2ST5RnQAAAACz8k7HV0NmA2vYnpRVOaA6AgAAAPZhfaZyY3UEdWxgDduV+WB1AgAAAOzTWx1fDZsNrKF7dNblkOoIAAAA2IubMpU7qyOotKQ6gGLr88CcWB0BAAAAe/HanFGdQC0bWDw403lodQQAAADswdU5MvdWR1DLBhYbsl9+ojoCAAAA9uB/5vzqBKrZwCI5OGvz2OoIAAAA2I1VOTabqyOoZgOLZHM25CXVEQAAALAbv5XLqxOoZwOLJNk/l2eqOgIAAADu45w8JzPVEdSzgUWSbM0teVl1BAAAANzHb+TK6gRaYAOLbRbnvDytOgIAAAB28tW8qDqBNtjAYpuZXJtXVUcAAADAj8zkV3NDdQRtWFwdQDO+lG9VJwAAAMCPfCIXVCfQCj9CyA4n5ozqBAAAAEiSbMkxWVUdQStsYLHDmflSdQIAAAAkSd7v+IodbGCxs2NzkUNNAAAAym3IslxbHUE7HFawsxX5WHUCAAAA5B2Or9iZDSx29cSszgHVEQAAAAzaDzOVW6ojaIkNLHZ1Vd5fnQAAAMDAvcXxFbuygcV9PTpr84DqCAAAAAbrxizNndURtGVJdQDNWZ9Dc1J1BAAAAIP1BzmzOoHW2MDi/h6c6Ty0OgIAAIBBuipHZmN1BK2xgcX9bcii/GR1BAAAAIP0O7moOoH22MBidw7K2jyuOgIAAIDBWZHjs7U6gvbYwGJ3Nuee/Gx1BAAAAIPzW1ldnUCLbGCxe/tlRZZXRwAAADAo386J1Qm0yQYWu7c1t+Tl1REAAAAMym/mquoE2mQDiz1ZlPPy9OoIAAAABuNL/jAb9sQGFnt2TX6tOgEAAICB2JpX5vvVEbRqcXUADftKvlmdAAAAwEB8LBdWJ9AuP0LI3pyQs/weAQAAYOw25ahMV0fQLhtY7M05+UJ1AgAAAAPwPsdX7I3tGvbumFzkT0oDAABgrO7JslxXHUHLbGCxdyvz0eoEAAAAeu5Ux1fsnQ0s9uWJWZUDqyMAAADordszlVurI2ibDSz25ar8XXUCAAAAPfbnjq/YFxtY7NsjMp3DqiMAAADopRuyNHdXR9A6fzw3+3Z3DsnzqiMAAADopf8nZ1Un0D4bWMzGgzKdh1VHAAAA0Dtrc3Q2VUfQPhtYzMa92Zqfqo4AAACgd34nl1Qn0AU2sJidg7Imj6+OAAAAoFcuydOytTqCLrCBxexszvq8tDoCAACAXnl11lYn0A02sJitJVmRo6ojAAAA6I0z/IVhzJYNLGZrJjfll6sjAAAA6I1X5ZrqBLrCBhaztyjfzbOrIwAAAOiFf8kvVCfQHTawmIvv5derEwAAAOiBrXllflAdQXcsrg6gU76ef6tOAAAAoAc+nIurE+gSP0LI3DwrZ/tdAwAAwIJszFG5ojqCLrGBxdycm89VJwAAANBx73F8xdzYpWGujszK7FcdAQAAQGfdlSl//hVzYwOLuVqdD1cnAAAA0GF/5fiKubKBxdw9IatzYHUEAAAAnXRbpnJbdQRdYwOLubs676lOAGBPZmb9HyqYRkt8tgAU+VPHV8ydDSzm4+GZzgOrIwDYYWEP2G4Hxmk+szGRcfLZAlDs+izNPdURdI8NLObj5pxanQBAkhHth9gyGb2F7e7Y/BkHny0AjfhDx1fMhzeRmJ9DM53DqyMAhmx8D9BuDhZmHJMxk4Xx2QLQkDU5OpurI+giG1jMz/r8RXUCwFCNe//Dfsl8je+VM5P589kC0JjXOb5ifrxtxHwdlNX5seoIgKGZ7KOy24TZm9RkzGT2fLYANOj8PMvJP/NjA4v52pA/rk4AGJbJb3rYLZmdSb5ONn5mx2cLQKNe48sl8+XNIuZvSS7JU6ojAIah9l7P7cKeVM7FVPbEZwtAs07LC6oT6C4bWMzflryhOgFgCOo3O+oL2lT7qpjJ7tT/Xq0vAGjYydUBdJk3iViY7+Y51QkAfdbWo7Dbhh1amYyZ7KyVqSQmA7Abn8kvVSfQZb63sjDPz7eqEwD6q6XH8W3cOCTtzcVUkvamYi4A97ElT81l1RF0mR8hZGFOy/+uTgDopzZ/EKnNqkm/Bq1pr2jyr0CLr0GbVQBl/tHxFQvjrSEW6pk5x+8jgFFr+8F3uF/2W56LqbRpuHMB2MXGLM+V1RF0mw0sFuq8fKY6AaBf2t/baL1vmNfddt1wr7v9z2eAiXin4ysWyptCLNwRuTT7VUcA9EV3HnaHdhPRjckMayrdmEkytLkA3M/6TOXG6gi6zgYWC7cm/1SdANAX3Xkg71brwq+1K1fblc6hXWuXWgHG4C8dX7Fw3g5iFB6btTm4OgKg+7r3kDuMG4muzcVU2jSMuQDsxs2Zyh3VEXSfDSxG4bq8uzoBoPu690Dezeb+X2P3iodxjV1sBhiJP3V8xSh4K4jReHim88DqCIDu6vKjbb9vJro6GVNpU7/nArBbV+fI3FsdQR/YwGI0bs7bqhMAuqu7j+Pdr+/rtXW3vN/X1uV2gHn6I8dXjIa3gRiVQ7Muj6yOAOiiPjzS9vOGouuTMZU29XMuAHuwOsdkc3UE/WADi1FZnzdXJwB0Ufcfx/tzFX27pu5fQT+vqQ/XADBrr3F8xah4C4jROSCX58nVEQBd05+H2X7dVPRlLqbSpn7NBWCPzs2ze/TFm2I2sBidjfmT6gSArunTPZ1raVF/rsS1AHTQyb7gMTre/mGUluTiHF0dAdAd/bun68eNRd/mYipt6sdcAPbi6/np6gT6xAYWo7Qlp1QnAHRH/x7I+3FNfbiG/l1RH65hCNcEsJOZvKE6gX5xgMVofS7frU4A6Ia+Prz29bpg9Hy2AL32yZxdnUC/2F1m1J6X06oTALqgv4+u3b656OtcTKVN3Z4LwF5sybG5vDqCfrGBxaidnq9XJwC0r78P5N2+ti639/fKutw+5GsDBu4Djq8YNW/7MHrH5QJHowB70/+H1m7eYPR9LqbSpm7OBWCvNuSIXFMdQd84ZmD0Ls6nqhMAWtb/B3IAYND+xvEVo+ctH8ZhWS7LftURAK0axgFW924xhjAXU2lT9+YCsFc/zFRuqY6gf2xgMQ5r88HqBIBWDeOBvHvX2bXeYVxl13pdJ0CS5C8dXzEO3vBhPB6TtTmkOgKgRcN5VO3WTcZQ5mIqberWXAD26qZM5c7qCPrIBhbjcX3eVZ0A0KLhPJB361q71DqcK+1Sq2sF+JE3Or5iPLzdw7g8JNN5SHUEQFuG9pDanduMIU3GVNrUnbkA7NVVWZ57qyPoJxtYjMtt+avqBABqdeUAoiudw7rarnS6XoBdvMHxFePizR7G5wFZl0dVRwC0Y4gPqN240RjaZEylTd2YC8Bercxx2VodQV/ZwGJ87sqfVicAUKsLhxBdaBzeFXeh0TUD3M9rHV8xPt7qYZz2z+WZqo4AaMNQH07bv9UY4mRMpU3tzwVgr87Jcwb6BZyJsIHFOG3KH1cnAFCr9fvY1vuGedWt97lugN062RcyxskbPYzX4lyQ46ojAFow3Du6tm82hjoXU2lT23MB2Ksv5yXVCfSbDSzGa2veUJ0A0ILhPpC3fe0tt7nyITIXoLNmckp1An3nAItx+3y+XZ0AAHSHQxyADvp4LqxOoO/sKTN+J+aM6gSAWkN/IG/3dmPIkzGVNrU7F4C92JSnZF11BH1nA4vxOzNfqU4AoFKrBxKtdg376lvtcv0Ae/F+x1eMnzd5mISn5kKHpcCQeSRt84Zj6HMxlTa1OReAvbgnR+Ta6gj6z6ECk3BJPlGdAFDHAzkA0GN/7fiKSfAWD5PxpKzKAdURADUcYCUt3nKYi6m0qr25AOzF7ZnKrdURDIENLCbjynygOgEAAIAR+wvHV0yGN3iYlEdnXQ6pjgCoYKckafGWw1xMpVXtzQVgj27I0txdHcEw2MBiUm7I31QnAFTwQE67/O5sk7kAHfInjq+YFG/wMDkPznQeWh0BMGkeRbdr66bDXLYxlTa1NReAPboyy7OxOoKhsIHF5Nyev6xOAAAAYERe5/iKyfH2DpN0cNbmsdURAJNlp2S7tm46zGUbU2lTW3MB2IMVOT5bqyMYDhtYTNI9+bPqBIDJ8kAOAPTUyY6vmCRv7zBZ++fyTFVHAEyOA6wdWrrpMJcdzKVNLc0FYLfOzEnVCQyLDSwma1P+sDoBgBoOJ9g7v0MAOuXk6gCGxps7TNrinJenVUcATIpH8p21c9thLjuYSpvamQvAbn0hP1edwNDYwGLStub11QkAAADM29a8oTqB4XGAxeR9Kd+qTgAAAGCePpKLqhMYHtvJVDgxZ1QnAEyGH4raWTu3Heayg6m0qZ25ANzPphyV6eoIhscGFhXOzBerEwAAAJiH9zq+ooI3d6hxbC5yfAoMgZ2SnbVz22EuO5hKm9qZC8B93JWl+X51BEPkCIEaK/Kx6gSA8fNADgD0zKmOr6jhzR2qPDGrc0B1BMB4OcDaVTu3HSazg6m0qZ25AOzitkzltuoIhskGFlWuyvurEwAAAJiDNzu+ooo3d6hzeNblsOoIgHGyUbKrdm47TGYHU2lVO5MB+JHrsyx3V0cwVDawqHNj/qY6AQCgRY6vgCb9keMr6vjeSKUH5Yo8tDoCYHxslOyqndsOk9nBVNrUzlwAfmRtnpLN1REMlw0sKv0wb6lOAAAAYBZOcXxFJW/uUOugrM3jqiMAxsdOyc7aue0wlx1MpU3tzAXg312cp2drdQRDZgOLWhvypuoEAAAA9uH3HV9Ry5s7VNsvK7K8OgJgXOyU7Kyd2w5z2cFU2tTOXACSJKfn+dUJDJ0NLKptzh9XJwAAALAXJ1cHgDd3qLco5+Xp1REA42GnZGft3HaYyw6m0qZ25gKQ5LN5WXUC+N5IC16UL1cnAIyHR/KdtXPbYS47mEqb2pkLQLbkuFxaHQF+hJAWfCXfrE4AAABgNz7k+IoWeHOHNpyQs/xuBPrITsnO2vlCby47tDMVc9lZS3MBBm5jjsoV1RFgA4tWnJMvVCcAMF4tPZC31FLLK9EmcwEa8i7HV7TBd0dacUwuypLqCIDRs1OyXVs3Heayjam0qa25AIO2Pkvzg+oISGxg0Y6V+Uh1AgAAADt5m+MrWuHtHdrxhKzOgdURAKNmp2S7tm46zGUbU2lTW3MBBuzmTOWO6gjYxgYW7bg6f1edAADUcWwD0Jg/c3xFO9wn0JJHZDqHVUcAjJqtkqTFWw5zMZVWtTcXYKCuy7LcUx0B29nAoiU35a+rEwAAAEjyBsdXtMQbPLTlsKzL4dURAKNlpyRp8ZbDXEylVe3NBRik1Tkmm6sjYAcbWLTlzry1OgGA0WvxgbzFJq9Ai00AA/Vax1e0xV0CrTkoa/L46giA0bJV0uYNx9DnYiptanMuwOCclxN8SaYtNrBozYb8SXUCAADAoJ3s+IrWeIuH9izJihxVHQEwSkO/A2z3dmPIkzGVVrU7GWBAvpGfqk6A+7KBRXu25A+rEwBGywMpMDu+WgANmMnrqxPg/hxg0aJP5ezqBAAAgEH6tOcxWuRNHtr0U/ladQLAaA33x6LavtkY6lxMpU1tzwUYiC05NpdXR8D92cCiTV/Pv1UnAAAADM4HHV/RJm/z0Kpn5Wy/P4E+GepOSftfyoc4GVNpVfuTAXpvQ47INdURsDs2sGjVuflcdQLAKHkwBfbOVwmgAe90fEWrfJ+kXUdmZfarjgAYnSHulHTjRmNokzGVVnVjMkCv3ZmlubE6AnbPBhbtWp0PVycAjJKHU2DPfIUAGvBWx1e0y3dKWvaErM6B1REAozO0nZLu3GYMaTKm0qruTAborZsylTurI2BPbGDRsqvz7uoEgFHygArsnq8OQAPe5PiKlvleSdsenuk8sDoCYHSGtFPSrZuMoUzGVNrUrbkAPXV1jsy91RGwZzawaNvNObU6AWCUPKYCAE16g+Mr2uY+mtYdmukcXh0BMErD2Crp3i3GEOZiKm3q3lyAHro0x2VLdQTsjQ0sWrc+f16dAMBcdfGBvIvN/b/CLjYDdNLrHF/ROncFtO+grM6PVUcAjFL/t0q6eYPR97mYSpu6ORegZ87JcwbwBZeOs4FF+zbkj6sTAEar7w+sXb2+rnb3++q62u36gE452fEV7fM9ky5YkkvylOoIgFHq811it28u+joZU2lVtycD9MRX86LqBNg3G1h0wZa8oToBYLQ8tAK+EgBNmMnrqhNgNhxg0Q2fzlnVCQCj1dcH165fV9f7+3lVXe8f2nUBHfPPuaA6AWbD90264vn5VnUCwKj17wej+nFj0be5mEqb+jEXoPM259isqo6A2bCBRVeclv9dnQAwan17gO3L9fTlOvp1NX25jr5eD9BZf+/4iq7wvZPueGbO8TsW6Js+bZX060t0XyZjKq3q12SAztqQZbm2OgJmxwYW3XFePlOdADBqHmJb1Y/J9OMq+ng9/bkSoOP+2vEV3eG7J11yRC7NftURAKPWj62SPt5SdH0yfZxJ96eS9HUyQAf9ME/OrdURMFs2sOiSNfnH6gSA0evDw2wfrmEoV0U1v6+AZrzF8RVd4jso3fLYrM3B1REAo9ftrZI+3050dTJ9nkl3p5L0fTJAp9yQZbmrOgJmzwYW3XJd3l2dADAOXX6o7XJ7X6+um9VDuL7ulgM99CbHV3SL76J0zcMznQdWRwCMQxe3SoZxI9G1yZhKq4YxGaAjrsqR2VgdAXNhA4uuuTlvq04AGI9FnXu87VrvMK6zW7XDuc7ufX4DPXeK4yu6xndSuufQrMsjqyMAxqU7eyXDuonoylxMpU3DmgvQAStyfLZWR8Dc2MCie9bnzdUJAOPTlQfdrnQO63q7UTm86+1KJzAgr3F8Rff4fkoXHZDL8+TqCIDxaX2vZLi3Dy1PxlRaNdzJAM36dk6sToC5s4FFF23MG6sTAMap7T8tp+W24V57u2XDvva2P5eBwTqlOgDmw/dUumlJLs7R1REA49XmXolbh/YmYyZJe1NJTAZo1Bfz0uoEmA8bWHTTFu8aAP3X3u5Ge0U12noV2qqp09rr4LMFaNTWvL46AebHARZd9bl8tzoBYPzaeQT2OL6zVl6NVjra0M6r0U4JwP18LBdVJ8D8+O5Kdz0vp1UnAExG/Q9HuWHYvcrJmMmeVH++mAzQsE05KtPVETA/NrDortPzteoEgMmo3eewTbJnVa+NmexN5atjMkDj/s7xFd3leyxddlwucAgLDMnkN0vcKMzOJCdjJrM16c8XkwGad0+W5brqCJgvD/902cX5VHUCwCQtmuB+xyQ/VvdN5tUyk7nx2QJwH6c6vqLLfK+l25bl0uxfHQEweePdLXF7MH/jmoyZLMQ4P19MBuiM2zOVW6sjYP5sYNFta/MP1QkAFca18WGTZKEWjfg1HPWvN0zjeQ1NBuiYNzu+ott816XrHpO1OaQ6AqDWwvdL3BCMy/xnYybj4bMFGKgbsjR3V0fAQtjAouuuzzurEwCqzX9Lx37PuC2a02u8aI7/PHM331fYZICO+2PHV3Sd78F030MynYdURwC0addtE9/2Ye+2fcb4TAF6Z22OzqbqCFgYG1h03235q+oEgFYtstMDc+AzBeip1zu+ovt8h6YPHpB1eVR1BAAAQIMuydOytToCFmpJdQCMwKbcmxdXRwAAADTo1VlbnQALZwOLftg/l2eqOgIAAKAxZ+R51QkwCjaw6IetuS2/WB0BAADQmFflmuoEGAUbWPTF4pyf46sjAAAAGvIv+YXqBBgNG1j0xUyuzyurIwAAAJqxNa/MD6ojYDQWVwfAyHwh365OAAAAaMaHcnF1AoyKHyGkT07MGdUJAAAATdiYo3JFdQSMig0s+uTMfKU6AQAAoAnvcXxFn9jAol+emgsdywIAAIO3Pkv9+Vf0iUd9+uWS/HN1AgAAQLm/cnxFv9jAom+elFU5oDoCAACg0M2Zyh3VETBKNrDomyvzgeoEAACAUm92fEXf2MCifx6ddTmkOgIAAKDIdVmWe6ojYLSWVAfAyK3PA3NidQQAAECR38s51Qkwajaw6KMHZzoPrY4AAAAosCZHZ3N1BIyaDSz6aEOW5CeqIwAAAAr8l6ysToDRs4FFPx2ctXlsdQQAAMCEnZcTMlMdAaNnA4t+2pwNeUl1BAAAwIT9Zq6oToBxsIFFX+2fy7K0OgIAAGCCTssLqhNgPGxg0Vdbc0t+qToCAABggl6Za6sTYDxsYNFfi3NenlYdAQAAMCGfzsurE2BcbGDRXzO5Nq+qjgAAAJiILfmV3FQdAeOyuDoAxuhL+VZ1AgAAwET8Yy6rToDx8SOE9NuJOaM6AQAAYOw25Mh8rzoCxscGFv12Zr5YnQAAADB273J8Rb/ZwKLvjs1FDmoBAIBeW5+p3FgdAePkwZ6+W5GPVScAAACM1VsdX9F3NrDovydmdQ6ojgAAABiTmzOVO6ojYLxsYNF/V+V91QkAAABj8ybHV/SfDSyG4PCsy2HVEQAAAGNwdY7MvdURMG5LqgNgAu7KoTmpOgIAAGAMfjfnVyfA+NnAYhgelOk8rDoCAABgxFbnmGyujoDxs4HFMNyb5IXVEQAAACP227msOgEmwQYWQ3FQ1uZx1REAAAAjdG6enZnqCJgEG1gMxebcnZ+tjgAAABih38iV1QkwGTawGI4lWZnl1REAAAAj8rX8THUCTIoNLIZjJrfk5dURAAAAIzGTX80N1REwKYurA2CC/jkXVCcAAACMxCdzfnUCTI4NLIble/lP1QkAAAALtiWvyM3VETA5NrAYlq/mm9UJAAAAC/b3ubw6ASbJH+LO0JyQs/y+BwAAOm1Djsg11REwSTawGJpz8oXqBAAAgAX5G8dXDI1NFIbnmFzkT38DAAA664eZyi3VETBZNrAYnpX5SHUCAADAvL3V8RXDYwOLIXpCVufA6ggAAIB5uDFLc2d1BEyaH6RiiH6Yw/Ps6ggAAIB5+IOcWZ0Ak2cDi2F6RKZzWHUEAADAHF2V5bm3OgImzwYWw3R3Ds7zqyMAAADm6H/kwuoEqGADi6E6LOtyeHUEwHjM7ON/9+2/hrkAsGArc1y2VkdABX8LIUN1Z95anQAwSjM7/Wcu/+y+/2kWYr5zYfxm5vQfgEa81vEVQ+WtPobroKzJ46sjABZqdA/WbgpGaVRzMZXRW+hszAQodHae60ydobKBxXBtyBurEwAWYtR7IfZMRmO0r6OpjM6odqnMBCh0si9ADJe3kBiyJVmRo6ojAOZu/PeubhDmY9xzMZX5Gt9kzASYqC/nJdUJUMcGFkO2JX9YnQAwV5PZ/bBhMjeT2cmx+TN3437NzASYoJmcUp0AlRxgMWyfytnVCQCzNelHZQ/mszPp18lcZmtyr5SZABPxsVxYnQCV7D0zdD+Vr1UnAOxb5eOxm4U9M5dW1UzGTIAx2pSnZF11BFSygcXQfT3/Wp0AsC+12x22S3av+nWp/vjtqntlzAQYo/c7vmLovFEEz8rZPhOAdrXzQOxL5c7MpU1tzMVMgJG7J0fk2uoIqGUDC87N56oTAHavrX2OtmoqtfVKtNRSq525tFMC9MbbHV+BN4ggOTIrs191BMB9tfkIPPRbhzanYi4tTsZMgJG5PVO5tToCqtnAgmR1PlydALCrdjc42i2bzNW3qt2yyVx9i9ffZhXQSX/u+Aq8NQTbPCGrc2B1BMB27T/2DvEGov2pDHMurU9mmDMBRuqGLM3d1RFQzwYWJMnVeXd1AsB2bT+Od6dxiFfcjcphXbM9LGDB3uj4ChJvCsF2D890HlgdAdCtR93h3EZ0aS7DmUqX5jKkqQAjdmWWZ2N1BLTABhZsc3NOrU4A6M7jeDd7h3Gd3aodypV2qRVozGsdX8E23g6C7Q7NdA6vjgCGrJuPuP2/lejiXPo/lS7OZQhTAUbukjwtW6sjoA02sGC79fnz6gRgyLr3ON7t7n5fX///3KUuXl8Xm4FyJzu+gu28FQQ7HJBVeVJ1BDBM3X607evtRLen0t+5dHky/Z0JMBZn5qTqBGiHDSzYYWPeVJ0ADFN3H8f70d/Xq+r+FfTvurrcDhQ4uToAWuJtINjZklySp1RHAEPTj0fa/t1SmEubuj+X/s0EGJPP5+erE6AlNrBgZ1vy+uoEYGi6/zjer+vo6/X0RR/m0odrACZga95QnQBtcYAFu/pMzqpOAIakT4+yrqVF/bmSPl1NX64DGKuP5OLqBGiLHWa4r+fnW9UJwFD07zG2HzcWfZtLP6bSt7n0ZSrAmGzKUZmujoC22MCC+zot/7s6ARiGfj2O90f/5tKPK+rHVfT3eoARe4/jK7gvb/7A/T0z5/jcAMavnw+wXf/y2c+pmEubuj4VYGzuytJ8vzoCWmMDC+7vvHy6OgHov34+kHf9urpdP8wr6zJTAfbgVMdXcH/e+IHdOSKXZr/qCKDP+v3g2t3biz7PpbtT6fNcujwVYGxuy1Ruq46A9tjAgt1Zk3+sTgD6rL+P493W77l09+q6Wz7sawPm7c8cX8HueNsHdu+xWZuDqyOAvur/Q2sXbzD6P5VuzqX/k+nmVICxuT7Lcnd1BLTIBhbs3nV5d3UC0Fd9fxwfyjUyGX4vAQPzh46vYPe85QN78vBM54HVEUD/DOVxvGu3GObSpmHMpWtTAcZoTY7O5uoIaJMNLNiTm/O26gSA7urWwUO3al1p35gK8COnOL6CPfGGD+zZoVmXR1ZHAP0yrAfV7txmDGku3ZnKkObSpakAY3R+njWgL30wRzawYM/W583VCQCM37CeFbpztd0pda3AiLzWlwPYM2/3wN4ckMvz5OoIoD+Gd1fajRuNoc2lG1MZ2ly6MhVgjE7P86sToGU2sGBvNuaN1QkAjNewjkm6c8XdqHS9wAidXB0AbfNmD+zd4lyQ46ojgH4Y5gNq+7caQ5xL+1MZ4ly6MBVgjD6bl1UnQNt8p4R9+YV8tjoB6IfhPZAn7d9qDHMq5tKm1qcCjNGWHJdLqyOgbX6EEPblc/lOdQLQB8N8IB/udQPAHPyT4yvYF2/0wL6dlNOrE4DuG+5BTss3G8OdSttzGe5k2p4KMDYbszxXVkdA62xgwb6dka9VJwBdN9THcZgPny/AwLzL8RXsm7d5YDaOywWOe4GFGPYDebu3G0OeS7tTGfJcWp4KMDbrszQ/qI6A9nkkh9m4OJ+qTgBg1IZ7TNL21bdb5tqBsXib4yuYDW/zwOwsy6XZvzoC6CoPpW3ecAx9Lm1OZehzaXUqwNjcnKncUR0BXWADC2ZnbT5YnQAA9N2wj+9gkP7U8RXMjjd5YLYek7U5pDoC6CaPpC3ecJiKubSpxakAY/O9HJF7qyOgG2xgwWxdn3dWJwDd5IHcawAAu/VHjq9gtrzFA7P3kEznIdURQPc4vElavOUwlxanYi5tTgUYk9U5JpurI6ArbGDB7N2Wt1UnADAajkmSFl+F9oomz2sAA/Iax1cwe97igbl4QNblUdURQLd4GN2mtVsOc9nGXFrU2lSAMTk3z/ZlD2bPBhbMxV350+oEgG5yhw4Au3iNb44wF97ggbnZP5dnqjoC6BL3ptu1ddNhLtu0NRVz2aa1qQBj8Y38VHUCdIsNLJibTfnj6gQAFsoxyXZeiRaZCgzATF5fnQBd4w0emKvFOT/HV0cA3eFRdLuWbjpMZQdzaVFLUwHG4pP5leoE6BrfHWHuXprPVycAXeGBfIeWbjrMZQdzaVFLUwHGYEuOzeXVEdA1foQQ5u4LOa06AaB7HE4AQJLkg46vYO68vQPzcWLOqE4AusGhzc7aue0wlx3amYq57NDSVICR25Ajck11BHSPDSyYjzPz5eoEAKCvHOVBr/2t4yuYD2/vwPwcm4scAAP75jF0Z63cdpjKrlqZi8nsrJ2pACN2Z5bmxuoI6CIP4DA/K/LP1QkA0CeOr4BBeIvjK5gfb+7AfD0pq3JAdQTQOo/kO2vltsNUdmUuLWplKsCI3ZSp3FkdAd1kAwvm68p8oDoBAADokD9xfAXz5c0dmL9HZ10OqY4AWmajZFet3HaYy67MpUWtTAUYqauyPPdWR0BX2cCC+bsh76hOAAAAOuINjq9g/ry5Awvx4EznodURQLtslOyqldsOc9mVubSolakAI7Qyx2dLdQR0lw0sWIjb85fVCQAAQAe8zvEVLIQ3d2BhDs6aPK46AmiVjZJdtXLbYS67MpcWtTIVYGTOyXN8oYOFsIEFC3NP/qw6AQAAaNzJjq9gYby5Awu1fy7L0uoIoE3uVHfVym2HuezKXFrUylSAEflKXlydAF1nAwsWalP+sDoBAABo1kxOqU6A7nOABQv3sVxYnQC0yQ4FAJB/zgXVCdB97qxhFF6SL1YnAG3yQ1E7a+W2w1R2ZS4tamUqwAhszrFZVR0B3WcDC0bhS/lWdQIAANCg9zu+glHw5g6Mxn/ImdUJQIvslOysldsOU9lVK3MxmZ21MxVgge7JEbm2OgL6wAYWjMa3/RAhQFc4GtiZVwNgrN7h+ApGwz0LjMqxuciRMHBfNkp21s5th7ns0M5UzGWHlqYCLMjtmcqt1RHQDx63YVRW5GPVCQAAQEPe4vgKRsXbOzA6T8zqHFAdAbTFRskOLd10mMsO5tKilqYCLMANWZa7qiOgL2xgwehclfdVJwCt8RgKAIP1J46vYHTcV8MoHZ51Oaw6AmiLnZLtWrrpMJUdWpqLyWzX1lSAeboyy7OxOgL6wwYWjNKN+ZvqBAD2zfHAdl6JFpkK9MQpjq9glHx/hNF6UKbzsOoIoCU2SrZr66bDXLZpayrmsk1rUwHmZUWOz9bqCOgTG1gwWj/MW6oTAFrkkRyAQTnZ8RWMlrtJGLWDsjaPq44AWmKnJGnvlsNUtjGXFrU2FWAezsxJ1QnQNzawYNQ25E3VCQDsiyOCpMVXob2iyfMaQC+cUh0A/eM7JIzekqzM8uoIoB12SpIWbznMpcWpmEubUwHm6It5aXUC9I8NLBi9Lfmj6gSgJR5HvQYADMjWvL46AfrIARaMwydyQXUCAHvnUK3NV6DNKoA5+Gguqk6APnKPAOPxM/lKdQLQDj8U1eYNx9Dn0uZUhj6XVqcCzNqmHJXp6gjoIxtYMB5fzTerE4B2DP2RdOjXD8CA/J3jKxgPd5QwLifkLJ9hwHZ2Sto05Lm0O5Uhz6XlqQCzcleW5vvVEdBPNrBgXM7J56sTAFrgkRyAwXi74ysYF/eUMD5H5+IsqY4AWmGnpEXDnUrbcxnuZNqeCrBPt2Uqt1VHQF/ZwILxuTQfqU4AYG+Ge1ww3CtvmalA573Z8RWMj++TME5PyOocWB0BtGKYOyWt32oMcyrm0qbWpwLsw/VZlrurI6C/bGDBOF2dv6tOAGBvhnlk0P5Vt1/omoH7+WPHVzBOvlPCeD0i0zmsOgJoxfC2SrpwozG8qZhLm7owFWAv1ubobKqOgD6zgQXjdVPeXp0AwN4M79igG1fcjUrXC/zIKY6vYLx8r4RxOyzrcnh1BNCKYW2VdOU2Y1hTMZc2dWUqwB5cnKdna3UE9JsNLBi3O/OW6gQA9mZYRwfdudrulLpWIH/g+ArGzXdLGL+DsiaPr44AWjGcrZIu3WQMZyrdmstwJtOtqQD3c3qeX50A/WcDC8ZvQ95YnQAwad16IO9WrSvtG1OBzju5OgCGwPdLmIQlWZGjqiOAVgxjp6R7txhDmEv3pjKEuXRxKsAuPpdfrE6AIbCBBZOwJX9YnQC0YwiPq0O4RibD7yWgcVtySnUCDIMDLJiMT+Xs6gSASenmkUM3q11h15kKdN6Hc2l1AgyD75kwKS/M16sTgHb0+8eiunt70ee5dHcqfZ5Ll6cCJEk25qhcUR0Bw2ADCyblG/nX6gSgHX1+bO3ztVHD7ymgWe92fAWT4n4AJudZOdvnHLBDP7dKuv5lrp9TMZc2dX0qQNZnaX5QHQFDYQMLJufcfK46AWC8uv9A3v0r6OdVdf8KhnFNMDh/5fgKJsd3TpikI7My+1VHAO3o31ZJP24s+jaXfkylb3Ppy1Rg0G7OVO6ojoDhsIEFk7Q6H6pOAFrSt0fYvlxPX66jb1fTnyvp17XAgL3Z8RVMku+eMFk/ljU5sDoCaEl/tkr6dVPRl7n0ayp9mUvfpgIDdV2W5Z7qCBgSG1gwWd/Lu6sTgLb05VG2L9fR1+vpiz7MpQ/XACR5g+MrmCzfQWHSHp7pPLA6AmhL97dK+nhD0f2p9HMuXZ9MP2cCA7QmR2dzdQQMiw0smLSbc2p1AtCarj/Sdr2/r1fV/Svo33V1uR3YxWsdX8Gk+S4Kk3dopnN4dQTQmu5ulfT7ZsJc2tTNufR7JjAo5+WEjn4hgg6zgQWTtz5/Xp0AtKerj7Zd7e739S3qaPdcrrB7utgM7MHJjq9g8nwnhQoHZFWeVB0BtKd7d8PDuJHo2lyGMZWuzWUoU4FBOC0vqE6AIbKBBRU25k3VCUCLuvaI27XeYVxnt2qHcqVdagX2YSYnVyfAMPluCjWW5JI8pToCaFM39kqGdgvRjakMby7dmMzwpgK99um8vDoBhsn3U6jysny6OgFoVfuP5EO8gWh/KsOcS+uTGeZMoMe25Km5rDoChsmPEEKVz+Ss6gSgVa0/8rbeN66rbvu6W+8b55W3q+U2YF7+wfEVVPFdFeo8P9+qTgBa1uZeydBvHdqcirm0OBkzgR7akCPzveoIGCobWFDntHyjOgFoWYuPvy02TfoVaO81aLFp8lp7DVrrAUbiXY6voI7vrVDpGTnXZyGwd+3slfhytUM7UzGXXbUxGTOBnlqfqdxYHQHDZQMLKp3vD3IH9qWN7Zo2KtrRyuvRSkc76l+R+gJgbN7q+Aoq+Q4LtY7IpdmvOgJoX+VeiZuFPTOXVtVMxkyg127KVO6sjoAhs4EFtdbkH6sTgC6o2uqwTbJ35tKqyb9CZgK99ybHV1DLd1qo9tiszcHVEUB3TG6zxE3C7E1y38dc5mIykzETGICrc2TurY6AYbOBBdWuy7uqE4Aumcyeh22SuVk0kVdsMh+lX8b9mpkJDMYfOr6Car7jQr2H5Yo8sDoC6J7x7Ja4NViocczFVEZhtJMxExiUVTk2m6sjYOhsYEG9W/K26gSgi0a9+2GXZDRG+zqayugsGtGraSYwQCc7voJ6vvtCCw7NujyyOgLotvlvl7gZGKf5zsVUxm9uszERGLBz8pzSv3YWSGIDC9qwPn9WnQB03aKd/jOXf9Zj+XjNdy6M36I5/QcYsNc4voIW+G4MbTggl+fJ1REAAMAuvpoXVScASbKkOgBIkmzJD/ML1REAAMBOZvKruaE6AkhsYEE7FueCHFcdAQAA/Mg/51erE4BtbGBBK2byfd8eAQCgGVvyK7m5OgLYxh/iDu34XL5TnQAAAPy7v8+q6gRgOz9CCC05KadXJwAAAEk25IhcUx0BbGcDC1pyRr5WnQAAACR5h+MraIkNLGjLcbnAwTIAABT7YaZyS3UEsIMHZWjLxflkdQIAAAzeWxxfQVtsYEFrluXS7F8dAQAAA3ZjlubO6ghgZzawoDVr88HqBAAAGLQ3Or6C1tjAgvY8JmtzSHUEAAAM1FU5MhurI4BdLakOAO7nzjw4/6E6AgAABup3clF1AnBfNrCgRQ/JdB5SHQEAAAO0Isdna3UEcF82sKBFG7Jf/mN1BAAADNBvZXV1AnB/NrCgTQ/IujyqOgIAAAbm2zmxOgHYHRtY0KZNuTcvro4AAICB+c1cVZ0A7I4NLGjV/rk8U9URAAAwIF/Kz1YnALtnAwtatTW35mXVEQAAMBhb88p8vzoC2L3F1QHAHn3UX98LAAAT87FcWJ0A7IkNLGjXTK7PK6sjAABgEDbl5bmtOgLYExtY0LIv5LTqBAAAGIT3Zbo6Adgzf4g7tO3EnFGdAAAAvXdPluW66ghgz2xgQdvOzJerEwAAoPfe7vgK2mYDC1p3bC5y1AwAAGN0e6Zya3UEsDcei6F1K/LP1QkAANBrf+74ClpnAwva96SsygHVEQAA0FM3ZGnuro4A9m5JdQCwT7fnMXlWdQQAAPTU/5OzqhOAfbGBBV3w6KzLIdURAADQQ2tzdDZVRwD7YgMLumB9DsuJ1REAANBDv5NLqhOAfbOBBd3w4EznodURAADQM5fkadlaHQHsmw0s6IYNWZyfrI4AAICeeXXWVicAs2EDC7ri4KzJ46ojAACgR87I86oTgNmxgQVdsTkb8pLqCAAA6JFX5ZrqBGB2bGBBd+yfy7K0OgIAAHriX/IL1QnAbNnAgu7YmlvyS9URAADQC1vzyvygOgKYrcXVAcAcfCwXVicAAEAvfDgXVycAs2cDC7rlmvxadQIAAHTexvxybquOAGbPBhZ0y5fzreoEAADovPfmiuoEYC78Ie7QNc/Od33mAgDAAtyVpfl+dQQwFzawoGvOzpeqEwAAoNP+yvEVdI09DuieY3ORw2cAAJin2zLlz7+CrvEQDN2zIh+tTgAAgM76U8dX0D02sKCLnpjVOaA6AgAAOuj6LMvd1RHAXC2pDgDm4fY8KidURwAAQAf9Xs6uTgDmzgYWdNPhWZfDqiMAAKBj1uTobK6OAObOBhZ00105NCdVRwAAQMf8l6ysTgDmwwYWdNWDMp2HVUcAAECHnJ9nZaY6ApgPG1jQVfcmeWF1BAAAdMirM12dAMyPDSzoroOyJo+vjgCAPplxewx9dlpeUJ0AzNfi6gBg3jbkTdUJQHtmZv0fJslc2rOn199coMdOrg4A5s9bTNBlS7Iyy6sjgBYs7PHa7cB4LPTQw1zGYeFHUeYCnfWZ/FJ1AjB/vgNDt70iH69OACqNdi/EbcGojHIupjIqo96iMhnomC15ai6rjgDmz48QQrd9IhdUJwA1xvFjTX5UauFG/xqaysKN5zU0GeiYf3R8Bd3mrSPoup/JV6oTgMmazCOzW4S5msRcTGWufLYA/25jlufK6ghgIWxgQdd9Nf9WnQBMzuQ2PuyWzMWkXi07P3Mx2c8Wc4HGvdPxFXSdN4yg+07IWT6XYQhqHpB9edm7qmMLc9k7cwF2sT5TubE6AlgYG1jQfefk89UJwLjV7XfYLNmzytfGXPbMXID7+UvHV9B93iaCPlieFdmvOgIYlzYeiN0y3Je5tMhUgN24OVO5ozoCWCgbWNAHq/LR6gRgPNrZ52inpAXtvBqtdLSgpam0UgIkSf7U8RX0gTeIoB+ekNU5sDoCGLX2HoLdOLQ4FXNJzAXYo6tzZO6tjgAWzgYW9MPVeW91AjBabe5wtFk12VegRW1WTfL623wF2qyCwfkjx1fQD94Ygr54RKZzWHUEMCptP/gO9fah7amYS6uGOhdoxOock83VEcAo2MCCvrgpb69OAEaj1W2SnQuHqP2rbr9wHNfc/lW3Xwi99hrHV9AX3hKC/jgs63J4dQSwUN152B3WTURX5mIqbRrWXKAh5+bZHfpSAeyVDSzojzvzluoEYKG6dJfdpdaFXml3rrVLrQu/1u7oUiv0ysk+/aA/vB0EfXJQ1uTx1RHA/HXvLnsINxLdm4q5tGoIc4GmfD0/XZ0AjI4NLOiTDXljdQIwf118IO9i8xCusJvV/b/CblZDZ83kDdUJwCh5Iwj6ZUlW5KjqCGA+uvto2+ebie5OxVxa1ee5QGM+kVdUJwCj5Hso9M3L88nqBGCuuvw4nvT3dsJcWtT1qfR1LtCcLTk2l1dHAKPkRwihbz6ds6sTgKHp/pFCP6+q+1fQT+YCE/EBx1fQN94Cgv55Yb5enQDMRT8eZ/t2S9GPqZhLq/o2F2jOhhyRa6ojgNGygQX98438a3UCMHt9eSDvy3X07Wr6cyX9upr+XAk06m8cX0H/ePsH+uhZOdtnN3RDvx5j+/KFp19TMZc29WUq0KQfZiq3VEcAo2YDC/ro3Hy2OgGYjX49kPfvemhJ33539e16oCl/6fgK+sibP9BPR2Zl9quOAPaunw+w3b+16ONcTKVN3Z8LNOmmTOXO6ghg9GxgQT+tzoeqE4C96+cDeff1cy5dv6qu9w/tuqDYGx1fQT954wf66seyJgdWRwB71t9H1y7fXPR3KubSqi7PBZp0VZbn3uoIYBxsYEFffS/vrk4A9qzPD+R9vjYq+B0FzMEbHF9BX3nTB/rr4ZnOA6sjgN3p/wN5N28w+j4XU2lTN+cCjVqZ47K1OgIYDxtY0F8359TqBIDu6P9BSf+vsJvMBUbotY6voL+85QN9dmimc3h1BHBfw3hc7d4txhDmYipt6t5coFHn5DkD+bIBg2QDC/psff68OgG4r6HcWXftOrvWO4yr7Fqv64RiJ/t0gj7zhg/02wFZlSdVRwA7G869dZduMoYzFXNpU5emAs36cl5SnQCMkw0s6LeN+ZPqBGBnw3kgH9a1Mg5D+h00pGuFMZnJKdUJwHh5uwf6bkkuyVOqI4DthvWY2pXbjGFNxVxa1ZW5QKM+lldVJwDj5Tsl9N/L8unqBGCboT2Qd+VGY2hzMZU2dWMu0KhNeUrWVUcA4+VHCKH/PpOzqhMA2jW8g5LhXXE3mAsswPsdX0H/easHhuD5+VZ1AjDUx9P2bzWGOBdTaVP7c4FG3ZMjcm11BDBuNrBgCE7LN6oTANo0zIOSYV51+8wF5umvHV/BEHijB4bhGTnX5zvUGu6jadtffIY6F1NpU9tzgUbdnqncWh0BjJ8NLBiG8/1B7gD3N9yDkuFeOdA7f+H4CobB2zwwFEfk0uxXHQHDNeTjgpZvNsylRUOeSstzgUbdkGW5qzoCmAQbWDAUa/IP1QnAMA37OAKAsfoTx1cwFN7kgeF4TNbl4OoIGKphH+K0ersx7KmYS6tanQs06cosz8bqCGAybGDBcFyfd1UnwFAN/YF86NfPXPjdAszB6xxfwXB4iweG5GGZzoOqI2CIPJK3ecMx9LmYSpvanAs0aUWOz9bqCGBSbGDBkNySt1UnALTCQYlXoE3mArN2suMrGBJv8cCwHJp1eWR1BAyNx9E2bzjMpcW5mErS4lygSWfmpOoEYJJsYMGwrM+fVScAQ+RYAoARO6U6AJgsb/DA0ByQy/Pk6ggYFoc3SXu3HKayjbm0qLWpQJO+kJ+rTgAmywYWDM3GvLE6AYbFAzkwN75qwD5tzRuqE4BJc4AFw/OhXFydAAyPR3L2ze8SYJY+kouqE4BJs6EMQ/Tz+Vx1AgyHR/Lt2rrpMJdtTKVNbc0FmrMpR2W6OgKYNBtYMET/ku9UJwBUclCynVcC6KD3Or6CIfL2DgzTSTm9OgGGwgHBdi3ddJjKDubSppbmAo25K0vz/eoIYPJsYMEwnZGvVSfAMHggh9ny2QLMyqmOr2CYvLkDQ3VcLnCEDePnkXyHlm46zGWHduZiKjtrZy7QmNsylduqI4AKHl9hqC7OJ6sTgGFxPAHAgr3Z8RUMlTd3YLiW5dLsXx0BfefQZmft3HaYyw6m0qZ25gJNuT7Lcnd1BFDDBhYM19p8sDoBAABm7Y8cX8FweXMHhuwxWZtDqiOg3+yU7KyV2w5T2ZW5tKiVqUBT1ubobKqOAKrYwIIhuz5/W50AAACzcorjKxgyb+7AsD04V+Qh1RHQZ3ZKdtbKbYep7MpcWtTKVKAhF+fp2VodAdSxgQXDdnveVp0AANyX4zy4n993fAXD5s0dGLoHZF0eVR0B/eUhdGet3HaYyq7MpU2tzAUacXqeX50A1LKBBUN3V95UnQAAAHt1cnUAUM1bO8D+uTxT1RHQV3ZKdtbKbYep7Mpc2tTKXKAJn83LqhOAajawgE35o+oEAADYgy15fXUCUM8BFpB8NBdVJwAAwG59KJdWJwD17CYDSfLSfL46AfrJD0XtrJXbDlPZlbm0qZW5QLmNOSpXVEcA9WxgAUnyhZxWnQAAbOf4Cn7kXY6vgMT3RmC7E3NGdQL0kZ2SnbVy22EquzKXFrUyFSi3Pkvzg+oIoAU2sIBtzsyXqxMAAGAXb3N8BWzjzR1gu2NzkUNtGDU7JTtr57bDXHYwlTa1MxcodXOmckd1BNAGD6vAdivyz9UJAADwI3/m+ArYzps7wA5PyqocUB0B/WKnZGft3HaYyw6m0qZ25gKFrsuy3FMdAbTCBhaww5X5++oEoL88kAMwJ29wfAXs4F4S2Nmjsy6HVEdAv9gq2a6lmw5T2cFc2tTSXKDI6hyTzdURQDtsYAE7uyHvqE4AAIC81vEVsDNv7gC7enCm89DqCOgTOyXbtXTTYSo7mEuLWpoKFDkvJ/iiAOzMBhawq9vz1uoEgHFzPLCdVwJo1MmOr4BduWsB7uvgrMnjqiOgP9x/b9PaLYe5bNPWXExlu7bmAgW+kZ+qTgBaYwMLuK978mfVCdAnHkRhtny2AEmSmby+OgFoj/sE4P72z2VZWh0B/WGrJGnvlsNUtjGXFrU2FZi4T+WXqxOA9tjAAu5vU95QnQAwXo4IEq8C0KQt7kSB3XGABezOx3NhdQLQJw5KAJilD+by6gSgRe4ngd17cb5UnQD94ceiWrzhMBVzaVWLc4GJ2ZAjck11BNAiG1jA7n0536pOABgnhwRegTaZCwP3TsdXwO75DgnsybPzXV8jYDTslLT5xWToczGVNrU5F5iQO7M0N1ZHAG2ygQXsydn5YnUC9MXQH0iHfv3Mhd8tMGhvdXwF7Il7BGDPjsnFjrlhNIa9VdLu7caQ52IqbWp3LjABN2Uqd1ZHAK3yaArs2cp8tDoB6D4P5ADMypscXwF75p4S2JsnZlUOrI6AfhjuVknLNxvDnYq5tKnlqcDYXZ0jc291BNAuG1jA3lyV91cnAIzPcI8LhnvlQLPe4PgK2Bt3L8DeHZ51Oaw6AvphmFslrd9qDHMq5tKq1ucCY3RpjsuW6gigZTawgL27Me+oTgAYn2EeGAzzqttnLgza6xxfAXvn+ySwLw/KdB5WHQH9MLytki7caAxvKubSqi7MBcbknDxnkJ/2wBzYwAL25Yd5S3UCwPgM79BgeFfcDebCoJ3s+ArYF98pgX07KGvy+OoI6Idh3Z935TZjWFMxl1Z1ZS4wBl/Ni6oTgPbZwAL2bUPeVJ0AMD7DOjgY1tV2h7kwYDN5XXUC0AW+VwKzsSQrs7w6AvphOFslXbrJGM5UzKVNXZoKjNzH88rqBKALbGABs7Elf1SdAHRLtx7Iu1XrSoEe2ZI/rk4AusEBFjA7n8j51QnQDw4Q2jSMuXTtKrvW6zphHt6fVdUJQDf4fgnM1k/nq9UJ0Bf9/8GoLt5g9H8q5tKqLs4FRmRDluXa6gigG2xgAbP1tfxbdQLA+PT/EKH/V9hN5sKg/bXjK2C2fMcEZu+EnOWrBoxGv7dKuvuFos9zMZU2dXcuMAI/zJNza3UE0BU2sIDZOyefr06AvujzQ2ufr40KfkdBb73F8RUwe+4IgLlYnhXZrzoC+qGvWyVdv7Uwlxb1dSpdnwss0I1ZmjurI4DusIEFzMWqfKQ6AfrCg2ub+jmXrl9V1/uHdl0wS3/s+AqYC983gbl5QlbnwOoI6Iv+7ZX048aib3MxlTb1Yy4wb1flyGysjgC6xAYWMDdX573VCdAffXuA7dv10JK+/e7q2/XAnJ3i+AqYG987gbl6RKZzWHUE9Ed/9kr6dFPRn6mYS6v6NBeYhxU5PlurI4BusYEFzNVNeXt1AvRJXx5j+3Idfbua/lxJv66mP1cC8/Qax1fAXPnuCczdYVmXw6sjoE+6v1fSxxuK7k/FXFrVx7nAnHw7J1YnAN1jAwuYuzvzluoE6JeuP852vb+vV9X9K+jnVXX/CmDBTqkOALrId1BgPg7Kmjy+OgL6pbt7JX2+mejuVMylVX2eC8zSF/PS6gSgi2xgAfOxIW+sToC+6epjbVe7+3513S3v99V1txxGZmteX50AdJPvosD8LMmKHFUdAX3Tvb2SIdxIdG8q5tKmIUwFZuEj+U/VCUA3+U4KzNfL88nqBOifbj2UD+c2oktzMZU2DWcusFebclSmqyOAbvIjhMB8fTpnVydA/3TpIbdLrcO51u6UDutau9QKY/V3jq+A+fLdFJi/F+br1QnQR13YKxniDYS5tKgLUxniXGAP7smyXFcdAXSVDSxg/r6Rf61OgD5a1Pzjbut9Q73q9gvHcc2tX3X7hTBBpzq+AubPd1RgIZ6Zc3wdgfFod7Nk2J/0rc7FVNo07LnAfdyeqdxaHQF0lw0sYCHOy2erE6Cv2tzbaLNqsq9Ai9qsmuT1t/kKtFkFZd7s+ApYCN9XgYU5MiuzX3UE9FdLmyVuGnYwlxa1NBVzgfu5IUtzd3UE0GU2sICFWZ0PVSdAn7WzWdJKRxtamUsrHW1o59VopwQa8seOr4CF8d0VWKjHZm0Oro6AvqvdLXG7sHvVGz/msns+W6BBa3N0NlVHAN1mAwtYqOvynuoE6L+6jQ67JHtW+dqYy57VzgXYrdc7vgIWyndZYOEenuk8sDoChmGyuyVuE2ZrknMxldma9CaWycAeXZKnZWt1BNB1NrCAhbs5p1YnwFBMardkkQ2fOZnkXJityb1aPl9gH/7A8RWwcL7XAqNwaNblkdURMCzj2y5xc7AQ45qLqSyEzxYodUaeV50A9IENLGAU1ufPqxNgaMax82GPZOFG/xqaysL5bIFSJ1cHAP3g+y4wGgdkVZ5UHQHDtbANE7cD47KQuZjKeCx8G8tkYE7+Jb9QnQD0gw0sYDQ25k+qE2DIFv3oP3P/NzyOj89C5sJ4zPcVNhmYl635w+oEoC98DwZGZUkuyVOqIwAAaMY/5tXVCUBfLKkOAHpjJt/PK6ojAABoxMb8Sm6rjgD6wo8QAqPzmXy3OgEAgEa8J1dUJwD94UcIgVF6Xk6rTgAAoAHrszQ/qI4A+sMGFjBKp+cb1QkAADTgrxxfAaNkAwsYrWfkXF9ZAAAG7pY8OXdURwB9YgMLGK3z8+nqBAAAir3Z8RUwWvYkgFE7Ipdmv+oIAADKXJdluac6AuiXJdUBQO/ckh/L06sjAAAo83s5pzoB6BsbWMDoPSZrc0h1BAAAJdbk6GyujgD6xgYWMHp35qH58eoIAABK/JesrE4A+scGFjAOD8l0HlIdAQDAxJ2XEzJTHQH0jw0sYBw25ID8H9URAABM3G/miuoEoI9sYAHj8YBM55HVEQAATNRpeUF1AtBPNrCA8diUjXlRdQQAABP1ylxbnQD0kw0sYFwOyOV5cnUEAAAT8+m8vDoB6CsbWMC4bMnt+cXqCAAAJmRLfiU3VUcAfbW4OgDosQ/n4uoEAAAm5B9zWXUC0F82sIDxmckN+dXqCAAAJmBDXp4fVkcA/WUDCxinf8l3qhMAAJiAd+V71QlAn/lD3IHxOimnVycAADBm6zOVG6sjgD6zgQWM1xn5anUCAABj9peOr4DxsoEFjNtTc6HDcgCAHrs5U7mjOgLoNw+VwLhdkk9WJwAAMEZvcnwFjJsNLGD8luXS7F8dAQDAWFydI3NvdQTQd0uqA4ABuDWPyzOqIwAAGIvfzfnVCUD/2cACJuExWZtDqiMAABi51Tkmm6sjgP6zgQVMwp15UP5DdQQAACP327msOgEYAhtYwGQ8ONN5aHUEAAAjdW6enZnqCGAIbGABk7Eh++UnqiMAABip38iV1QnAMNjAAiblAVmXR1VHAAAwMl/Lz1QnAENhAwuYlE3ZkBdXRwAAMCIz+bVcVx0BDIUNLGBy9s/lmaqOAABgJD6RV1QnAMNhAwuYnK25NS+rjgAAYAS25BW5uToCGI7F1QHAoHw0F1UnAAAwAn+fy6sTgCGxgQVM0kyuy6uqIwAAWKAN+eXcUR0BDIkNLGCyvpjTqhMAAFigv8k11QnAsPhD3IFJOzFnVCcAALAAP8xUbqmOAIbFBhYwaWfmy9UJAAAswFsdXwGTZgMLmLxjc5HjcwCAjropU7mzOgIYGo+QwOStyMerEwAAmKc3Or4CJs8GFlDhSVmVA6ojAACYs6uyPPdWRwDDs6Q6ABik2/OYPKs6AgCAOfsfubA6ARgiG1hAjUdnbR5QHQEAwJyszHHZWh0BDJENLKDG+hyWE6sjAACYk9/K6uoEYJhsYAFVHpzpPLQ6AgCAWTs7z81MdQQwTDawgCobsjg/WR0BAMCs/Xquqk4AhsoGFlDn4KzJ46ojAACYlS/nJdUJwHDZwALqbM4Gt0EAAJ0wk1/N96sjgOGygQVU2j+XZWl1BAAA+/TR/Fp1AjBkNrCASltzc36pOgIAgH3YlF/OrdURwJAtrg4ABu7jubA6AQCAfXh/1lUnAMPmRwiBai/Ol6oTAADYi3tyRK6tjgCGzQYWUO3L+WZ1AsB4zczhPwANervjK6CaDSyg3gk5y1cjoH8WehjlCyPQiNsz5c+/AqrZwALqnZMvVicAjNJodqlsZAGN+AvHV0A9b+0BLTgmFztQB/pgXAdObtmAMjdkae6ujgDwwAi0YGU+Wp0AsDDj3ZeyjQWUeaPjK6AF3s4D2vDErMqB1REA8zHZgyU3b8BEXZnl2VgdAWADC2jFVXlfdQLA3E1+L8ouFjBRr3N8BbTBm3hAKx6R6RxWHQEwe9XHSG7jgLG7JE/L1uoIgMQGFtCOm/KO6gSA2as+vqrY/gIG52THV0ArvHUHtONBmc7DqiMA9q2lgyM3c8DYnJmTqhMAtrOBBbTjh/mL6gSAfWlt76m1HqBHTq4OANjBm3ZASw7Kmjy+OgJgz1o9LHJLB4zc5/Pz1QkAO9jAAlqyIW+qTgDYk5Z3nVpuAzppa95QnQCwM2/XAW1ZkpVZXh0BcH9dOCByYweMzIfyG9UJADtznwO05hX5eHUCwH114fgqcWsHjMimHJXp6giAnfkRQqA1n8j51QkAO+vSj+d1qRVo2HscXwGt8TYd0J6f/n/Z++94S+v67vd/TxEEAUVRgySxUBOqBcSEoom9F2bDWMAk5s657999zuP8/jiPkxhb1GgixpZoLJgYe+/dmEiJUlRAQRhmNqDUGWaYYfrsmdn7/EGUNmWXtdbnKs/n+lt9rfVI1r7293rva/Lt6gSAX2vjgZALPGBONuSQ3FodAXBPFlhA83wn/1GdAHCnNh5ftbUaaIx3Or4CmscNOqCJTsiFvp+Aem0+CPIlCszS6hyc1dURAPdmgQU00cX5SnUCQJuPr9peDxR6i+MroIncnAOa6fBckYXVEUCfdeEAyIUeMGM359BsrI4AuC8LLKCZluQT1QlAn3Xh+Kor7wIYqTc4vgKayY05oKkemSXZszoC6KcuHfy42ANm4JocmW3VEQA7YoEFNNUv84HqBKCfunR81bV3AwzZaxxfAU3lphzQXA/NePatjgD6p3tHPi74gGn5SY7v4Fcg0BEWWEBz3ZZ3VicA/eN3N6C3Xu0rEGguN+SAJtsn43lYdQTQJ1393c0lH7Bb5+XU6gSAnbPAAppsfd5WnQD0SVePr7r8zoCB+cvqAIBdcTsOaLb7Z0l+tzoC6IeuH/K47AN24Ut5cXUCwK5YYAHNtjlvrE4AAOi47XltdQLArjnAApruI7mqOgHog67vr/rwDoFZ+2iurE4A2DVbcqD5TsvnqhOAruvL4Y5LP2AHJnJErquOANg1Cyyg+b6Qi6oTAAA6632Or4DmcxsOaIOn5bvVCUCX9WV/lbj4A+5jfQ7J8uoIgN2xwALa4Hv5fnUCAEAn/YPjK6AN3IQD2uEJudg3FjAcfdpfJS7/gHtYmYOztjoCYPcssIB2+HG+VJ0AANA5b3F8BbSDW3BAWxyeK7KwOgLonr7trxIXgMBv3JRDs6k6AmA6LLCAtliSj1YnAAB0ymsdXwFt4QYc0B4HZWn2qo4AuqWP+6vEJSCQJFmSo7KtOgJgeiywgPa4Ke+vTgAA6IxXO74C2sPtN6BNDsh49quOALqjr/urxEUgkEvyxF5/DQItY4EFtMnKvKM6AQCgE/7K8RXQJm6+Ae2yT5bl4dURQDf0/Tc3l4HQa9/L06sTAGbCAgtol/X5u+oEAICWm8prqxMAZsatN6Bt9sjVeXR1BNAFFlhAb30uY9UJADNjgQW0zUTeVJ0AdEHfj698AtBj2/P66gSAmXKABbTPR3NldQIAQGv9a66qTgCYKdtxoI1elC9WJwBtZ3/kQhB6anMOyw3VEQAzZYEFtNGX8qPqBKDdHF8lPgXoqX9yfAW0kRtvQDudknOrE4A2c3RzJ5eC0DvrckhWVEcAzJwFFtBO5+V71QkAAK1ztuMroJ3cdgPa6vG5xHcYMFsWWHfyNQo9c1sOzrrqCIDZsMAC2uon+Xx1AtBWjq+AnnqT4yugrdx2A9rrsFyZhdURQBs5wLqLi0HokV/m8GypjgCYHQssoL2uyUeqEwAAWuN1jq+A9nLTDWizR2Rp9q6OANrHAusuLgahN67IcdleHQEwWxZYQJvdnH+uTgAAaIW/dnwFtJmbbkC77Z/x7F8dAbSNBdZdXAxCT1ycE335AW1mgQW02+q8szoBAKDx/tLxFdBubroBbfeALMtvVUcAbeJ3uHtyOQg98K08uzoBYG4ssIC225C3VCcAADTYVF5TnQAwV265Ae23R67KY6ojgPawwLonl4PQeZ/O4uoEgLmywALabyJ/U50AANBQ21wpAV3gAAvogo/n8uoEAIBGOidXVycAzJ3NONANL8iXqxOAtvAnhPfkchA6bXMOzY3VEQBzZ4EFdMNX8sPqBACAxnm34yugG9xyA7ri5JxXnQC0gwXWPbkchA5bk4Nze3UEwCBYYAFdcX6+XZ0AANAob3N8BXSFW25AdxyTSx3LA7tngXVPLgehs27JodlQHQEwGH7VA7rjZ/lcdQIAQGO82fEV0B1uuQFdcmiuzP2qI4Cms8C6J5eD0FHX5YhMVEcADIoFFtAlS/Mv1QkAAI3wGsdXQJe45QZ0y4FZlr2rI4Bms8C6J5eD0Ek/z3GZrI4AGBwLLKBbbsk/VScAAJT7K8dXQLe45QZ0zYMyngdXRwBNZoF1Ty4HoYMuyMnVCQCDZYEFdM2a/EN1AtBsDmzuzqcBnfSa6gCAQXPNAnTPXlmag6ojgCazwbqLi0HooK/nedUJAINmgQV0z6a8tToBAKDIZF5bnQAweG66AV10v1yVg6sjgOaywLqLi0HonI/nFdUJAINngQV00da8vjoBAKDA1ryhOgFgGBxgAd30qVxWnQAAMHIfzHh1AsAwWI0DXfXcfK06AWguf0R4J5eC0DEbckhurY4AGAYLLKCrvp5zqxMAAEbqXY6vgK5y2w3orpNyfnUC0FQWWHdyKQidsiaPyerqCIDhsMACuuuCfKM6AQBgZN7q+AroLrfdgC47Opc5qAd2zAbLhSB0zM05NBurIwCGxS92QJf9PJ+uTgAAGIm/cXwFdJkbb0C3PTpXZ4/qCKCJLLBcCEKnLM2R2VodATA8FlhAt12XD1cnAM3k8MYnAJ3yWsdXQLe5cgG67sAszQOqI4Am6vsGy2UgdMjleVwmqyMAhskCC+i6W/Ke6gQAgKH6fx1fAV3n1hvQfQ/KeB5cHQE0UZ83WC4CoUPOzynVCQDDZoEFdN+anF2dAAAwNH9ZHQAwfG6+AX2wV67Jb1dHAE3U1w2WS0DokC/nRdUJAMNngQX0wab8bXUCAMAQTOYN1QkAo+AAC+iHc7KkOgEAYOA+lsurEwBGwX4c6IvF+WR1AtBEffwjQheA0BkT+b1cWx0BMAoWWEBffDqXVicAAAzUPzu+AvrCDTigP56db1QnAE3Utw2Wyz/ojPU5JMurIwBGwwIL6I9v5j+rE4Am6teBTr/eLXTcOxxfAf3hGgbokxNyoe894L76tMHyJQidsTIHZ211BMCoWGABfXJxvl6dADRRfw51+vNOoQfe6vgK6BNXMUC/HJXLHd0D99WXDZZLP+iMm3JoNlVHAIyOX+OAfrkin6hOAJqoHwc7/XiX0BOvd3wF9IvrGKBvHpWrs2d1BNBEXV9hueyDDrkmR2ZbdQTAKFlgAX1zfT5UnQAAMCevdnwF9I1bcUD/PDTj2bc6AmiiLm+wXPRBh/w4J3T6CwtgByywgP65Le+pTgCaqbuHPN19Z9BLf+X4CugfVzNAHz0w43lIdQTQTN38rdAlH3TIuXlydQLA6FlgAX10R/6+OgFgdBxfQYdM5S+rEwAquJ4B+un+uSa/Ux0BNFPXNlgu96BTvpDTqhMAKlhgAf20OW+uTgCaqlsHPt16N9B72/O66gSAGg6wgL76cK6qTgCaqjuHPt15J0CS5CP5RXUCQA1XNUB/jeUz1QlAc3XhDwld6EHHbM7h+VV1BEANCyygvz6Xi6sTgOZq/+FP+98BcC/vc3wF9JcrG6DPnpFvVycATdbmFZaLPOic9Tk4K6ojAKpYYAF99p38R3UC0GTtPQRqbzmwU2c7vgL6zNUN0G8n5ELfhMCutHGF5WsNOmhlHpN11REAdSywgH67OF+pTgCarX2HQe0rBqbhzY6vgH5zhQP03eG5IgurI4Bma9MKy8UddNIvc3i2VEcAVLLAAvpuST5RnQA03byWHAu1pROYsdc7vgL6zlUOwCOzJHtWRwDN1/Qdlss66KwlOSrbqiMAallgAfwy769OANqg2QdEza4D5uQvHV8BuNYBSA7Itdm3OgJohybusFzQQaddnBMb+dUDMFIWWADJyryzOgFoi+YdFjWvCBiov3J8BeCKB+BO+2Q8D6uOANqjKb9NupSDzvtOnlmdANAEFlgASbI+f1+dALRJE/69vyY0AEM2lb+uTgBoBtc9AHe6f5bkd6sjgLapWmK5hIOe+EzOqE4AaAYLLIA7bc4bqxOA9qlYQVleQW9szxuqEwCawgEWwK99JFdVJwBtNMoDJYdX0CsfztXVCQBN4RoI4C6n5XPVCUCbDfMPCl20Qe9szmG5oToCoCkssADu8oVcWJ0AtNm8oSykhvPfCjTeexxfAdzF1RDA3T0136tOALphEGssF2rQY3fk4KyqjgBoDgssgLv793y/OgHohnm/eY3uPwl0yNmOrwDuzpURwD09IRf7bgSG6d7bLF85wH2syCFZVx0B0CQWWAD39ON8qToB6LZ593oB3McbHV8B3JNrJoB7OzxXZGF1BADQW9fn8ExURwA0y4LqAIDGWZVH5bHVEQBAb/2fubQ6AaBpLLAA7uugLM1e1REAQC/9PMdlsjoCoGkssADua10ekidVRwAAvfSqLKlOAGgeCyyAHTkg49mvOgIA6J3/yknVCQBNZIEFsCMbs2eeXB0BAPTOWbm+OgGgiSywAHZsnyzLw6sjAIBe+UaeW50A0EwWWAA7NpFteWZ1BADQI5NZnFurIwCayQILYGf2yFV5THUEANAbn8zLqhMAmsoCC2BntmdtXlgdAQD0xNYsyu3VEQBNNb86AKDBPpYrqxMAgJ74UJZVJwA0lwUWwM5N5ZacXh0BAPTApoxlXXUEQHNZYAHsypfyo+oEAKAH3pWbqhMAmsxD3AF27ZScW50AAHTcmhzs+VcAu2KBBbBr5+W71QkAQMf9neMrgF2zwALYncfnEt+WAMDQ3JJDsrE6AqDZLLAAducn+Xx1AgDQYW90fAWwOzYFALt3WK7MwuoIAKCTrssRmaiOAGi6BdUBAC2wKr+bx1VHAACd9L9yeXUCQPNZYIkGgGQAAFM2SURBVAFMxyOyNHtXRwAAnfOzPDaT1REAzWeBBTAd67J//qA6AgDonD/J0uoEgDawwAKYnv0znv2rIwCATjk/p1QnALSDBRbA9GzOHnlKdQQA0CkvzQ3VCQDtYIEFMF0PyLL8VnUEANAZX80LqhMA2sICC2C6tmYiz6qOAAA6YjJnZHl1BEBbWGABTN8euSqPqY4AADrhozmrOgGgPSywAKZve9bkRdURAEAHTGRRVldHALTH/OoAgFb5eC6vTgAAOuADubY6AaBNLLAAZmIqN2dxdQQA0HIbsijrqyMA2sQCC2BmvpofVicAAC33jtxanQDQLh7iDjBTJ+e86gQAoMVW52DPvwKYGQssgJk6P9+uTgAAWuxvHV8BzJQFFsDMHZNL3QAAAGbl5hyajdURAG3jFzCAmftZPludAAC01OsdXwHMnAUWwGwcmitzv+oIAKB1rsmR2VYdAdA+C6oDAFrp9hyUJ1RHAACt8z9zRXUCQBtZYAHMzoFZlr2rIwCAVvlJjs9UdQRAG1lgAczO+jwwf1gdAQC0yiszXp0A0E4WWACz9aCM58HVEQBAa5yXU6sTANrKAgtgtjZnYf64OgIAaI3FubE6AaCtLLAAZm+vLM1B1REAQCt8MS+pTgBoLwssgNnbli15dnUEANAC2zOW26ojANprfnUAQKt90KNYAYBp+Gh+UZ0A0GYWWABzMZlVeXF1BADQcBMZy5rqCIA2s8ACmJtP5bLqBACg4d6b66oTANrNQ9wB5uq5+Vp1AgDQYOtzcFZURwC0mwUWwFx9PT+oTgAAGuztjq8A5soCC2DuTsr51QkAQEOtzMFZWx0B0HYWWABzd0G+UZ0AADTU3zq+Apg7CyyAQTg6l7klAADcx69yWLZURwC0n1+3AAbh5/l0dQIA0EBvcHwFMAgWWACD8ehcnT2qIwCARlmSo7KtOgKgCxZUBwB0xJocmOOrIwCARvkf+UV1AkA3WGABDMqBWZoHVEcAAI1xSZ6YqeoIgG6wwAIYlPXZJydXRwAAjXFWrq1OAOgKCyyAwXlQxvPg6ggAoBG+m2dUJwB0hwUWwOBszrw8tToCAGiAqbw8N1VHAHSHBRbAIO2Va/Lb1REAQLnPZaw6AaBLLLAABmlbNuW51REAQLHtGcvK6giALplfHQDQMedkSXUCAFDsX3JVdQJAt1hgAQzWZFblJdURAEChzVmUtdURAN1igQUwaJ/OT6sTAIBC/5QbqhMAusZD3AEG71n5ZnUCAFDkjhycVdURAF1jgQUweN/Kf1YnAABF3u74CmDwLLAAhuGEXOgbFgB66LYcnHXVEQDdY4EFMAwX5+vVCQBAgTc6vgIYBvsAgOE4Kpe7SQAAPXN9jsiW6giALlpQHQDQUStySI6tjgAARur/8m8RAwyHBRbAsDwqV2fP6ggAYGSuyLGZrI4A6CYLLIBhWZOH54TqCABgZP48V1cnAHSVBRbA8Dw049m3OgIAGImLc2KmqiMAusoCC2B4NmbvnFIdAQCMxCtyXXUCQHdZYAEM0wMznodURwAAQ/etPLs6AaDLLLAAhmlLpvK06ggAYMimckZuqY4A6DILLIDhun+uye9URwAAQ/WpvLQ6AaDbLLAAhmtb1ud51REAwBBty+lZVR0B0G3zqwMAOu9fclV1AgAwROdkSXUCQNdZYAEM21Ruy6LqCABgSDZlLGurIwC6zgILYPg+l4urEwCAIXl3bqxOAOg+D3EHGIVn5NvVCQDAEKzJwbm9OgKg+yywAEbhO/mP6gQAYAj+3vEVwChYYAGMxvG5yHcuAHTMLTk0G6ojAPrAAgtgNC7JV6oTAIABe5PjK4DRsAYAGJXDc0UWVkcAAANzXY7IRHUEQD8sqA4A6I1VOTjHVUcAAAPzv3NZdQJAX1hgAYzOI7Mke1ZHAAAD8fMcl8nqCIC+sMACGJ07ckBOrI4AAAbiT3NNdQJAf1hgAYzSARnPftURAMCcXZCTqxMA+sQCC2CUNmavnFodAQDM2Zn5ZXUCQJ9YYAGM1j4Zz8OqIwCAOflanl+dANAvFlgAozWRyTyjOgIAmIPJLM6t1REA/WKBBTBq98+S/G51BAAwax/PK6oTAPrGAgtg1LZlnT87AIDW2ppFWV0dAdA386sDAHroI/lFdQIAMEsfyHh1AkD/WGABjN5UlmesOgIAmIUNWZT11REA/WOBBVDhi7mwOgEAmIV3eXw7QAUPcQeocWp+UJ0AAMzQ6hzs+VcAFSywAGqcm+9XJwAAM/RWx1cANSywAKo8IRf7FgaAFrk5h2ZjdQRAP1lgAVT5cb5YnQAAzMAbHF8BVHHvH6DOYbkyC6sjAIBpWZojs7U6AqCvFlQHAPTYqjwqj62OAACm5X/l59UJAP1lgQVQ6aAszV7VEQDAbl2ex2WyOgKgvyywACqty0PypOoIAGC3Xpll1QkAfWaBBVDrgIxnv+oIAGCXzsup1QkA/WaBBVBrY/bMk6sjAIBdWpwbqxMA+s0CC6DaPlmWh1dHAAA79eW8qDoBoO8ssACqTWRbnlkdAQDsxPaM5bbqCIC+s8ACqLdHrspjqiMAgB36SP6kOgEACyyAetuzNi+sjgAAdmAiY1ldHQHA/OoAAJJ8LFdWJwAAO/DPubY6AQALLIBmmMotOb06AgC4l/UZy4bqCAAssACa4kv5UXUCAHAv/5Dl1QkAJB7iDtAcp+Tc6gQA4G5W5uCsrY4AILHAAmiO8/Ld6gQA4G7e4vgKoCkssACa49j81I0FAGiIm3JoNlVHAHAnvygBNMfl+UJ1AgDw317n+AqgOSywAJrksFyZhdURAECW5Khsq44A4NcWVAcAcDer8jt5fHUEAJC/yJXVCQDcxQILoFkekaXZuzoCAHruxzkhU9URANzFAgugWdZl//xBdQQA9NyZubY6AYC7s8ACaJr9M579qyMAoMf+PU+rTgDgniywAJpmc+6XP6qOAIDemsrLc2N1BAD3ZIEF0DwPyLL8VnUEAPTU57OoOgGAe7PAAmierZnIs6ojAKCXtmcsK6sjALi3+dUBAOzA+z06FgBKfCRXVScAcF8WWABNNJk1eVF1BAD0zuYsyh3VEQDclwUWQDN9PJdXJwBA77w3v6pOAGBHLLAAmmkqN2dxdQQA9Mq6nJ4N1REA7IgFFkBTfTU/rE4AgF45OyuqEwDYsXnVAQDs1Mk5rzoBAHrjthycddURAOyYBRZAc52fb1UnAEBvvNnxFUBzWWABNNkxudStBgAYgV/m8GypjgBgZ/xaBNBkP8tnqxMAoBde5/gKoMkssACa7dBcmftVRwBAx12do7OtOgKAnVtQHQDALt2eg/KE6ggA6LhX5arqBAB2xQILoOkOzLLsXR0BAB12cU7MVHUEALtigQXQdOuzX06qjgCADjsz11UnALBrFlgAzfegjOfB1REA0FHfzrOqEwDYHQssgObbnIX54+oIAOikqZyRW6ojANgdCyyANtgrS3NQdQQAdNBnckZ1AgC7Z4EF0AbbsjnPqY4AgM7ZnrGsrI4AYPfmVwcAMC0fynh1AgB0zjm5ujoBgOmwwAJoh8msyourIwCgUzZnUdZWRwAwHRZYAG3xqVxWnQAAnfKe3FidAMD0eIg7QHs8N1+rTgCAzrgjB2dVdQQA02OBBdAeX88PqhMAoDPe5vgKoD0ssADa5KScX50AAJ2wIodkXXUEANNlgQXQJhfkG9UJANAJf+P4CqBNLLAA2uXoXObmAwDM0fU5PBPVEQBM34LqAABmZEUOyzHVEQDQcv/bv+0L0C4WWABt86gsyR7VEQDQYj/PcZmsjgBgJiywANpmTQ7M8dURANBif5ZrqhMAmBkLLID2OTBL84DqCABoqf/KSdUJAMyUBRZA+6zPPjm5OgIAWuqsXF+dAMBMWWABtNGDMp4HV0cAQAt9I8+tTgBg5iywANpoc+blqdURANA6k1mcW6sjAJg5CyyAdrp/lua3qyMAoGU+kZdXJwAwGxZYAO20LZv8CQQAzMjWnJbV1REAzMb86gAAZumcXF2dAACt8qGMVycAMDsWWABtNZlVOa06AgBaY1PGsq46AoDZscACaK/P5KfVCQDQGu/MTdUJAMyWh7gDtNmz8s3qBABohTU5OLdXRwAwWxZYAG32rfxndQIAtMJbHV8BtJkFFkC7nZALfZcDwG7ckkOysToCgNmzwAJot4vzteoEAGi8v3F8BdBu7toDtN1RudztCADYhaU5MlurIwCYiwXVAQDM0YockmOrIwCgwf5/+Vl1AgBzY4EF0H6PytXZszoCABrqZ3lsJqsjAJgbCyyA9luTh+eE6ggAaKhXZml1AgBzZYEF0AUPzXj2rY4AgAY6P6dUJwAwdxZYAF2wMXu7PAeAHXhpbqhOAGDuLLAAuuGBGc9DqiMAoGG+khdWJwAwCBZYAN2wJZN5enUEADTKZBZneXUEAINggQXQFffPNfmd6ggAaJCP5qzqBAAGwwILoCu2ZX2eVx0BAI0xkUVZXR0BwGDMrw4AYGD+JVdVJwBAY7w/11YnADAoFlgA3TGV27KoOgIAGmF9FmVDdQQAg2KBBdAln8tF1QkA0Ajv9Ph2gC7xEHeAbnl6vlOdAADlVuXg3FEdAcDgWGABdMt38x/VCQBQ7q2OrwC6xQILoGuOz0W+3QHotZtyaDZVRwAwSBZYAF1zSb5SnQAApV7v+Aqga9yjB+iew3NFFlZHAECRa3JktlVHADBYC6oDABi4VXlMjquOAIAi/0euqE4AYNAssAC66JFZkj2rIwCgwI9zQqaqIwAYNAssgC66IwfkxOoIAChwVq6tTgBg8CywALrpgIxnv+oIABixc/Pk6gQAhsECC6CbNmavnFodAQAjtjg3VicAMAwWWABdtU/G87DqCAAYoS/mJdUJAAyHBRZAV01kMs+ojgCAkdmesdxWHQHAcMyvDgBgaN6XX1UnAMDI/Ft+UZ0AwLBYYAF017aszQuqIwBgJCYyljXVEQAMiwUWQJe5Fw1AX7w311UnADA8FlgAXTaV5RmrjgCAoVufsWyojgBgeCywALrtC7mwOgEAhu7tWVGdAMAwzasOAGDITs0PqhMAYKhW5uCsrY4AYJgssAC67tz8e3UCAAzVmx1fAXSdBRZA9z0hF/u+B6CzfpnDs6U6AoDhssAC6L4f54vVCQAwNG9wfAXQfe7IA/TBYbkyC6sjAGAIluSobKuOAGDYFlQHADACq/KoPLY6AgCG4M/zi+oEAIbPAgugHw7K0uxVHQEAA3ZJnpip6ggAhs8CC6Af1uXBeVJ1BAAM2Jm5rjoBgFGwwALoiwMynv2qIwBggL6TZ1YnADAaFlgAfbExe+bJ1REAMDBTeVluqo4AYDQssAD6Y58sy8OrIwBgQD6b06sTABgVCyyA/pjIVn9qAUBHbM/pWVkdAcCozK8OAGCE/jnXVicAwED8S66qTgBgdCywAPpke9bmhdURADBnm7Moa6sjABgdCyyAfvlYrqxOAIA5+8fcUJ0AwChZYAH0y1Ru8chbAFrujoxlU3UEAKNkgQXQN1/Kj6oTAGBOzs6q6gQARmtedQAAI3dKzq1OAIBZuy0HZ111BACjZYEF0D/n5bvVCQAwa290fAXQPxZYAH10bH7qFgYArXR9jsiW6ggARs2vLwB9dHk+X50AALPyWsdXAH1kgQXQT4fmF1lYHQEAM3RFjs1kdQQAo7egOgCAErfnd/L46ggAmKFXZUl1AgAVLLAA+uoRWZq9qyMAYAYuypMyVR0BQAULLIC+Wpf98wfVEQAwA6/I9dUJANSwwALor/0znv2rIwBgmr6Z51QnAFDFAgugvzbnfvmj6ggAmJapnJFbqyMAqGKBBdBnD8iy/FZ1BABMwyfzsuoEAOpYYAH02dZM5FnVEQCwW1uzKLdXRwBQZ351AACl3p/x6gQA2K1zsqw6AYBKFlgA/TaZ1XlRdQQA7NKmjGVtdQQAlSywAPruE7m8OgEAdundubE6AYBaHuIOwPPzleoEANipNTnY868A+s4CC4Cv5ofVCQCwU3/v+AoACywAkpNzXnUCAOzQLTkkG6sjAKhmgQVAcn6+VZ0AADv0RsdXAFhgAXCnY3KpmxoANM51OSIT1REA1PPLCgBJ8rN8tjoBAO7jrx1fAZBYYAHwa4/O1dmjOgIA7uZneWwmqyMAaIIF1QEANMSaHJQnVEcAwN38SZZWJwDQDBZYAPzagVmWvasjAOC/XZCTqxMAaAoLLAB+bX32y0nVEQDw316aG6oTAGgKCywA7vKgjOfB1REAkOSreUF1AgDNYYEFwF02Z0H+uDoCADKZM7K8OgKA5rDAAuDu9srSHFQdAUDvfSxnVicA0CQWWADc3bZsznOqIwDoua1ZlNXVEQA0yfzqAAAa5kMZr04AoOc+4GcRAPdkgQXAPU1mVV5cHQFAj23IoqyvjgCgWSywALi3T+XS6gQAeuydubU6AYCm8RB3AO7rOfl6dQIAPbU6B3v+FQD3ZoEFwH19Iz+oTgCgp97i+AqA+7LAAmBHTsr51QkA9NDNOTQbqyMAaB4LLAB25IJ8ozoBgB56g+MrAHbEAguAHTs6l7nNAcBIXZMjs606AoAmWlAdAEBDrchhOaY6AoBe+Z+5ojoBgGaywAJgZx6VJdmjOgKA3rg8j8tkdQQAzWSBBcDOrMmBOb46AoDeOCvLqhMAaCoLLAB27mFZln2rIwDohfNyanUCAM1lgQXAzm3IPjm5OgKAXlicG6sTAGguCywAduWBuTYPro4AoPO+lBdXJwDQZBZYAOzKlszLU6sjAOi47RnLbdURADSZBRYAu3b/LM1vV0cA0Gn/mj+tTgCg2SywANi1bdmY51ZHANBhExnLmuoIAJptfnUAAI334VxdnQBAh70v11UnANB0FlgA7M5kVuW06ggAOmp9xrKhOgKAprPAAmD3PpOfVicA0FH/kOXVCQA0n4e4AzAdz8o3qxMA6KCVOThrqyMAaD4LLACm41v5z+oEADroLY6vAJgOCywApueEXOinBgADdVMOzabqCADawAILgOm5OF+rTgCgY17r+AqA6XEvHYDpOiqX+ddrARiYJTkq26ojAGgHv4gAMF0rckiOrY4AoDP+IldWJwDQFhZYAEzfo3J19qyOAKATLskTM1UdAUBbWGABMH1r8rA8sToCgE44K9dWJwDQHhZYAMzEQzOefasjAGi97+Xp1QkAtIkFFgAzsTF755TqCABabiovy03VEQC0iQUWADPzwIznIdURALTa5zJWnQBAu1hgATAzWzLpzz4AmIPtGcvK6ggA2mV+dQAArfNPuaE6AYAW+9dcVZ0AQNtYYAEwU9uyPs+rjgCgpTbntKytjgCgbSywAJi5f3HvHIBZeq8dLwAzZ4EFwMxNZUUWVUcA0ELrcno2VEcA0D4WWADMxudzUXUCAC10dlZUJwDQRvOqAwBoqafnO9UJALTMbTk466ojAGgjCywAZue7+Y/qBABa5k2OrwCYHQssAGbr+Fzk5wgA0/bLHJ4t1REAtJMFFgCzdUm+XJ0AQIu8zvEVALPlzjkAs3d4rsjC6ggAWuGKHJft1REAtNWC6gAAWmxVHpPjqiMAaIU/z9XVCQC0lwUWAHPxyCzJntURADTexTkxU9URALSXBRYAc3FHDsiJ1REANN4rcl11AgBtZoEFwNwckPHsVx0BQKN9K8+uTgCg3SywAJibjbl/nlwdAUCDTeWM3FIdAUC7WWABMFf7ZDwPq44AoLE+ncXVCQC0nQUWAHM1kck8ozoCgIbaltOzsjoCgLabXx0AQAe8L7+qTgCgoc7J1dUJALSfBRYAc7cta/OC6ggAGmhzFmVtdQQA7WeBBcAg/Ft+UZ0AQAO9OzdWJwDQBRZYAAzCVJZnrDoCgIZZk9OzqToCgC6wwAJgML6QC6sTAGiYt+X26gQAumFedQAAnXFqflCdAECD3JJDs6E6AoBusMACYFDOzb9XJwDQIG92fAXAoFhgATA4T8jFfrIAkCS5LkdkojoCgK6wwAJgcH6cL1YnANAQr3F8BcDguE8OwCAdliuzsDoCgHI/z3GZrI4AoDsWVAcA0Cmr8sg8rjoCgHJ/lmuqEwDoEgssAAbroCzNXtURAJS6ICdXJwDQLRZYAAzWujw4T6qOAKDUmflldQIA3WKBBcCgHZDx7FcdAUCZr+d51QkAdI0FFgCDtjF75CnVEQAUmcwZubU6AoCuscACYPD2ybI8vDoCgBIfzyuqEwDoHgssAAZvIlvzzOoIAApszaKsro4AoHvmVwcA0En/nGurEwAo8MGMVycA0EUWWAAMw/aszQurIwAYsU0Zy7rqCAC6yAILgOH4WK6sTgBgxN6Rm6oTAOgmCywAhmMqN+eM6ggARmhNzsjm6ggAuskCC4Bh+XJ+VJ0AwAi91ePbARiWedUBAHTYKTm3OgGAEbk5h2ZjdQQAXWWBBcDwnJfvVicAMCJ/4/gKgOGxwAJgmI7NT90sAeiBpTkyW6sjAOguv1QAMEyX5/PVCQCMwGsdXwEwTBZYAAzXobky96uOAGCoLs/jMlkdAUCXLagOAKDjbs/v5PHVEQAM1SuzrDoBgG6zwAJg2B6Rpdm7OgKAoTk/p1QnANB1FlgADNu6PCh/WB0BwNC8NDdUJwDQdRZYAAzf/hnP/tURAAzFl/Oi6gQAus8CC4Dh25z75Y+qIwAYgskszvLqCAC6zwILgFF4QJblt6ojABi4f8srqxMA6AMLLABGYWu25NnVEQAM2ETGsro6AoA+mF8dAEBPfCDj1QkADNg/59rqBAD6wQILgNGYzGqP+QXolPUZy4bqCAD6wQILgFH5RC6vTgBggN7h8e0AjIqHuAMwOs/PV6oTABiQlTk4a6sjAOgLCywARuer+a/qBAAG5K2OrwAYHQssAEbppJxfnQDAANyUQ7OpOgKA/rDAAmCULsi3qhMAGIDXO74CYJQssAAYrWNyqdsnAC13TY7MtuoIAPpkQXUAAD2zPL+Xo6ojAJiTv8iV1QkA9IsFFgCj9uhcnT2qIwCYtR/nhExVRwDQLxZYAIzamhyUJ1RHADBrZ+Xa6gQA+sYCC4DROzDLsnd1BACzcm6eXJ0AQP9YYAEweuuzX06qjgBgVhbnxuoEAPrHAguACg/KeB5cHQHAjH0hp1UnANBHFlgAVNicBfnj6ggAZmh7xnJbdQQAfWSBBUCNvbI0B1VHADAjH86rqhMA6CcLLABqbMvmPKc6AoAZ2JxFuaM6AoB+ml8dAEBvfSjLqhMAmIH35VfVCQD0lQUWAFUmsyovqY4AYJrWZywbqiMA6CsLLADqfDqXVicAME1nZ0V1AgD95SHuAFR6Tr5enQDANKzMY7KuOgKA/rLAAqDSN/KD6gQApuHNjq8AqGSBBUCtk3J+dQIAu/HLHJ4t1REA9JkFFgC1LvBHhACN93rHVwDUssACoNrRucwNFYAGW5Kjsq06AoB+W1AdAEDvrchhOaY6AoCd+vP8ojoBgL6zwAKg3qOyJHtURwCwQxfnxExVRwDQdxZYANRbkwNzfHUEADt0Zq6rTgAACywAmuBhWZZ9qyMAuI/v5JnVCQBggQVAM2zIPjm5OgKAe5nKGbmlOgIALLAAaIoH5to8uDoCgHv4TM6oTgCAxAILgKbYknl5anUEAHezPWNZWR0BAIkFFgDNcf8szW9XRwDwGx/MX1QnAMCdLLAAaIpt2ZjnVkcA8N82Z1HWVkcAwJ3mVwcAwG+ck6urEwD4b+/JDdUJAPBrFlgANMdUVuW06ggAktyR07OpOgIAfs0CC4Am+Ux+Wp0AQJKzs6o6AQDu4iHuADTLM/Ot6gSA3luRQ7KuOgIA7mKBBUCzfDv/WZ0A0HtvdHwFQLNYYAHQNCfkQj+fAApdn8MzUR0BAHdngQVA01ycr1UnAPTaax1fAdA07nAD0DxH5TL/Ti5AkZ/nuExWRwDAPfn1AIDmWZGDc2x1BEBPvSpLqhMA4N4ssABookdmSfasjgDooYvypExVRwDAvVlgAdBEd+RheWJ1BEAPvSLXVycAwH1ZYAHQTA/NePatjgDomW/kudUJALAjFlgANNPG7J1TqiMAemUqZ+TW6ggA2BELLACaat8sy8OqIwB65JN5WXUCAOyYBRYATTWR5OnVEQC9sTWLcnt1BADs2PzqAADYqX/KDdUJAL3xoSyrTgCAnbHAAqC5tmV9nlcdAdALmzKWddURALAzFlgANNm/5KrqBIBeeFduqk4AgJ2zwAKgyaayIouqIwA6b03OyKbqCADYOQssAJrt87moOgGg8/7O49sBaLZ51QEAsBtPz3eqEwA67ZYcko3VEQCwKxZYADTdd/P96gSATnuj4ysAms4CC4DmOz4X+YkFMCTX5YhMVEcAwK5ZYAHQfJfky9UJAJ31asdXADSf+9kAtMHhuSILqyMAOuhneWwmqyMAYHcWVAcAwDSsymNyXHUEQAf9SZZWJwDA7llgAdAOj8yS7FkdAdAx5+eU6gQAmA4LLADa4Y48JCdWRwB0zEtzQ3UCAEyHBRYAbXFAxrNfdQRAh3w1L6hOAIDpscACoC025v55cnUEQGdM5owsr44AgOmxwAKgPfbJeB5WHQHQER/NWdUJADBdFlgAtMdEtucZ1REAnbA1i7K6OgIApmt+dQAAzMB7c111AkAnvD/XVicAwPRZYAHQJtuzziOHAeZsQxZlfXUEAEyfBRYA7fJv+UV1AkDrvSO3VicAwExYYAHQLlNZnrHqCIBWW53F2VwdAQAzYYEFQNt8IRdWJwC02ls8vh2AtplXHQAAM3ZqflCdANBaN+fQbKyOAICZscACoH3Ozb9XJwC01usdXwHQPhZYALTRE3Kxn2EAs3BNjsy26ggAmCkPcQegjW7OUfn96giAFvqfuaI6AQBmzt1rANrpsFyZhdURAC3zkxyfqeoIAJg5CywA2mlVHpnHVUcAtMwrM16dAACzYYEFQFsdlKXZqzoCoEXOy6nVCQAwOxZYALTVujw4T6qOAGiRxbmxOgEAZscCC4D2OiDj2a86AqAlvpiXVCcAwGxZYAHQXhuzR55SHQHQCtszltuqIwBgtiywAGizfbIsD6+OAGiBf82fVicAwOxZYAHQZhPZmmdWRwA03kTGsqY6AgBmb351AADMyT/n2uoEgMZ7b66rTgCAubDAAqDdtueOvLA6AqDR1mcsG6ojAGAuLLAAaLuP58rqBIBG+4esqE4AgLnxEHcA2u+F+VJ1AkBjrczBWVsdAQBzY4EFQPt9OT+qTgBorL91fAVA+1lgAdAFp+Tc6gSARvpVDsuW6ggAmCsLLAC64Lx8pzoBoJHe4PgKgC6wwAKgG47NT92WAbiXJTkq26ojAGDuFlQHAMBALM+RObI6AqBh/kd+UZ0AAINggQVAVxyaK3O/6giABrkkT8xUdQQADIIFFgBdcXt+J4+vjgBokLNybXUCAAyGBRYA3fGILM3e1READfHdPKM6AQAGxQILgO5YlwflD6sjABphKi/PTdURADAoFlgAdMn+Gc/+1READfC5jFUnAMDgWGAB0CWbszB/VB0BUG57xrKyOgIABscCC4BueUCW5beqIwCKfSj/ozoBAAbJAguAbtmaLXl2dQRAqc1ZlLXVEQAwSPOrAwBgwD6Q8eoEgFL/lBuqEwBgsCywAOiayazOi6ojAMrckbFsqo4AgMGywAKgez6Ry6oTAMq8PauqEwBg0DzEHYAuel6+Wp0AUOK2HJx11REAMGgWWAB00dfyX9UJACXe5PgKgC6ywAKgm07K+dUJACN3fY7IluoIABg8CywAuumCfKs6AWDkXuf4CoBussACoKuOyaVu1AC9ckWOzWR1BAAMw4LqAAAYkuU5IkdXRwCM0J/n6uoEABgOCywAuuvRuTp7VEcAjMjFOTFT1REAMBwWWAB015oclCdURwCMyCtyXXUCAAyLBRYAXXZglmXv6giAEfhWnl2dAADDY4EFQJetz345qToCYOimckZuqY4AgOGxwAKg2x6U8Ty4OgJgyD6Vl1YnAMAwWWAB0G2bsyB/XB0BMFTbcnpWVUcAwDDNrw4AgCF7V26sTgAYqnOypDoBAIbLAguArtuWzXlOdQTA0GzKWNZWRwDAcFlgAdB952RZdQLA0LzbzhSA7rPAAqD7JrMqL6mOABiKNTk9m6ojAGDYLLAA6INP5dLqBICheFtur04AgOGbVx0AACPxnHy9OgFg4G7JodlQHQEAw2eBBUA/fCM/qE4AGLg3Ob4CoB8ssADoiz/MBdUJAAN1XY7IRHUEAIyCBRYAffFf/ogQ6JjXOL4CoC8ssADoj6NzmVs3QGf8PMdlsjoCAEZjQXUAAIzMihyWY6ojAAbkT3NNdQIAjIoFFgB98qgsyR7VEQADcEFOrk4AgNGxwAKgT9bkt3JCdQTAAJyZX1YnAMDoWGAB0C8Py7LsWx0BMEdfy/OrEwBglCywAOiXDdnHn90ALTeZxbm1OgIARskCC4C+eWDG85DqCIA5+HheUZ0AAKNlgQVA32xJ8rTqCIBZ25pFWV0dAQCjNb86AABG7j25sToBYNY+kPHqBAAYNQssAPpnWzbmudURALOyIYuyvjoCAEbNAguAPjonV1cnAMzKuzy+HYA+ssACoI+msiqnVUcAzNjqnJHN1REAMHoWWAD002fy0+oEgBl7q8e3A9BP86oDAKDIM/Ot6gSAGbk5h2ZjdQQAVLDAAqCvvp3/rE4AmJG/cXwFQF9ZYAHQXyfkQj8JgdZYmiOztToCAGpYYAHQXxfnq9UJANP2GsdXAPSX+84A9NmRudy/yAu0wuV5XCarIwCgiot2APrsthycY6sjAKbhlVlWnQAAdSywAOi3R2ZJ9qyOANiN83JqdQIAVLLAAqDf7sjD8sTqCIDdWJwbqxMAoJIFFgB999CMZ9/qCIBd+HJeVJ0AALUssADou43Zy5/mAA22PWO5rToCAGpZYAHAvlmWh1VHAOzER/In1QkAUM0CCwAmkjy9OgJghyYyltXVEQBQbX51AAA0wD/lhuoEgB3651xbnQAA9SywACDZlnV5fnUEwH2sz1g2VEcAQD0LLABIkn/NVdUJAPfxD1lenQAATWCBBQBJMpUVWVQdAXAPK7M4W6ojAKAJLLAA4E6fz0XVCQD38NasrU4AgGaYVx0AAI3x9HynOgHgN27KodlUHQEAzWCBBQC/9t18vzoB4Dde5/gKAH7NAgsA7nJ8LvKzEWiEa3JktlVHAEBTWGABwF0uyZerEwCSJK92fAUAd3GXGQDu7vBckYXVEUDv/TgnZKo6AgCaY0F1AAA0yqo8Oo+tjgB678xcW50AAE1igQUA9/S7uSZ7VkcAvfbveVp1AgA0iwUWANzTHXlITqyOAHpsKi/PjdURANAsFlgAcG8HZDz7VUcAvfX5LKpOAICmscACgHvbmPvnydURQE9tz1hWVkcAQNNYYAHAfe2T8TysOgLopQ/nVdUJANA8FlgAcF8T2Z5nVEcAPbQ5i3JHdQQANM/86gAAaKT35rrqBKCH3ptfVScAQBNZYAHAjmzPurygOgLomfU5PRuqIwCgiSywAGDH/i2/qE4AeubsrKhOAIBmssACgB2byq05vToC6JHbsjgT1REA0EwWWACwM1/MhdUJQI+8OeuqEwCgqeZVBwBAg52aH1QnAD3xyxyeLdURANBUFlgAsHPn5t+rE4CeeL3jKwDYOQssANiVJ+RiPy2Bobs6R2dbdQQANJeHuAPArtyco/L71RFA570qV1UnAECTuacMALt2WK7MwuoIoNMuzomZqo4AgCazwAKAXVuVR+Zx1RFAp52Z66oTAKDZLLAAYHcOytLsVR0BdNa386zqBABoOgssANidddk/f1AdAXTUVM7ILdURANB0FlgAsHsPybXZrzoC6KTP5IzqBABoPgssANi9TdkjT6mOADpoe8aysjoCAJpvfnUAALTCO7K8OgHooHNydXUCALSBBRYATMdEJjxmGRiwzVmUtdURANAGFlgAMD3vz7XVCUDHvCc3VicAQDtYYAHA9GzPHXlhdQTQIXfk9GyqjgCAdrDAAoDp+lgur04AOuRtWVWdAABtMa86AABa5IX5UnUC0BErckjWVUcAQFtYYAHA9H05P6xOADrijY6vAGD6LLAAYCZOznnVCUAHXJ/DM1EdAQDtYYEFADNxfr5TnQB0wGscXwHATFhgAcDMHJufugEEzMnPc1wmqyMAoE0WVAcAQMssz5E5sjoCaLVXZUl1AgC0iwUWAMzUobky96uOAFrrv3JSdQIAtI0FFgDM1O357Ty+OgJorbNyfXUCALSNBRYAzNwjsjR7V0cArfSNPLc6AQDaxwILAGZuXR6UP6yOAFpoMotza3UEALSPBRYAzMb+Gc/+1RFA63wiL69OAIA2ssACgNnYnIX5o+oIoGW25rSsro4AgDaaXx0AAC31Ln8GBMzQhzJenQAA7WSBBQCzszVb8uzqCKBFNmUs66ojAKCdLLAAYLY+YEsBzMA7c1N1AgC0lQUWAMzWZG7Pi6sjgJZYkzOyqToCANrKAgsAZu+Tuaw6AWiJv8vt1QkA0F7zqgMAoNWel69WJwAtcEsOycbqCABoLwssAJiLr+Xc6gSgBf7G8RUAzIUFFgDMzUk5vzoBaLilOTJbqyMAoM0ssABgbi7IN6sTgIZ7neMrAJgbCywAmKujc5lbQsBO/SyPzWR1BAC024LqAABovRU5IkdXRwCN9cosrU4AgLazwAKAuXt0rs4e1RFAI52fU6oTAKD9LLAAYO7W5KA8oToCaKSX5obqBABoPwssABiEA7Mse1dHAI3zlbywOgEAusACCwAGYX32zUnVEUDDTGZxlldHAEAXWGABwGA8KON5cHUE0CgfzVnVCQDQDRZYADAYm7Mgf1wdATTIRBZldXUEAHTD/OoAAOiMd+XG6gSgQd6fa6sTAKArLLAAYFC2ZXOeUx0BNMSGLMqG6ggA6AoLLAAYnHOyrDoBaIh3eHw7AAyOBRYADM5kVuUl1RFAA6zKGdlSHQEA3WGBBQCD9KlcWp0ANMBbc0d1AgB0ybzqAADomGfnG9UJQLGbc0g2VUcAQJdYYAHAYH0zP6hOAIq93vEVAAyWBRYADNoT8yM/YaHHrsmR2VYdAQDdYoEFAIN2kT8ihF77a8dXADBo7g8DwOAdncvcJIKe+kmOz1R1BAB0zYLqAADooBU5NMdURwAlXpnx6gQA6B4LLAAYhkdlSfaojgBG7tw8uToBALrIAgsAhmFNfisnVEcAI7c4N1YnAEAXWWABwHA8LMuyb3UEMFJfzEuqEwCgmyywAGA4NmSfnFwdAYzQ9ozltuoIAOgmCywAGJYHZjwPqY4ARuZf8mfVCQDQVRZYADAsW5I8rToCGJGJjGVNdQQAdNX86gAA6LD3eJwz9MZ7c111AgB0lwUWAAzPtmzMc6sjgBFYn7FsqI4AgO6ywAKAYTonV1cnACPw9qyoTgCALrPAAoBhmsrKnFYdAQzZyizOluoIAOgyCywAGK7P5qfVCcCQ/W3WVicAQLfNqw4AgM57Zr5VnQAM0S9zuP0VAAyXBRYADNu385/VCcAQvcHxFQAMmwUWAAzfCbnQz1zoqCU5KtuqIwCg6yywAGD4Ls5XqxOAIfkrx1cAMHzuBgPAKByZy/3bv9BBl+SJmaqOAIDucykNAKNwWw7OsdURwMCdmeuqEwCgDyywAGA0Hpkl2bM6Ahio7+YZ1QkA0A8WWAAwGnfkoXlidQQwQFN5eW6qjgCAfrDAAoBReWjGs291BDAwn83p1QkA0BcWWAAwKhuzV06tjgAGZHtOz8rqCADoCwssABidfbMsD6uOAAbiQ/kf1QkA0B8WWAAwOhOZytOrI4AB2JxFWVsdAQD9Mb86AAB65b25oToBGIB/9P/LADBKFlgAMErbsi7Pr44A5uiOjGVTdQQA9IkFFgCM1r/mquoEYI7enlXVCQDQLxZYADBaU1mRRdURwBzclpdmojoCAPrFAgsARu3zuag6AZiDN2ZddQIA9M286gAA6KGn5bvVCcAsXZ8jsqU6AgD6xgILAEbve/l+dQIwS69zfAUAo2eBBQAVjs9FfgpDC12RYzNZHQEA/eMh7gBQ4eYcm9+rjgBm7FVZUp0AAH3k3i8A1Dg8V2RhdQQwIxfnxExVRwBAH1lgAUCNVXl0HlsdAczIK3JddQIA9JMFFgBU+d1ckz2rI4Bp+2aeU50AAH1lgQUAVe7IQ3JidQQwTVM5I7dWRwBAX1lgAUCdAzKe/aojgGn5VF5anQAA/WWBBQB1Nub+eXJ1BDANW3Nabq+OAID+ml8dAAC99vasqE4ApuGcLKtOAIA+s8ACgEoT2Z5nVEcAu7EpY1lbHQEAfWaBBQC13pvrqhOA3Xh3bqxOAIB+s8ACgFrbszYvqI4AdmFNTs+m6ggA6DcLLACo9tH8ojoB2IW/9/h2AKhmgQUA1aZya06vjgB24pa8LFurIwCg7yywAKDeF3NhdQKwE2/KxuoEAGBedQAAkOTU/KA6AdiB63JEJqojAAALLABognPzveoEYAf+2vEVADSBBRYANMPjc4mfy9AwP89xmayOAAA8xB0AmuKWHJXfr44A7uFPc011AgCQWGABQHMcliuzsDoC+I0LcnJ1AgBwJwssAGiKVXlkHlcdAfzGS3NDdQIAcCcLLABojoOyNHtVRwBJkq/l+dUJAMCvWWABQHOsy/75g+oIIMlkFufW6ggA4NcssACgSR6Sa7NfdQSQj+XM6gQA4C4WWADQJJuyR55SHQG9tzWLsro6AgC4y/zqAADgHt6R5dUJ0HsfyHh1AgBwdxZYANAsE5nIs6ojoNc2ZFHWV0cAAHdngQUATfP+XFudAL32To9vB4CmscACgKbZnjvywuoI6K3VWZzN1REAwD1ZYAFA83wsl1cnQG+91ePbAaB55lUHAAA78IJ8uToBeunmHJqN1REAwL1ZYAFAE30lP6xOgF56g+MrAGgiCywAaKaTc151AvTO0vx+tlVHAAD3ZYEFAM10fr5TnQC98xrHVwDQTBZYANBUx+anbjXBCF2ex2WyOgIA2JEF1QEAwE4sz+/nqOoI6JGzsqw6AQDYMQssAGiuQ3Nl7lcdAT1xXk6tTgAAdsYCCwCa6/b8dh5fHQE9sTg3VicAADtjgQUATfaILM3e1RHQA1/Ki6sTAICds8ACgCZblwflD6sjoPO2Zyy3VUcAADtngQUAzbZ/xrN/dQR03EfyJ9UJAMCuWGABQLNtzsL8UXUEdNpExrK6OgIA2JX51QEAwG68K7dWJ0CnvS/XVicAALtmgQUATbc1W/Ls6gjorPUZy4bqCABg1yywAKD5PpDx6gTorH/I8uoEAGB3LLAAoPkmc3teXB0BnbQyi7OlOgIA2B0LLABog0/msuoE6KS3ZG11AgCwe/OqAwCAaXlevlqdAJ1zUw7NpuoIAGD3LLAAoB2+lnOrE6BzXuf4CgDawQILANripJxfnQCdsiRHZVt1BAAwHRZYANAWF+Sb1QnQKa92fAUAbWGBBQDtcXQuc/MJBuTHOSFT1REAwPQsqA4AAKZtRY7I0dUR0BFn5trqBABguiywAKBNHp2rs0d1BHTA9/L06gQAYPossACgTdbkETm+OgJabyovy03VEQDA9FlgAUC7HJhl2bs6Alru81lUnQAAzIQFFgC0y/rsm5OqI6DVtmcsK6sjAICZsMACgLZ5UMbz4OoIaLFz8ufVCQDAzFhgAUDbbM78PLU6Alprc07L2uoIAGBm5lcHAAAz9u7cWJ0ArfXe3FCdAADMlAUWALTPtmzOc6ojoJXW5fRsqI4AAGbKAgsA2uicLKtOgFY6OyuqEwCAmbPAAoA2msyqvKQ6Alrntrw0E9URAMDMWWABQDt9KpdWJ0DrvCnrqhMAgNmYVx0AAMzSs/ON6gRolV/m8GypjgAAZsMCCwDa6pv5QXUCtMrrHF8BQFtZYAFAez0xP/KzHKbpyhyb7dURAMDsWGABQHtdlK9XJ0Br/LXjKwBoL3dtAaDNjsrlbkfBNFycEzNVHQEAzNaC6gAAYA5W5NAcUx0BLfCKXFedAADMngUWALTbo3J19qyOgIb7dp5VnQAAzIUFFgC025r8Vk6ojoBGm8oZuaU6AgCYCwssAGi7h2VZ9q2OgAb7dBZXJwAAc2OBBQBttyEPyCnVEdBY23J6VlZHAABz498tAoD2OzurqhOgsT6cq6sTAIC5ssACgPbbkuRp1RHQSJuzKGurIwCAubLAAoAueE9uqE6ARnp3bqxOAADmzgILALpgWzbkedUR0Dhrcno2VUcAAHNngQUA3eA5P3Bfb8vt1QkAwCBYYAFAN0xlZU6rjoBGuSUvz9bqCABgECywAKArPpufVidAo7w5G6oTAIDBmFcdAAAMzDPzreoEaIzrc3gmqiMAgMGwwAKA7vh2/qM6ARrjNY6vAKA7LLAAoEtOyIV+ukOSn+e4TFZHAACD4iHuANAlN+WxOaI6Ahrgz3JNdQIAMDju0QJAtxyRn2dhdQQU+6+cVJ0AAAySBRYAdMvKHJJjqyOg2Fm5vjoBABgkCywA6JpHZkn2rI6AQl/P86oTAIDBssACgK65Iw/NE6sjoMxkzsit1REAwGBZYAFA9zw049m3OgKKfCIvr04AAAbNAgsAumdj9sqp1RFQYmtOy+rqCABg0OZXBwAAQ3B2VlQnQIkPZrw6AQAYPAssAOiiiUzl6dURMHKbMpZ11REAwOBZYAFAN703N1QnwMi9MzdVJwAAw2CBBQDdtC3r8vzqCBipNTkjm6ojAIBhsMACgK7611xVnQAj9dbcXp0AAAyHBRYAdNVUlmesOgJG5ua8IlurIwCA4bDAAoDu+kIuqk6AkfmbbKxOAACGZV51AAAwRE/Ld6sTYCSW5kj7KwDoLgssAOiy7+X71QkwEq91fAUAXWaBBQDddnwu8vOezvtZHpvJ6ggAYHg8xB0Auu3mHJPfq46AIXtlllYnAADD5I4sAHTd4bkiC6sjYIjOzynVCQDAcFlgAUDXrcqj89jqCBiil+aG6gQAYLgssACg+w7K0uxVHQFD8pW8sDoBABg2CywA6L51OSAnVkfAUExmcZZXRwAAw2aBBQB9cEDGs191BAzBv+WV1QkAwPBZYAFAH2zM/fPk6ggYuImMZXV1BAAwfPOrAwCAkXi7P7Oig96fa6sTAIBRsMACgH6YyLY8szoCBmp9FmVDdQQAMAoWWADQF+/LddUJMFDvsCsEgL6wwAKAvtietXlBdQQMzMqckS3VEQDAaFhgAUB/fDS/qE6AgXlr1lYnAACjYoEFAP0xlVtzenUEDMRNOTPbqiMAgFGxwAKAPvliflSdAAPx+myqTgAARmdedQAAMFKn5NzqBJiza3Kk/RUA9IkFFgD0y3n5XnUCzNmrHV8BQL9YYAFA3zw+l7gCoNV+nBMyVR0BAIySh7gDQN/ckqPy+9URMAdn5drqBABgtNx/BYD+OSxXZmF1BMzSuXlydQIAMGoWWADQP6vyu3lcdQTM0uLcWJ0AAIyaBRYA9NEjsix7VUfALHwhp1UnAACjZ4EFAH20LvvnD6ojYMa2Zyy3VUcAAKNngQUA/fSQjOeB1REwQ/+SP6tOAAAqWGABQD9tyv3ylOoImJHNOS13VEcAABXmVwcAAEXemeXVCTAj78uvqhMAgBoWWADQVxOZyLOqI2Da1mcsG6ojAIAaFlgA0F/vz7XVCTBtZ2dFdQIAUMUCCwD6a3vuyAurI2BaVual2VIdAQBUscACgD77WC6vToBpeXPWVicAAHXmVQcAAKVekC9XJ8Bu/TKH218BQJ9ZYAFAv30lP6xOgN16veMrAOg3CywA6LuTc151AuzSkhyVbdURAEAlCywA6Lvz8+3qBNilv3R8BQB9Z4EFAByTS93UorEuyRMzVR0BANRaUB0AAJRbnt/PUdURsBNn5rrqBACgmgUWAJAcmitzv+oI2IHv5JnVCQBAPQssACC5Pb+dx1dHwH1M5YzcUh0BANSzwAIAkuQRWZq9qyPgXj6b06sTAIAmsMACAJJkXR6YP6yOgHvYntOzsjoCAGgCCywA4E4PyrXZvzoC7uaD+YvqBACgGSywAIA7bc7C/FF1BPzG5izK2uoIAKAZ5lcHAACN8a7cWp0Av/GPuaE6AQBoCgssAODXtmZznl0dAUmSOzKWTdURAEBTWGABAHf5YMarEyBJcnZWVScAAM1hgQUA3GUyt+fF1RGQFXlZJqojAIDmsMACAO7uk7msOgHyxqyrTgAAmmRedQAA0DDPy1erE+i563NEtlRHAABNYoEFANzT13JudQI991rHVwDAPVlgAQD3dlLOr06gx36e4zJZHQEANIsFFgBwbxfkm9UJ9NirHV8BAPdmgQUA3NfRucxtLkpclCdlqjoCAGiaBdUBAEADrcjhObo6gl56Ra6vTgAAmscCCwDYkUfn6uxRHUHvfDPPqU4AAJrIAgsA2JE1eUSOr46gZ6ZyRm6tjgAAmsgCCwDYsQOzNA+ojqBXPpmXVScAAM1kgQUA7Nj67JuTqiPoka1ZlNurIwCAZvLvCwEAO/P3jhMYoXOyrDoBAGgqCywAYGc2Z36eWh1BT2zKWNZWRwAATWWBBQDs3LtzY3UCPfEu/7cGAOycBRYAsHPbsjnPqY6gB9bkjGyqjgAAmssCCwDYFc8lYhT+zvPWAIBdscACAHZlMivzkuoIOu6WvDxbqyMAgCazwAIAdu3TubQ6gY57YzZWJwAAzTavOgAAaLxn5xvVCXTYdTkiE9URAECzWWABALvzzfygOoEOe7XjKwBgdyywAIDde2J+5KqBofhZHpvJ6ggAoOk8xB0A2L2b8vgcXh1BJ/1JllYnAADN514qADAdR+Vyjx5g4C7IydUJAEAbWGABANOxIofmmOoIOueluaE6AQBoAwssAGB6HpWrs2d1BJ3y1bygOgEAaAcLLABgetbk4TmhOoIOmcwZWV4dAQC0gwUWADBdD8149q2OoDM+ljOrEwCAtrDAAgCma2MekFOqI+iIrVmU1dURAEBb+NeEAIDpOzurqhPoiPdnvDoBAGgPCywAYPq2ZCpPq46gAzZkUdZXRwAA7WGBBQDMxD/mhuoEOuCdubU6AQBoEwssAGAmtmVDnlcdQcutzuJsro4AANrEAgsAmJkP5+rqBFruLR7fDgDMjAUWADAzU1mZ06ojaLGbc2a2VkcAAO1igQUAzNRn85PqBFrs9dlYnQAAtM286gAAoIWekW9XJ9BS1+TIbKuOAADaxgILAJi57+Q/qhNoqdc4vgIAZs4CCwCYjRNyoesIZuwnOT5T1REAQPt4iDsAMBs35bE5ojqC1nllxqsTAIA2cucUAJidI/LzLKyOoFXOy6nVCQBAO1lgAQCzszIH57jqCFplcW6sTgAA2skCCwCYrUdmSfasjqA1vpQXVycAAG1lgQUAzNYdeWieWB1BS2zPWG6rjgAA2soCCwCYvYdmPPtWR9AK/5o/rU4AANrLAgsAmL2N2ctjuZmGiYxlTXUEANBe86sDAIBWOzsrqhNogffluuoEAKDNLLAAgLmYyFSeXh1Bw63PWDZURwAAbWaBBQDMzXvzq+oEGu4fsrw6AQBoNwssAGButmVdnl8dQYOtzOJsqY4AANrNAgsAmKuP5KrqBBrsb7O2OgEAaDsLLABgrqayPGPVETTUr3JWtldHAABtZ4EFAMzdF3JRdQIN9QZ/PggAzN286gAAoBOelu9WJ9BAS3JUtlVHAADtZ4EFAAzC9/L96gQa6K8cXwEAg2CBBQAMxhNysSsL7uGSPDFT1REAQBd4iDsAMBg355j8XnUEjXJWrq1OAAC6wX1SAGBQDs8VWVgdQWN8N8+oTgAAusICCwAYlFV5dB5bHUFDTOXluak6AgDoCgssAGBwDsrS7FUdQSN8LmPVCQBAd1hgAQCDsy4PyZOqI2iA7RnLyuoIAKA7LLAAgEE6IOPZrzqCcufkz6sTAIAuscACAAZpY+6fJ1dHUGxzTsva6ggAoEvmVwcAAB3z9iyvTqDYP+WG6gQAoFsssACAwZrItjyzOoJC63JGNlRHAADdYoEFAAza+3JddQKF3pYV1QkAQNdYYAEAg7Y9a/OC6giK3JaXZqI6AgDoGgssAGDwPporqxMo8qasq04AALpnXnUAANBJL8oXqxMocH2OyJbqCACgeyywAIBh+FJ+VJ1Agdc5vgIAhsECCwAYjlNybnUCI3ZFjsv26ggAoIsssACA4Tgv36tOYMT+2vEVADAcFlgAwLA8Ppe41uiRi3NipqojAIBuWlAdAAB01i05MkdWRzAyr8h11QkAQFe5KwoADM9huTILqyMYiW/l2dUJAEB3WWABAMOzKr+bx1VHMAJTOSO3VEcAAN1lgQUADNMjsjR7V0cwdJ/O4uoEAKDLLLAAgGFalwfnD6ojGLJtOT0rqyMAgC6zwAIAhmv/jGf/6giG6v35n9UJAEC3WWABAMO1OXvkKdURDNGmjGVtdQQA0G3zqwMAgM57R5ZXJzBE78mN1QkAQNdZYAEAw7Y1E3lWdQRDsianZ1N1BADQdRZYAMDwvT/XVicwJG/L7dUJAED3WWABAMO3PWvyouoIhuCWvDxbqyMAgO6zwAIARuHjubw6gSF4UzZUJwAAfTCvOgAA6IkX5MvVCQzYdTkiE9URAEAfWGABAKPxlfywOoEBe43jKwBgNCywAIBROTnnVScwQD/PcZmsjgAA+sECCwAYlfPz7eoEBugvHV8BAKNigQUAjM4xudTts464ICdXJwAA/bGgOgAA6JHl+f0cVR3BQJyZX1YnAAD9YYEFAIzSobky96uOYM6+ludXJwAAfWKBBQCM0u05KE+ojmCOJrM4t1ZHAAB9YoEFAIzWgVmWvasjmJOP5xXVCQBAv1hgAQCjtT4PzB9WRzAHW7Moq6sjAIB+8e8AAQCj9tbcXp3AHHww49UJAEDfWGABAKO2OQvzx9URzNKGnJb11REAQN9YYAEAo/fO3FSdwCy9y+PbAYDRs8ACAEZvW7bk2dURzMLqnJHN1REAQP9YYAEAFTxHqZ3e6vHtAEAFCywAoMJkbs+LqyOYoZvzimytjgAA+sgCCwCo8clcVp3ADP1NNlYnAAD9NK86AADorefma9UJzMDSHGl/BQDUsMACAKp8PedWJzADr3F8BQBUscACAOqclPOrE5imy/O4TFZHAAB95SHuAECdX+WEHFodwbS8MsuqEwCA/rLAAgAqHZ3LPNKgBc7LqdUJAECfWWABAJVW5PAcXR3Bbi3OjdUJAECfWWABALUenauzR3UEu/TlvKg6AQDoNwssAKDWmjwix1dHsAvbM5bbqiMAgH6zwAIAqh2YpXlAdQQ79ZH8SXUCANB3FlgAQLX12ScnV0ewExMZy+rqCACg7/yrPwBAvbfl9uoEduKfc211AgCABRYAUG9z5uep1RHswPqMZUN1BACABRYA0ATvzo3VCezAO7K8OgEAwAILAGiGbdmU51ZHcC8rc0a2VEcAAFhgAQBN8eEsq07gXt6atdUJAACJBRYA0BSTWZmXVEdwNzflzGyrjgAASCywAIDm+HQurU7gbl6XTdUJAAB3mlcdAADwG8/ON6oT+G/X5Ej7KwCgKSywAIDm+Gb+szqB//Zqx1cAQHNYYAEATXJCLnR90gA/zgmZqo4AAPg1D3EHAJrkpjw+h1dHkDNzbXUCAMBd3OEEAJrlqFzuIQfFzs2TqxMAAO7OAgsAaJYVOTTHVEf02lQW58bqCACAu7PAAgCa5lG5OntWR/TY57OoOgEA4J4ssACAplmTh+eE6oje2p6xrKyOAAC4JwssAKB5Hprx7Fsd0VMfzquqEwAA7s0CCwBono15QE6pjuilzVmUO6ojAADuzb/xAwA00dlZVZ3QS+/Lr6oTAADuywILAGiiLZnK06ojemd9xrKhOgIA4L4ssACAZvrH3FCd0DtnZ0V1AgDAjlhgAQDNtC0b8rzqiF65LYszUR0BALAjFlgAQFN9OFdVJ/TKm7OuOgEAYMcssACApprKbVlUHdEbv8wrs706AgBgxyywAIDm+lx+Up3QG6/PluoEAICdmVcdAACwC8/It6sTeuHqHJ1t1REAADtjgQUANNl38h/VCb3wl46vAIAms8ACAJrthFzoimXILs6JmaqOAADYOQ9xBwCa7aYclyOqIzruzFxXnQAAsCvuZwIATXd4rsjC6ogO+3aeVZ0AALBrFlgAQNOtysE5rjqis6ZyRm6pjgAA2DULLACg+R6ZJdmzOqKjPpMzqhMAAHbHAgsAaL478tA8sTqik7ZnLCurIwAAdscCCwBog4dmPPtWR3TQB/J/VCcAAOyeBRYA0AYbc/+cWh3ROZuzKGurIwAAdm9+dQAAwLScnRXVCZ3zntxYnQAAMB0WWABAO0xkKk+vjuiUO3J6NlVHAABMhwUWANAW782vqhM65W1ZVZ0AADA9FlgAQFtsy7o8vzqiM1bk5ZmojgAAmB4LLACgPT6Sq6oTOuONWVedAAAwXRZYAEB7TGV5xqojOuH6/Em2V0cAAEyXBRYA0CZfyIXVCZ3wGn8+CAC0ybzqAACAGXlqvled0Ho/z3GZrI4AAJg+CywAoF3+Pd+vTmi9Vzu+AgDaxQILAGibJ+Ri1zBz8F85qToBAGBmPMQdAGibm3NMfq86osXOyvXVCQAAM+PuJQDQPofniiysjmipb+S51QkAADNlgQUAtM+qPCqPrY5opckszq3VEQAAM2WBBQC00UFZmr2qI1roE3l5dQIAwMxZYAEAbbQuD8mTqiNaZ2tOy+rqCACAmZtfHQAAMCtvydrqhNb5UMarEwAAZsMCCwBop43ZM0+ujmiVTRnLuuoIAIDZsMACANrqH7K8OqFV3pmbqhMAAGbHAgsAaKuJbMszqyNaY03OyKbqCACA2bHAAgDa6325rjqhNf4ut1cnAADMlgUWANBe27M2L6iOaIVb8vJsrY4AAJgtCywAoM0+miurE1rhb7KxOgEAYPbmVQcAAMzJi/LF6oTGW5oj7a8AgDazwAIA2u1L+VF1QuO9zvEVANBuFlgAQNudknOrExrtZ3lsJqsjAADmwgILAGi78/Ld6oRG+38dXwEAbWeBBQC03+NziauanTg/p1QnAADM1YLqAACAObslR+bI6oiGemluqE4AAJgr9yoBgC44LFdmYXVEA30lL6xOAACYOwssAKALVuV387jqiMaZzOIsr44AAJg7CywAoBsekaXZuzqiYT6as6oTAAAGwQILAOiGddk/f1Ad0SgTWZTV1REAAIMwvzoAAGBA3uK45h7en2urEwAABsMCCwDois3ZI0+pjmiMDVmUDdURAACDYYEFAHTHO3JrdUJjvMPj2wGA7rDAAgC6Y2sm8qzqiEZYncXZXB0BADAoFlgAQJd8wHOfkiR/63lgAECXWGABAF2yPWvyouqIcjfnzGytjgAAGBwLLACgWz6ey6sTyr0+G6sTAAAGaV51AADAgL0gX65OKHVNjsy26ggAgEGywAIAuuYr+WF1Qqm/dnwFAHSNBRYA0D0n57zqhDI/yfGZqo4AABgsD3EHALrnVzkxh1RHFHllxqsTAAAGzQILAOiiY3JpLx+VcG6eXJ0AADB4FlgAQBctz+/nqOqIAotzY3UCAAAAANNzaCYy1bPXF6o/dACA4bDAAgC66fYclCdUR4zU9ozltuoIAAAAAKbvwGwo30SN8vXh6g8cAGBYLLAAgK5anwfmD6sjRmYiY1lTHQEAAADAzDwoq8p3UaN6vaP6wwYAGB4LLACguzZnYf64OmIk1mcsG6ojAAAAAJi5vXJj+TZqFK/XV3/QAADDZIEFAHTZtmzJs6sjhm5lFmdLdQQAAAAAs3O/LCvfRw379X9Xf8gAAMNlgQUAdNtkVuXF1RFD9cucle3VEQAAAADM3vxcWr6RGubrldUfMAAAAABz9dzyQ6bhva7OwuqPFwAAAIC5+0H5QdOwXi+q/mgBAAAAGISTyg+ahvO6OPOqP1oAAAAABuPr5YdNw3j9UfXHCgAAAMCgHJ3t5cdNg359p/pDBQAYjQXVAQAAI7Eih+fo6oiBmsrLc1N1BAAAAACD8+hsKd9MDfL1meoPFABgVCywAIC+WJNH5PjqiIHZntOzsjoCAAAAgME6MOvLd1ODen2w+sMEABgdCywAoD/WZ5+cXB0xEJuzKGurIwAAAAAYvAdlVfl2ahCvt1V/kAAAo2SBBQD0yebMy1OrI+bsjoxlU3UEAAAAAMOxV24o30/N9fWa6g8RAGC0LLAAgH7Zlk15bnXEnNyWl2aiOgIAAACA4VmYq8s3VHN5/e/qDxAAAACAYVtcfgg1+9d12bP64wMAAABg2OblJ+UHUbN9vaL6wwMAAABgFJ5VfhA1u9fPM7/6owMAAABgNP6j/DBqNq/nVX9sAAAAAIzKCZksP46a6euizKv+2AAAAAAYna+WH0jN9PWU6o8MAAAAgFE6KtvLj6Rm8vpG9QcGAFBlQXUAAECRFTkkx1ZHTNtUzsit1REAAAAAjNajsrl8VzXd1yerPywAgDoWWABAf63Jw3NCdcS0bM1pub06AgAAAIDRe2jWlm+rpvN6X/UHBQBQyQILAOizjXlATqmO2K1NGcva6ggAAAAAajwwK8v3Vbt7vbX6QwIAqGWBBQD025ZM5WnVEbu0JqdnU3UEAAAAAHXun1+Vb6x29frL6g8IAKCaBRYA0HfbsiHPq47YqVvysmytjgAAAACg1oL8onxntbPX/6z+cAAAAABogrHyg6odv67NHtUfDQAAAABNMC8XlR9W7ei1uPqDAQAAAKApnlF+WHXf188yv/pjAQAAAKA5vl9+YHXv17OrPxIAAAAAmuT4TJYfWd39dX71BwIAAABA03yp/NDq7q9Tqz8OAAAAAJrm8GwtP7b69eur1R8GAAAAAE30kfKDqztf23Nc9UcBAAAAQBM9MpvLD6+mMpWPVn8QAABNsqA6AACgQe7IATmxOiJbsyirqyMAAAAAaKYDsrZ8f/WP1R8CAECzWGABANzdxty/+N//25BFWV/9MQAAAADQXPtkeen+6k3VHwAAQNNYYAEA3NNEJvOMsv/11VmczdUfAQAAAADNdv/8smx/9f9Uv3kAAAAA2uDPio6vbsre1W8dAAAAgDZYkF+UHGD9efUbBwAAAKAtTis4vromC6vfNgAAAABtMS8/GvkB1lj1mwYAAACgTZ464uOryzK/+i0DAAAA0C7/PtIDrKdXv10AAAAA2uYJmRzZ8dW51W8WAAAAgDb6/MgOsJ5U/VYBAAAAaKPDsnUkx1dfrH6jAAAAALTVh0dwfLUtR1a/TQAAAADa6qBsHPoB1r9Wv0kAgGZbUB0AANBo6/KQIT+faiJjWV39NgEAAABorwNyx1D3V++sfoMAAE1ngQUAsGsbs2eePLT/9vUZy4bqtwgAAABAu+2TW4e2v3pD9ZsDAAAAoAv+7yEdX92W/arfGgAAAABdsEfGh3KA9f+vfmMAAAAAdMUrh3B8dWP2qn5bAAAAAHTFglwx8AOsP61+UwAAAAB0yYsGfHx1dRZWvyUAAAAAuuWHAz3AenH12wEAAACga04Z4PHVJZlX/XYAAAAA6J7vDOwA64+r3woAAAAAXfT4TA7k+Oq71W8EAAAAgK767ACOrybzxOq3AQAAAEBXHZatcz7A+lz1mwAAAACgyz44x+Orbfm96rcAAAAAQJc9IhvmdID1oeo3AAAAAEDXnT2H46tN+Z3qfAAAAAC6bv/cPusDrLdXxwMAAADQB6+Z5fHV2jysOh0AAACAPnhAbpnVAdZrq8MBAAAA6Iv/cxbHVyuyb3U2AAAAAH1xv4zP+ADr/6qOBgAAAKBPzpzh8dX12bM6GQAAAIA+mZ/LZnSAdWZ1MAAAAAB98/wZHF9dkQXVuQAAAAD0z39N+wDrBdWpAAAAAPTRydM8vroo86pTAQAAAOinb03rAOsp1ZkAAAAA9NUx2b7b46tvVUcCAAAA0Gef2s3x1WQeV50IAAAAQJ8dmoldHmB9qjoQAAAAgL57/y6Or7bliOo8AAAAAPruwGzY6QHW+6vjAAAAACD5+50cX23Kb1enAQAAAEDyoKza4QHW31WHAQAAAMCdXr2D46s1eXB1FgAAAADcaa/ceJ8DrFdXRwEAAADAXf7XvY6vlmff6iQAAAAAuMv9suweB1j/qzoIAAAAAO7pZXc7vroue1TnAAAAAMA9zc+lvznAell1DAAAAADc13P/+/jqZ5lfnQIAAAAAO/KfmcpUnlOdAQAAAAA7dlKmckF1BAAAAADs3Nfz5OoEAAAAANi5A6oD4P9rDw4JAAAAAAT9f+0IKwAAAAAAAAAAAAAAAAAAAAAAAAAAwBOrgxRYjTv8XwAAACV0RVh0ZGF0ZTpjcmVhdGUAMjAxOC0wMi0wNlQwOTozOToxNSswMDowMJjvfsAAAAAldEVYdGRhdGU6bW9kaWZ5ADIwMTgtMDItMDZUMDk6Mzk6MTUrMDA6MDDpssZ8AAAAGXRFWHRTb2Z0d2FyZQB3d3cuaW5rc2NhcGUub3Jnm+48GgAAAABJRU5ErkJggg==;fontSize=20;" vertex="1" parent="1">
          <mxGeometry x="1292.13" y="488.01" width="65.35" height="61.75" as="geometry" />
        </mxCell>
        <mxCell id="iPHKZAZRWa_BI_mhg364-15" style="edgeStyle=orthogonalEdgeStyle;rounded=0;orthogonalLoop=1;jettySize=auto;html=1;entryX=1.018;entryY=0.545;entryDx=0;entryDy=0;entryPerimeter=0;" edge="1" parent="1" source="iPHKZAZRWa_BI_mhg364-7" target="iPHKZAZRWa_BI_mhg364-8">
          <mxGeometry relative="1" as="geometry">
            <mxPoint x="1720" y="321" as="targetPoint" />
            <Array as="points">
              <mxPoint x="1731" y="321" />
            </Array>
          </mxGeometry>
        </mxCell>
        <mxCell id="iPHKZAZRWa_BI_mhg364-43" value="&lt;b style=&quot;font-size: 20px;&quot;&gt;2.&lt;/b&gt; Encrypt secrets&lt;br&gt;&amp;nbsp;in config file" style="edgeLabel;html=1;align=center;verticalAlign=middle;resizable=0;points=[];labelBorderColor=#66FF66;fontSize=20;" vertex="1" connectable="0" parent="iPHKZAZRWa_BI_mhg364-15">
          <mxGeometry x="-0.1982" relative="1" as="geometry">
            <mxPoint x="-14" y="-1" as="offset" />
          </mxGeometry>
        </mxCell>
        <mxCell id="iPHKZAZRWa_BI_mhg364-7" value="&lt;font style=&quot;font-size: 20px;&quot;&gt;Developer&lt;/font&gt;" style="shape=umlActor;verticalLabelPosition=middle;verticalAlign=middle;html=1;outlineConnect=0;labelBackgroundColor=default;labelBorderColor=none;labelPosition=right;align=left;" vertex="1" parent="1">
          <mxGeometry x="1930" y="255.01" width="80" height="135" as="geometry" />
        </mxCell>
        <mxCell id="iPHKZAZRWa_BI_mhg364-19" style="edgeStyle=orthogonalEdgeStyle;rounded=0;orthogonalLoop=1;jettySize=auto;html=1;entryX=1;entryY=0.501;entryDx=0;entryDy=0;entryPerimeter=0;" edge="1" parent="1" source="iPHKZAZRWa_BI_mhg364-8" target="iPHKZAZRWa_BI_mhg364-11">
          <mxGeometry relative="1" as="geometry" />
        </mxCell>
        <mxCell id="iPHKZAZRWa_BI_mhg364-52" value="&lt;font style=&quot;font-size: 20px;&quot;&gt;&lt;b&gt;3.&lt;/b&gt; Push&lt;/font&gt;" style="edgeLabel;html=1;align=center;verticalAlign=middle;resizable=0;points=[];labelBorderColor=#66FF66;" vertex="1" connectable="0" parent="iPHKZAZRWa_BI_mhg364-19">
          <mxGeometry x="0.2797" y="1" relative="1" as="geometry">
            <mxPoint x="18" y="-1" as="offset" />
          </mxGeometry>
        </mxCell>
        <mxCell id="iPHKZAZRWa_BI_mhg364-8" value="application.yaml" style="shape=note;whiteSpace=wrap;html=1;backgroundOutline=1;darkOpacity=0.05;labelPosition=center;verticalLabelPosition=top;align=center;verticalAlign=bottom;fontSize=20;" vertex="1" parent="1">
          <mxGeometry x="1660" y="266.26" width="70" height="102.5" as="geometry" />
        </mxCell>
        <mxCell id="iPHKZAZRWa_BI_mhg364-25" style="edgeStyle=orthogonalEdgeStyle;rounded=0;orthogonalLoop=1;jettySize=auto;html=1;exitX=0;exitY=0.5;exitDx=0;exitDy=0;entryX=1;entryY=0.5;entryDx=0;entryDy=0;" edge="1" parent="1" source="iPHKZAZRWa_BI_mhg364-9" target="iPHKZAZRWa_BI_mhg364-10">
          <mxGeometry relative="1" as="geometry" />
        </mxCell>
        <mxCell id="iPHKZAZRWa_BI_mhg364-9" value="Jenkins" style="shape=image;verticalLabelPosition=top;labelBackgroundColor=default;verticalAlign=bottom;aspect=fixed;imageAspect=0;image=data:image/png,iVBORw0KGgoAAAANSUhEUgAAAHIAAACdCAMAAABfEdwYAAAA/FBMVEX////w1rfTODMzUGEAAAAjHyD35M1ta21JcouBsMTYOTTvPTrb2Nc0U2Xz2bkAHR4fHyDj4N8fGhsTHh/6374bFhf4+Pj1PjsIAAAUDhA5Wm0AAAn/7dXz3cLlzK8ZHh9DaYDr6+uNjIzLNzLZwaYgFhMoLzYwSFfCNTEqNT4yMDGpp6e9qZHIs5mcLywKHR+ZmJhBIiKoMS1rKCZ5eHglJirFxcVHREVTSkFjYWK2tLSBc2OxnohKIyMzISGikHxjWE2OLSpgJiV+KihRUFCPhHjczLc8NS9zZ1pmiJetopPHuacADhRVJCS1My9KXGZXbXg3QkhxmaoYAAABE2+LAAAVL0lEQVR4nLVce0OiThfuMpO7hAqjGBOl4V2s1QrES6WVpr/dam/f/7u85wygqGDW9p4/dsvLPJz7c4ahnZ2PiCn3m8VEb+y67jhht/sd9UPLbA9XdC1OiM41BqJxrhPuuHbH/D8BqkWXEI1REABDEb8wphPLlj8fz2w6RBdwlBPWHUxABrOuQQzEZZy4nU8GtB0fjxp08OPg4OAEBP47eBrOLMJRcb33iebNFbnOOPc0HDwJqLmcnDz9mIGu8B77LEVzTQgX8FbbQcDTZUAf9uB7l2iUkeKnIPZdotNeX1b7DhmtaHhw6gv8CKCUEjv3z4Byj+gk0VFVOUG07ychrN0VOT39DoqSxD9i5mzCAdBUO0W2UHEdzpNsecopGf8TYsfRdRc07BTHOh8GgNF4KKl8l1O99w96tnWNFGVVbibG3Phx8hYgYu5Owbb2hxFtopE+qGj3epz4Rt0IKPR0/gGzSLgFRu33Eglr6iFuVtHDLEPFIM0PIfYJQ8QmII7J1ogQQzcEyt9HukuOMOIjJojnx9Q2iKcHJwODau4HQqio86Zn1YQy21rHU1F7R5Aq7fcrafEe5IblOBa1npYQU6fx8Fj5oMNgQ3u3mjLRemOia9COtdFJOFZRjx8/TrORSp48VYhhGFD+9fdGUBP6gqYR1is2+0RouXDV04CATKLtOjUIMbDLae77EIsEvsWtdkc2VZOSHwtLHpz8sAzK4HLOI6Lp9EmfnN8MpghK3kUTmtASGNYdKDxF2yLfTxaI3wkQAKXbJTdRAZwvZ1Op7O4NdE/9PX1MJqhiR5X79hgC1iWTk7mvEHGQz4JEp0zK/7fL2fgdAZTglLsyFrpEwoMMPHnwRDV6EYO2hJyfatr2ljWheoCO/YQvLvkeYBxMDKO8VUXInhOyPStp6lAjvSLgQ84j5YQbN5HZEYHpvqO425xZwAHmYrG5YqdktiXibmpItk+TscZtsz1XMsGn+flCZDuzIuS5oWyLmNOhcoSUTOjdhWb5MGJ+Hch/o4xNTNO2pbU5QrX+wpOJHpksIJd0LA9jrJxH86co3zZ+IGC1TnGh5DiyzuxiqemGDRl647QL9s9apL8lZFGnrBOyq0siDYjMtbuoQNnBIDt/52QGakLIblfZc2OdrkBOoyAR8WQynVs2OyT+zyl44xzCLDvarmcKRMr6IUirG4EoIA+eyEWgZuo8+Fm8QwbZ7IwktkF0daooED5hyFEs5MmMzkM4T7oLyNOBUc4O+BbFIOdy2nq5VHjfTvRAPMhZFKSHWSZWkKipEfEKkyj5N8YoCxTobcwxIh5eZ3h77IB9HasXq2UKBJafkMCdqRsinJ69GYxGXWiX5SGQg7fcaROauT08esxQXQNOoDGmuTHhkypPbsrQLybavB5luYHpmIWhDwScOTTAR5ujtughHt4pMCnz7mw0hQx1oRREFLnUBCkONzgj85fODTRt6sIihI6gww2NW1hqU3L2CS1cSkdHjy3gSgOkO6cTIKS9BIkoMqkLZmhiR2Q4v57UiHO4ulT+4qIMVgd/Xl8VKFNi26ZJmJLeOzqU0BowR+JGwMkEGLttjSLqWrY86U6t7uwiVAzLTJv6fsZ/h8a19C0dz7tyrkbTr0eHR69pagDi0/ch7kFYjMbUAqA4q3Qke0F4N1QcjEdJApvpMWELjmw9Hh1C8LS0ESQ5A244Oj2ZcOpSum3Hyk64MQg+KyD3pNtCjDuBYRVuD0GObgtg1pPpoMs0MkqVgZQw42LbJpkdGXPPQ17eS3t7daowGtXFHE1JSwgp3SkEAucia7HBFCIQSLI22BIQpasFmNnZ8zeAlK7SlEdUvjah6asjRARICoED6g2zUMOy5+cX+dS2SiKz0zTD6y/Z7vMVQO5JD2Datc5papAfAnFPuiwIyAuCpqF+9G0v2bLGiEicrFWoI+ReCaJ2jdP2OM3sCUS8JjQsQIJ58pGxGiGhLRKYaJn4Wp4WSoi4J31rrRUhmXvReojvP7bIE0wgZYRMnW+JGJ7+gDRjTwHuQ4WSILcKs8wVJZWM5CmJ3jYmOII8YxBsadRlSMuYiMt9fvEhMYKW6zskSOv+yEOEoL5jLozoqcHWPkyVT0PzLtADgk00NcG09DFfIILCkDYoeeiZ1Qswcr7VPsQcZXATfD6VKo+4IbpdaiRyxFsTSlrYm6oeVhKcndam74LcHXlMC0rgBZQC5hX6FC+87gUCeRAexIpEodJcSXj7TjHmzHWrFBlZYvrLD7tQOAa7WVHYy+SytIC8aoVyM2exzPVCST+mgwpSHr6dJlBMrcFkMNUImcLoiYAXF/Diw3xJEGA3vQCyo9N06WihpLAC5RNkGtmhRp427RL6/xsGwR2C0U0eOksqWx5Z2d1R6zEECbnHaLD9lODK7WFIyT1RialBhzc3IyAHG7Z7YErPpkQK3tzcnANzFZdZnhHgl2WtVd8LrxkKIMiQb0tKwiXVaYYyIBqaZp3GQJ6egj6z6fACGFDWF9C6fNM1OLgF7Hq3t7TmQ0GzfLtCQd9bVhLeL922CuJuwdNJNKTYekrtdolhdUej2WAyHE6GqeGUEo0aMxhIppnrpTVFhOSCpKQrSnoh9pJuUdY9idkPBUQ0ampAwBQaN1Cs3RnHnRTgLUC9Mt+W1dgLLGu6DJNSWoXck6S9+zSbnsZCehNBtjywvHszlFm7AzDqFAl0dsQLqwveKVwwEhVcWV+1a+DRNBg2tEEZHmdPD3bz3e4uxmf+YjiaWoBp7U6mg3NR7Mok87CyJsasqO1NotxJ63YVUiooxo/FfmHqJsRHUuDJ7HQm2BaGTz5fLotA8irPgLdeVyFfwZmqSJHCS5RdhTwUOG6LBvGT50tjOzKAaXlO8UK9PHVhFF7WNQCKg84EVz7GQYogC8VPtjtbLn/Zc4LpHxDMOWiqq6VXlYTlboUzTYsheY1WUgQZ7jcHF3++ytuzA8KJMYUkGUwmg8Fg5nvAWMkQD/I6w8aCD6TjXCk8rs1Cm78wF68wWsDEMQFvZkKWeFeUykNIRhotjfHTIYoSHa9CSpcKC+3FpvIWXXYnuG1kaZiUGp2O/G2MEY9Scm8PmiaUWQjY21glBYMgw1AAAQlbneIxSc5BoPB5kYQ3ENJXUZCQdHpnp60XHjZAAlEqTMOb3LDeaK2FpjwJrgoqUOE2ChJDtgPlLvN4FGtX9GYBZ6JFnQVmM9tEwlJ5BytR5jpqtUvMkp62EVKCTzG+VGehqm7AzOanHIYYStNRmC+K3t4RFTYWUrq6y8BAPQmriUFqlaM30qClQxhVavsVSluXpbV1Hwp6ccfCZhkDKdWvM4q43f10Eq7tmIzDCEWhOXcNqO61L1+OQc8CXasG1wWoBRSnn2hA6RH6NBiJUSB8y5jAVLuru90QuTO8P87OvoAcg56KshK30hwyKmAl6VuhpdAKrZ3VKpTzJT1BnalBRufzERrvGZyPxI1+2mjszzHTyy1zI6T0eouAjvh2o0IZn/04OPG7RP58OByOoOBYkwtB//LlmxnlmnfogLJKQ2Bi4KbDjMuHdKIgpdJ1pkAZ3Rc2+vIFw56T7uAGJ03QkIhiQ5EdWV2QKSfcP3RQaGVaSiUZ6EmXWZ6AtFhrlS9I0n0GnFip+YBfvpw5lGoJC+86ETqlLJNOtwqKp5LBOfIQwmcDAEy/XNW/ZaiTxO+egV+W9QTI4s6YZe5XfOzZtDoHxAsWt13VfrtoJ1wt/bhXv3+gaeRj2mTU7Y5mw3L2YsrSt/UjEKje+8JAZ78RM0QtRZJAKViCBBULYFO2HwI8S+7XHMb7Hj1rkttDWPdQurpsZag2KnvN8lx7Tt8fHondBsiT/f1j/OpvBuPOYv1brD42L4SLvlS/hWofVvHseB8l2aiQXjOXy+0knr+JhQG3dJ0uaGQ0PL+4mJD0ZcmfMkovSiMJmLgIlL6QZaHg9bGsLxiD9PrSQhVrYQV9SdaqnFjFvmy16qAiCqDuvaQVzXg2jGeom8FcA1FSFd8DzAYLJUqJ4ijUJ8plyLsYNs7xOqCQWpXpHMpVaTGjHR5dXVLl7v7+sgWTlE9opPuWBwnGBcj6HBKaF+8gV8+UghAGm1IvqUTM7K8KaFoB5+wtskoCr5ZwiKpTev1wL3mQV2kfcv/YoYXFRHcFrEDdkRlNB4MnIDJ6vOTCddBGWEvoNK/3d2l84SH97SjQ8nUOWWMhfgDaMzcn6JZv7BJAOmdxGs5BG0uQpW8vFBeQXoBCeUouQdLMos7iIDQWpDK4DilNmSgbX5KxgKgnkPtQiB8eSemXw8OrTHreq8CAjaR/fUxZfBYCVuxZ2noQP7ilqAjIDYhw4a2r5W53mC7c3bV4+qok4hgNmKn5H64WQmNC/U4RW5ZA8WjdN3WGVo7fhNxfoRFgRiix44T1fHf5cH/1Wq/Xb5XgszSUImK7QPXHoCvf65CTjc2eFFd+FyahwOh50e6rqtwjvNB6JqSlKI3AlRW6KHc4BolTHLmxNnfmpeI12I2Q4My9BSRkFmmaqiyrstq3Le3nr/9+Ypf1Xam8hD5K/WFvp4ibab5l09A/trFsED9S6aFV0XqyLEPsm6rpOl9B/vz86wjMZDVcYHGzoD8f3H2SUoeG5LwJmaz6+zmS9HpHfv/6S4oqcHBLzplu9auQ3xVh2lq4jWCo+IP7DqFBZce9Wnb8ppYN4XwAfGjxX1+//tS0jrmTQA3c3x7kf8xzJbsMef12sfFT1JW7YN80LfjZl7ONkDWI/FL9/rLArT8IUOE9cyeHsRhAekomq6HGKC3s6m01BSUi7Vk2CrI2/ynpFG4vM2ml4gP8qpCOsFhu+tN/wfsgzSxopfSYYc58S9ZlBT+wYAKklUjIZNVZxHGNKQqjFW99dB3vqd7W3C8RPhXv8n4rdwu7loLNCb/PU+XVz1aA3I8seY4T8nCtWm0EOqLr/oKasq2a9D9xBU7Su8oQ1xID+eJGlEkXdfZOoY3IzASDh3RPJht//8whv/7WE7kiKZoVhPzPV3KftUKbo3fK0o5+ETcO56mJ3SQCshp+Nfk7pCSqSTtq0ZQFpBc7WNIXm6NCyfAtIRP6tK9mnSpYZ9ecWUPlQxdCK79CkF8dvQih0dFA819a4Ipl1sOcnbDYnPp8QXopiAK0ruUSZI1R9vNPWE1dze30nxexAx9ZbIpg9q3c91IZ9bsMdu5GBGSS1pa1hIj9GwK1oNLuNKH4/Pa7c7K6iFcJwjXYpVx4E3dIgzs3NCJkkziehD3cQJ5UmYP+0sfyjv1zYdZawCYlKBt4Q3H1DhTwEf+iILRYRPwkqyuQQL1Q0wD0T4X0c9Z/X/8u+EALXCUBr3+5vANeb63dqu0T/6qAhGKZfRNSUC/g/5W/v0Uy/uRjlfz57cytAipIpftLnF40joeg126Dj7nXUKDgV2pbQcKLYF6II6Hqn7/Mbvz6Wwsup9L6Vr9O4xSukXExoWvrN/dUhSmYR1CA1uInGQMZmBfsW/0Fw7bFwKxJEJhhKH1RMnjkXHdxmJEtvn5zD8peBkttvcCqy5ANXMhJrkHi4sljsTyoiqOfs18DaTSq+IuCQymxO/NoWb+HaetiAJUUpbIMWas4tSBJPB3EyrB0o1p1HIfOxaEVfBbCn6YJtUMgHbK4TxJIjmrYxYABrUBC9NEqFrwk4gAIFXoFS8eIprT9XpXzOpulOWvHdGXoKMorUIPK2TJkTVx0Q+hA8fQCJ6sidgp8DfF3xvxnIHJNu+0hFXnEjXfIFKVVemxVlkKlUfXUYZqmw2LWOFEsNvsd1cz5Ophyp2n3LEYbYAXvIErO5TYCmQniBqp1SNSZhjZg3kH7ri0KO8yyFPzlMGa5YxgvTTPyoKSqFnVv+4SJTtwmLrC+DrFC2UjmdCssNtpWEOgA8vjs+Axl3ycb0ZJT1SYRkPtAMlE94nRyZrEf/o6rRR5pAEy6BLmf9Iaxs40HJAGy72l5VvHuU7qkj9HTaRbBDd5TPEWdR57cEJjVs2UKkARNN57byalyXzCYs32GYytaFgNWTiRscLwslG3qzI08C4iYy5Ce8E3HkwCyA5l7LAqDOKPaJ/bq8h3HG4PWpcgpjYAsbDrTi5BWVXzO8YqprI9XIHOyy2Igc2MWBelsenwCIGXL61tV73a+qaB9zb7ds9sQ5/iK2tNijj/nelolArK66bi9gKx6FN0/g2JpAKl2+s1mu93GUFJVm8douQOQx2uQyQbZcAxUQAr6moR+JjiHxeWla8zJao9HHsIBSXwM0g0gvUMLLu/Ai7IKYoLAJ9QxjztwneARkPu1TYmJC7qKB8kogVlTdXUBGZKOw+NC0I6B3JAlApIJSOCbel+WTVfvq6qnI/yD+tp67OF5gKytQyb1DWcyhdkqHmSF6k0AGfME7qX2XItZvSYgQllfJZZvQWobHmxCyJ4ukgS34tudoksZ9B3ocw40gw64tO+w+EOAMKJUGrV1JhtdrTxR0W7eV4CS6KJlumNX12zoPdjdEjoja6xgLn18AIE5K6CQcBsO2wNkUUd6l0wCpDZue5/tEXxUU/RwvumRM5N4NwOqtSXMxqaQBcg2gc/XkGotxmUTXIm9nVpuYlPz25EdwpEJVKr7IU1rm3oJbvsQYCoVfBJzyYKmSJW3T5PLNiUe6MK8tajDdAtIuUNAH/gWsz74oKDZtsjcvF4oUu0tSKvXtiKO3G0tuSbxNKVViF8QJ4q6hCFtyPuxtqkwvi1Ny4skGDucamPT9ZvgL14UcRvXLbaUXH/MgydooZDFlzyEpAgJpvnnJ4c7RVFFNIj0aLY0h3RsNC//4ON6y6I2oVgmEkCkYp2ZA0gLIWV3Uy1+p+SsOOriQ7oJ3JdNxDbFD0giaqhYgsQWBRX68x4Dh3Et1mYIOe6hlv33PIX0lpibnnAEtPFYFm3xXY+UvSE9jcfaDBumK/hGxOj6cWmT+ASALOlZgl6RTb38vWJuWM2EWHUgLdtj7TO13IG+FOdMoKk2d108hrf1E0HbCBSi2GiE9OBMTNrvf6J1g3R4LBPdQVoAId0rfu5fhMhZ8WmCGcn/9Yn6CIkdZEwvPT7+oHmswKqJdcycKbLD/NSMDMR0Gadju6/mFhbMmYL/d9o9xtjnQyKtpvjcMhsniu1mpyPmx6LdG1MC6aF/YhGYixn6MyK6v7OlB39NhKzO6p8jcnsMJM77Yyk02PUS6Mxq/7/+YgoUmk6zbfdcVxxQtcTfhWnCqLNdgvwPhBryQ3UOCm8AAAAASUVORK5CYII=;fontSize=20;labelPosition=center;align=center;" vertex="1" parent="1">
          <mxGeometry x="1287.87" y="269.57" width="69.61" height="95.87" as="geometry" />
        </mxCell>
        <mxCell id="iPHKZAZRWa_BI_mhg364-26" style="edgeStyle=orthogonalEdgeStyle;rounded=0;orthogonalLoop=1;jettySize=auto;html=1;exitX=0;exitY=0.5;exitDx=0;exitDy=0;entryX=1;entryY=0.5;entryDx=0;entryDy=0;" edge="1" parent="1" source="iPHKZAZRWa_BI_mhg364-10" target="iPHKZAZRWa_BI_mhg364-1">
          <mxGeometry relative="1" as="geometry" />
        </mxCell>
        <mxCell id="iPHKZAZRWa_BI_mhg364-41" value="&lt;font style=&quot;font-size: 20px;&quot;&gt;&lt;b&gt;6.&lt;/b&gt; Deploy&lt;/font&gt;" style="edgeLabel;html=1;align=center;verticalAlign=middle;resizable=0;points=[];labelBorderColor=#66FF66;" vertex="1" connectable="0" parent="iPHKZAZRWa_BI_mhg364-26">
          <mxGeometry x="-0.0271" y="-1" relative="1" as="geometry">
            <mxPoint x="-2" as="offset" />
          </mxGeometry>
        </mxCell>
        <mxCell id="iPHKZAZRWa_BI_mhg364-10" value="" style="shape=image;verticalLabelPosition=bottom;labelBackgroundColor=default;verticalAlign=top;aspect=fixed;imageAspect=0;image=data:image/png,iVBORw0KGgoAAAANSUhEUgAAAMgAAADICAMAAACahl6sAAAAY1BMVEUAAAAAAAAAAAAAAAAAAAAAAAAAAAAAAAAAAAAAAAAAAAAAAAAAAAAAAAAAAAAAAACAgIDv7+8gICD////f398QEBBgYGCfn5+vr69AQEBQUFC/v7/Pz88wMDCPj49wcHAAAADZiLQHAAAAEHRSTlMAQIC/EO/fzyCfYDBQcI+vit6a2QAABzRJREFUeF7sz7ENgDAMRUHs76AEDKyQ/aekoKGhx9K7DW75OwAAAABAt0fZwJ5+qc03yQ+LQofIU/PTOrZeYXFTc25NisJAFF5QLiqoIYSboP3/f+VW7dZMo2GK6UbTyXmbN0+lv56TJkleZrCq9FwE7gKVHE7e2iguQFJa+gjM/pgCWckh981GnABPflk5JsDXwZsCi1LYpCT2A44LbFYayfsoEniHzvuwlwOVnkQDVQrvUynYrOCtukiV1wHerCwXwWMHb1dyEvCRwQeUFIH7QB1D94FOQveBTgL3gXJHvOUj0N51gA8rdRO8Svi4Mhc+InCgswPQybF9ummtrkDT58dF5GDS639qicDn3gFS6//qgaTdZ33kCWNBWEsCpV+FBZ3+kvGouAqgqtLfovJ++WDHSoGqKxqpgajPjVZiIEtp1AA0pf78C4FGz3Rj52D5jHXTc1V+LEkOPNRRd+aSyBPS6icpYFEiT4hR+lmND5SUwEUdNQLIB5UU2DFLfzM/yW97IwB2zOombuCCg2DvtVEfYGQGLkjebiTh9956RssDhHdYBfBj1nXWv2rp2jpsQL16KjPh2toQs7qnOutka+u0IWYNz39WogOVeAPquECswJUJb3Hb142h4gauvSgiRr2W0p0buApRRBoL7oobuGLRz7e13W65gWsnyXqPqNuL1MptSnYbUEcpZuCS+7KDPOhqKbM8xMZC7JjVLadIKSN7PurL49NeqG1FrN5rZ90BFyoMIzcLdSsQyyT5iIv69PMWhaCd1ADljoOs/geLSsZIzJ9mPWAZ90bICH+a1ZpF3G8BGBn1k8ZpEffJeyO9fpEalnBvvTfSapTdo8y3PSNg5EhBXS+oM7bPh4CRiBOz6laj6skO+J4bqbGeHhqlGsSdGrjOEkaGeYDvlf25Cu11AntdYszCsdyoUaN5gahyfwaCGLMwwJtOo9Rk7R5db6x25JhVI/wzNRbujj/2XMgx64rUqNfAUhMDl8AUpVmq/+kJlAqgoQWuTODryGh1JBuU3ppCOjxck1Nj1rCADjLekgJX7P6Tbvsjxs0clK7HwEVoWu5oN1ZKRE31HBRFwd39aYGrjTrK3PSCakLScgdJbaFugWKpJyDiCpIBUV9rzqjW9dmHM6yqW62XSWlLleMDQidCzLrDTzKjvXskTOfc1BYiUFE2wjWh+bqpLbUYPNZBaQiV5aJvNfYvWwdl3Xfs/BD2+OtpaDUScM9d32edCCcwzTMo97XA6BT3lrSBffwW98j1jQtDOqX8MpZYiSdOj5k+bNTXQVmH6uj8aHxN/vBhuvWUkjm/rDAgueSZ5GjWCHHYuIbrlyrK3P6mtWqNxO2kDFzqFPAdRP7Il5+4Ar3niry7UhH+BVfchwgUV4AXqDOBjiVwOTSkV2uKwAFBlQL38oN8KyFD0AWcBPruzi5sH6h9FrgPdHIQ8CHASVAPuJ0F+pXLDWOIT0+eyGmFMB4N9vm2RPbRyTLwJwFRp8yzt+f4KpOwlwOVb4xeGdIhrWgD9CkOeIO0gjZ8U8QosAxt+KQ8ToGiv+2d3arkIBCEj+2/0eQV6v2fchkz4Mm2cTQXyyx0Q91okHxG1KGL6fjFdQpytJiLI317cYK8e3wIGxvFVysMiiv4WLb/rV4HkdYe73BaR8rqGwFEIpFIJBKJRBI5dRrT70Zeis4oekWqFd0GTxr1DnajN62NSaU6elZm0eLASfLF6gLgNmdi23OdJ91tJSsF6M8Fpmgt/eG7HrrMQLpZrCEIS+0MQfjgafEfRFQPxIYbkALYsp0riY48BvGqRrGAmwGJgCX1XnwUFv2LsdvqTR9EM0fPAEQ3xyfUBMhjY6CDi4DpgSDegqhlkJ8doM8g21MXQQZIAcRBDgukLsgOHOYJSPoMEp6CaCC8vgoHoQxg64EEAF4tghgHhIml5Z4trVBd6QXIHOQ1h868QXhOUasVkM0D+8yulQFLZhlkrwgG0BykOraOBsKSPj5NgFj9Cst2FAbC3dMuLJnHt3PPCxykdhMDqUquZQpmz5EyA2L2J77mBACljrpzkNoOxUGqkgcAHT6AODrDA9gnQDQAv9MrypLbz9ast4M1HOQ8+0wD6aRK7Da5a7W9YwSSHmV9FXBsDvChAKkH8nMAvoH0Sgu6KZB2kIxBDiA9cpnkmkK3ycJ3QYwDdgADJ8E2BmGvPgTRT3ZfA7j3VMECioM008PgHFKTIAWIMyB5GYQAaucCIu+qnQwkXLe9MAdiHJA+gpQnhhsHhN/TbhhIjfg3iHMxqUqUHKCnbr8q+ev1V727TpnfM+NSON9q8vabgeNilCsMpDmZbysW2DACufeaqZvCHdku2W/4coz3IOG6E5iimWHpDsTeVggOHORUiEvVofjv61zMpWp8aF0b+8SqEGmibPiY3erzrZ11VV3GMZkoHkTpn6e9RCKRSCQSiUQikUgkEkn8AfODM2NK4+W8AAAAAElFTkSuQmCC;" vertex="1" parent="1">
          <mxGeometry x="1190" y="277.51" width="80" height="80" as="geometry" />
        </mxCell>
        <mxCell id="iPHKZAZRWa_BI_mhg364-23" style="edgeStyle=orthogonalEdgeStyle;rounded=0;orthogonalLoop=1;jettySize=auto;html=1;exitX=0;exitY=0.5;exitDx=0;exitDy=0;entryX=1;entryY=0.5;entryDx=0;entryDy=0;" edge="1" parent="1" source="iPHKZAZRWa_BI_mhg364-11" target="iPHKZAZRWa_BI_mhg364-9">
          <mxGeometry relative="1" as="geometry" />
        </mxCell>
        <mxCell id="iPHKZAZRWa_BI_mhg364-53" value="&lt;font style=&quot;font-size: 20px;&quot;&gt;&lt;b&gt;4.&lt;/b&gt; Trigger &lt;br&gt;Deploy&lt;/font&gt;" style="edgeLabel;html=1;align=center;verticalAlign=middle;resizable=0;points=[];labelBorderColor=#66FF66;" vertex="1" connectable="0" parent="iPHKZAZRWa_BI_mhg364-23">
          <mxGeometry x="-0.0445" y="-4" relative="1" as="geometry">
            <mxPoint y="6" as="offset" />
          </mxGeometry>
        </mxCell>
        <mxCell id="iPHKZAZRWa_BI_mhg364-11" value="Git" style="shape=image;verticalLabelPosition=top;labelBackgroundColor=default;verticalAlign=bottom;aspect=fixed;imageAspect=0;image=data:image/png,iVBORw0KGgoAAAANSUhEUgAAAOEAAADhCAMAAAAJbSJIAAAAilBMVEX////eTDbdQSfeSjPcPiPwtKz32NT0yMLmgHL31tLmfnDeSDDdPSD42tbdRCvcPyTlemvuq6P88e/++vnpkof0zsn76ujldWbng3bpj4PvsarcORvuqaDhYlDfUjzgV0LrnpXjbl7xurTyvrjqmI354d7hX0zdUj7ialvtopn1y8bbMg3oin777et5gDegAAAJvElEQVR4nO1da3ebOBA1iDjxgsGxYzsJ8Su2022b/f9/b/0IMQKJ0UgagWjvp570gLhn7tWMpAEPBu6weP9crYPNcjufORzVHebLPIxZEAQsTYLttO3HsY7pcxIH32BhsG/7iSzjuE4DDix5afuZrGKYsKCKbNL2U1nEKK0TDILwn7afyxqGsYjgieJD209mCcNMTPBEsR9CHQs82CuKI4lEeyNUmQd7Q1GUJnol1GEIEfQ8aUAS9V6oQ2Gi71EUYQ9+U/TTi+JSrUdRVPPgN0X/vDiMMAQ9FKq6Bz2l2FyqSSj6JFTVNOEtRbxEvyj6IlS9CF4o+pE0FshZlKPoh1AfE22GvkTRiKIfXjSi6IlQ8/5T/CvUP53iHyDUv0mjBSwEf+tVFIfZneCvPfLiKGO5dYpdEupluZT0mOLXij7qrVC/d9WSd8H/9oBiaUUv9qJJjdoFoXKHL0KhvvntxcquWv+8WNuTya17sd3UL9hV61fSEB6+2Bdqe1GUHL4Ik4bRdNOWF0eybcO+FHANO9vSpMHi9AT8oUYrFBsPX8RezPP18ulweJqsc4UOBp6ie6ECW/fCpHF/LP61eP0ot5uqUHQ93YCHL0IvljHfSdvdxBTdClWhT0YoVA7vuBMcp1FUOqMXJg0Oxw1KqQ69qNLpFEi8yGG6wlF0FUXlA1A4itNNF72I6JOJYKHiFo9Ooojqk4Gj+BjhKNJ7cYQ7oweTxmDVsb4bbCMQnDTucUGkpojvk2EB8I7T7KNLBZxGl0V6gG56SOG78BTpphudPplkDt11lGHvSSZUTDvlN+L/oNtOcSX4hSJNFHHtlF9gH/Crhj860gOnWKpVEO/gOyPzxZWifaFq9qrFS/jWO602P9sUddopSRna9qKWBy8M/4Vvjk2IFBSRpVoJbAO/8Bto3tyiUPUmma/HEB3wczhiM759iroevCAD32jeozP+jaKdpKHfEHtG/Azd/2fbG/66Lc0FIrCoeWp3N1yrVCsj3YJjPCEXUBxF0yhqp4kbEng2NYqimRdHuF1bIWIFIRlF0USoph68IntVoNiOF43SRPkR7hUotuFFszRRAot+dZKifqlWR/6oQNG1UEcGpVod0eQIjuh4urHlwQJx+kKb+rFCNU70deTwlOowinbSROUR+L3he9EEaxRFhcX2NwgiWGf4W7TP6GhGtVCqiR6gwjDJRiKKLrxoM02Ux68wjJhwt9iBF9GHL6rDVxkGLG2Fou00cRu9xlBGkVao1kq1+uB1hgFLhF6knG6IPHgZW8DwVLJaj2KzUEnSRDG0iKFrL5J58DKykGHAQodetFts1wYWMwwcJg2KUq08roShPIosTsMT8M6RUKT04GVYGUOZF3+zyeHx7u7taRdGyFNUoVBpSrXyqFKGpxlVlDTG34er0/tlbtysSZgmikHlDCVeLOM4QTZrVlcaNrYNoTEbGEqEyl/AcG1+vBdJ00QxZBNDFYoLZLNmWajUk8x1xEaGkgKOg36z5pHcg5cBmxkGLAOjqNusOV27IAgyVBHqGFfqZJ/Xy561D2FRABmeUj8o1J8hasxr9+fcoATEAGaokDSQ7UWMnbcwl/iuKy0oMDxFEdr/v8OdiYeH0xxs8BIrbjAFhkEKLWCnuM4NxmaDd5yy9aHEMAIbG55xkkt+Ya/QhxLDGGxOQbZupFutvjktKPlwBRHEtt+w3WBt5/lhqDBUOBFHGjHYDOw8vgJUGKYKPyeAbUcdbKw8vgKUGIJd4YMBrnIL1oNll3yYPtlmeHL21k3NpuhDuDlmhqui409nRZsaQ7gddYHczngfzHTbO7FQyhZrsIFqjttmzE8JduuoqFGracDVBe4FlEsXNjbB6EKtLoUm0xmuQrkuVvZunKjEEHxNCjdtpF/drS/6XboIKDEEm+BQa72brScurKjGkKWNQUSFkCW3NqV/HFBUYxiknw0EURM/S8elSx/oKSoybHx5+AExkbJ4yF1LL1RVhg1bbgfEQ7JwXLmanKIqQ/lmzQExI7JkWLueWqjKDE+FyJuA33SJIRhXI+iAIoJhkO1qD7iv/jZdE6oeLEArVAzDIA4fyvXbbL/C9DGxRBTBM0iTBorhmeP6ZT+ezmaL0d2EZahEH4ojSC1UJMPzpJol+QlJiDv7k0mUPIpohppgaRNBSi86Yij3IHkU3TDkSzUxqLzohGGzB4mF6oIhi+AI0lF0wJBFKhE8g0So9AzFpZo7iuQM1TxYgECo1AzhNMHDftIgZqiSJnhYFyotQ5xEaaJY2UWzyxAq1cSw6kUWVlqe7n9b3IgWrehVYFGocVxdts/eYmsdBJg0QUQx3Ak6EBY7S7fX8WABS0KNJHugJu3qN2DTBAHFTHo6j9k9k4Fl+hE8w4JQ04aDXfOuQROJWqLINk0nEaadn3ppgoepUPPGfsORWVudbprgYZb6oW9hGenURgTPMBIqNNGNDW5u7sECBlGEuyt22om/aV8UC30vhqIjCA6vuve248EC2kItHcNKcNS8tX6pZpWiQoOMZkOPPQ8W0BOqQsOo3jf3zEo1MbSmG6rvJtqcZG7QEaoKQ42XBexL9AqNKNLE0FairwPvRUbx7Uu7aYIHWqgUcyldBLUowvkQW7ZRebAAVqgh+A0sZE1juuC1TpGBn0rG1aXqhy/6QAo1h9YWqI0M26WaDYrQSyKo9SG1BwvghJo3NjYPce2UbggiU7+9fRraNMEDJdS04UO7GI26kugVqChm0vb0LaYZz2EEz0B5MZK87PNk2E5JC5RQw53go4lTzLmFmzRhQDGOXyvzzewVc/bk1oMFUEJl2cdj6fxp8fiB+daIap9MqxRPy/J0ddjPx+P5/rCKUR9soq9FZcCuNFiaRUkSZcgPjbQjUT2KWnCdJng4eNvGfZrgQf62TbsRPINYqG16sABpFGn2RbEg9GLbHixAJtQ2SjUxiCh2wYMFSIRKcfiiD4LpphuTzA3WhdoliV5hOYrtJ/o67DZrdiRN8LAo1C5G8AxrFLvnwQKWvNjegheGFS9204MFLAi1O6WaGObNmp31YAFDoXarVBPDaLrpaprgYSBUxrofwTO0o4h/d6ktaHqx22mCh1YUu54meGh4sftpggdaqG0dvugD23fT4VpUBpRQ/fJgAcR045sHCygL1YdSTQzFKPpRqomh5EXG/CWoFEWfI3gG6EWfSjUxAKH6mSZ4NFL0NU3waBCqv2mCh3S6qX/b0FdIhNoPiV4hjKLvaYLHpN5n6X+a4PFS/cWldA3/Urdf2AflZr04eQZfF/IO022QXFr2WBzmS/BHgbzEbL5dboIfq8938LdWLOJ/+1SsZJnuW2AAAAAASUVORK5CYII=;fontSize=20;labelPosition=center;align=center;" vertex="1" parent="1">
          <mxGeometry x="1490" y="282.51" width="70" height="70" as="geometry" />
        </mxCell>
        <mxCell id="iPHKZAZRWa_BI_mhg364-33" value="" style="edgeStyle=orthogonalEdgeStyle;rounded=0;orthogonalLoop=1;jettySize=auto;html=1;exitX=1;exitY=0.5;exitDx=0;exitDy=0;" edge="1" parent="1" source="iPHKZAZRWa_BI_mhg364-2" target="iPHKZAZRWa_BI_mhg364-13">
          <mxGeometry relative="1" as="geometry">
            <mxPoint x="1357" y="519" as="sourcePoint" />
            <mxPoint x="1960" y="390" as="targetPoint" />
          </mxGeometry>
        </mxCell>
        <mxCell id="iPHKZAZRWa_BI_mhg364-13" value="&lt;b style=&quot;font-size: 20px;&quot;&gt;1.&lt;/b&gt;get the encryption key from Ansible" style="text;html=1;strokeColor=none;fillColor=none;align=center;verticalAlign=middle;whiteSpace=wrap;rounded=0;labelBackgroundColor=default;labelBorderColor=#66FF66;fontSize=20;" vertex="1" parent="1">
          <mxGeometry x="1560" y="493.88" width="140" height="50" as="geometry" />
        </mxCell>
      </root>
    </mxGraphModel>
  </diagram>
</mxfile>
